{
.appVersion = "3302";
.formatVersion = 3;
customParameters = (
{
name = fsType;
value = (
);
},
{
name = "Use Typo Metrics";
value = 1;
}
);
date = "2012-09-19 19:30:31 +0000";
familyName = "Cutive Mono";
featurePrefixes = (
{
automatic = 1;
code = "languagesystem DFLT dflt;

languagesystem latn dflt;
languagesystem latn ROM;
languagesystem latn MOL;
languagesystem latn CAT;
";
name = Languagesystems;
}
);
features = (
{
automatic = 1;
code = "feature locl;
feature frac;
feature ordn;
feature sups;
";
tag = aalt;
},
{
automatic = 1;
code = "script latn;
language ROM;
lookup locl_latn_0 {
	sub Scedilla by Scommaaccent;
	sub scedilla by scommaaccent;
} locl_latn_0;
language MOL;
lookup locl_latn_0;

script latn;
language CAT;
lookup locl_latn_1 {
	sub  l' periodcentered' l by ldot;
	sub  L' periodcentered' L by Ldot;
} locl_latn_1;
";
tag = locl;
},
{
automatic = 1;
code = "sub one by onesuperior;
sub two by twosuperior;
sub three by threesuperior;
sub four by foursuperior;
";
tag = sups;
},
{
automatic = 1;
code = "sub one slash four by onequarter;
sub one slash two by onehalf;
sub three slash four by threequarters;
";
tag = frac;
},
{
automatic = 1;
code = "sub [zero one two three four five six seven eight nine] [A a]' by ordfeminine;
sub [zero one two three four five six seven eight nine] [O o]' by ordmasculine;
";
tag = ordn;
}
);
fontMaster = (
{
customParameters = (
{
name = typoAscender;
value = 1697;
},
{
name = typoDescender;
value = -558;
},
{
name = typoLineGap;
value = 0;
},
{
name = winAscent;
value = 1697;
},
{
name = winDescent;
value = 558;
},
{
name = underlineThickness;
value = 0;
},
{
name = underlinePosition;
value = -435;
}
);
guides = (
{
pos = (358,396);
},
{
pos = (264,1171);
}
);
id = "840BD324-B0A6-42B0-BD23-CB5E8C19394F";
metricValues = (
{
pos = 1705;
},
{
pos = 1171;
},
{
pos = 774;
},
{
over = 20;
},
{
pos = -615;
},
{
over = 20;
}
);
name = Regular;
}
);
glyphs = (
{
glyphname = A;
lastChange = "2024-05-02 14:32:13 +0000";
layers = (
{
background = {
shapes = (
{
closed = 1;
nodes = (
(90,0,ls),
(57,0,o),
(40,21,o),
(40,43,cs),
(40,64,o),
(56,86,o),
(89,86,cs),
(174,86,l),
(559,1085,l),
(342,1085,ls),
(309,1085,o),
(292,1106,o),
(292,1128,cs),
(292,1149,o),
(308,1171,o),
(341,1171,cs),
(644,1171,ls),
(690,1171,o),
(713,1140,o),
(725,1106,cs),
(1087,86,l),
(1166,86,ls),
(1198,86,o),
(1214,65,o),
(1214,44,cs),
(1214,22,o),
(1197,0,o),
(1164,0,cs),
(798,0,ls),
(764,0,o),
(747,22,o),
(747,44,cs),
(747,65,o),
(763,86,o),
(796,86,cs),
(982,86,l),
(875,392,l),
(392,392,l),
(280,86,l),
(439,86,ls),
(472,86,o),
(489,64,o),
(489,43,cs),
(489,21,o),
(472,0,o),
(438,0,cs)
);
},
{
closed = 1;
nodes = (
(425,475,l),
(845,475,l),
(646,1072,l)
);
}
);
};
layerId = "840BD324-B0A6-42B0-BD23-CB5E8C19394F";
shapes = (
{
closed = 1;
nodes = (
(90,0,ls),
(57,0,o),
(40,21,o),
(40,43,cs),
(40,64,o),
(56,86,o),
(89,86,cs),
(174,86,l),
(559,1085,l),
(342,1085,ls),
(309,1085,o),
(292,1106,o),
(292,1128,cs),
(292,1149,o),
(308,1171,o),
(341,1171,cs),
(644,1171,ls),
(690,1171,o),
(713,1140,o),
(725,1106,cs),
(1087,86,l),
(1166,86,ls),
(1198,86,o),
(1214,65,o),
(1214,44,cs),
(1214,22,o),
(1197,0,o),
(1164,0,cs),
(798,0,ls),
(764,0,o),
(747,22,o),
(747,44,cs),
(747,65,o),
(763,86,o),
(796,86,cs),
(982,86,l),
(875,392,l),
(392,392,l),
(280,86,l),
(439,86,ls),
(472,86,o),
(489,64,o),
(489,43,cs),
(489,21,o),
(472,0,o),
(438,0,cs)
);
},
{
closed = 1;
nodes = (
(425,475,l),
(845,475,l),
(646,1072,l)
);
}
);
width = 1240;
}
);
unicode = 65;
},
{
glyphname = Aacute;
lastChange = "2024-05-02 14:32:21 +0000";
layers = (
{
background = {
shapes = (
{
closed = 1;
nodes = (
(798,1588,cs),
(476,1354,ls),
(473,1351,o),
(469,1350,o),
(465,1350,cs),
(453,1350,o),
(441,1360,o),
(441,1372,cs),
(441,1377,o),
(443,1382,o),
(448,1387,cs),
(719,1663,ls),
(729,1673,o),
(739,1677,o),
(750,1677,cs),
(781,1677,o),
(812,1644,o),
(812,1616,cs),
(812,1606,o),
(808,1595,o)
);
},
{
closed = 1;
nodes = (
(90,0,ls),
(57,0,o),
(40,21,o),
(40,43,cs),
(40,64,o),
(56,86,o),
(89,86,cs),
(174,86,l),
(559,1085,l),
(342,1085,ls),
(309,1085,o),
(292,1106,o),
(292,1128,cs),
(292,1149,o),
(308,1171,o),
(341,1171,cs),
(644,1171,ls),
(690,1171,o),
(713,1140,o),
(725,1106,cs),
(1087,86,l),
(1166,86,ls),
(1198,86,o),
(1214,65,o),
(1214,44,cs),
(1214,22,o),
(1197,0,o),
(1164,0,cs),
(798,0,ls),
(764,0,o),
(747,22,o),
(747,44,cs),
(747,65,o),
(763,86,o),
(796,86,cs),
(982,86,l),
(875,392,l),
(392,392,l),
(280,86,l),
(439,86,ls),
(472,86,o),
(489,64,o),
(489,43,cs),
(489,21,o),
(472,0,o),
(438,0,cs)
);
},
{
closed = 1;
nodes = (
(425,475,l),
(845,475,l),
(646,1072,l)
);
}
);
};
layerId = "840BD324-B0A6-42B0-BD23-CB5E8C19394F";
shapes = (
{
pos = (-60,372);
ref = acute;
},
{
ref = A;
}
);
width = 1240;
}
);
unicode = 193;
},
{
glyphname = Abreve;
lastChange = "2024-05-02 14:32:21 +0000";
layers = (
{
background = {
shapes = (
{
closed = 1;
nodes = (
(627,1408,cs),
(687,1408,o),
(746,1444,o),
(757,1512,c),
(761,1524,o),
(770,1528,o),
(780,1528,cs),
(796,1528,o),
(814,1516,o),
(814,1504,cs),
(814,1379,o),
(688,1350,o),
(627,1350,cs),
(566,1350,o),
(440,1379,o),
(440,1504,cs),
(440,1516,o),
(458,1528,o),
(474,1528,cs),
(484,1528,o),
(493,1524,o),
(497,1512,c),
(508,1444,o),
(567,1408,o)
);
},
{
closed = 1;
nodes = (
(90,0,ls),
(57,0,o),
(40,21,o),
(40,43,cs),
(40,64,o),
(56,86,o),
(89,86,cs),
(174,86,l),
(559,1085,l),
(342,1085,ls),
(309,1085,o),
(292,1106,o),
(292,1128,cs),
(292,1149,o),
(308,1171,o),
(341,1171,cs),
(644,1171,ls),
(690,1171,o),
(713,1140,o),
(725,1106,cs),
(1087,86,l),
(1166,86,ls),
(1198,86,o),
(1214,65,o),
(1214,44,cs),
(1214,22,o),
(1197,0,o),
(1164,0,cs),
(798,0,ls),
(764,0,o),
(747,22,o),
(747,44,cs),
(747,65,o),
(763,86,o),
(796,86,cs),
(982,86,l),
(875,392,l),
(392,392,l),
(280,86,l),
(439,86,ls),
(472,86,o),
(489,64,o),
(489,43,cs),
(489,21,o),
(472,0,o),
(438,0,cs)
);
},
{
closed = 1;
nodes = (
(425,475,l),
(845,475,l),
(646,1072,l)
);
}
);
};
layerId = "840BD324-B0A6-42B0-BD23-CB5E8C19394F";
shapes = (
{
pos = (-70,380);
ref = breve;
},
{
ref = A;
}
);
width = 1240;
}
);
unicode = 258;
},
{
glyphname = Acircumflex;
lastChange = "2024-05-02 14:32:21 +0000";
layers = (
{
background = {
shapes = (
{
closed = 1;
nodes = (
(627,1691,cs),
(640,1691,o),
(654,1687,o),
(659,1679,cs),
(843,1396,l),
(848,1391,o),
(850,1384,o),
(850,1379,cs),
(850,1363,o),
(831,1350,o),
(813,1350,cs),
(805,1350,o),
(795,1351,o),
(790,1359,cs),
(627,1568,l),
(465,1359,ls),
(460,1351,o),
(450,1350,o),
(442,1350,cs),
(424,1350,o),
(405,1363,o),
(405,1379,cs),
(405,1384,o),
(407,1391,o),
(412,1396,c),
(596,1679,ls),
(601,1687,o),
(614,1691,o)
);
},
{
closed = 1;
nodes = (
(90,0,ls),
(57,0,o),
(40,21,o),
(40,43,cs),
(40,64,o),
(56,86,o),
(89,86,cs),
(174,86,l),
(559,1085,l),
(342,1085,ls),
(309,1085,o),
(292,1106,o),
(292,1128,cs),
(292,1149,o),
(308,1171,o),
(341,1171,cs),
(644,1171,ls),
(690,1171,o),
(713,1140,o),
(725,1106,cs),
(1087,86,l),
(1166,86,ls),
(1198,86,o),
(1214,65,o),
(1214,44,cs),
(1214,22,o),
(1197,0,o),
(1164,0,cs),
(798,0,ls),
(764,0,o),
(747,22,o),
(747,44,cs),
(747,65,o),
(763,86,o),
(796,86,cs),
(982,86,l),
(875,392,l),
(392,392,l),
(280,86,l),
(439,86,ls),
(472,86,o),
(489,64,o),
(489,43,cs),
(489,21,o),
(472,0,o),
(438,0,cs)
);
},
{
closed = 1;
nodes = (
(425,475,l),
(845,475,l),
(646,1072,l)
);
}
);
};
layerId = "840BD324-B0A6-42B0-BD23-CB5E8C19394F";
shapes = (
{
pos = (-72,371);
ref = circumflex;
},
{
ref = A;
}
);
width = 1240;
}
);
unicode = 194;
},
{
glyphname = Adblgrave;
lastChange = "2024-05-02 14:32:25 +0000";
layers = (
{
background = {
shapes = (
{
closed = 1;
nodes = (
(321,1588,ls),
(311,1595,o),
(307,1606,o),
(307,1616,cs),
(307,1644,o),
(337,1677,o),
(368,1677,cs),
(379,1677,o),
(390,1673,o),
(400,1663,cs),
(671,1387,ls),
(676,1382,o),
(677,1377,o),
(677,1372,cs),
(677,1360,o),
(666,1350,o),
(654,1350,cs),
(650,1350,o),
(646,1351,o),
(643,1354,cs)
);
},
{
closed = 1;
nodes = (
(631,1608,l),
(621,1615,o),
(617,1626,o),
(617,1636,cs),
(617,1664,o),
(647,1697,o),
(678,1697,cs),
(689,1697,o),
(700,1693,o),
(710,1683,c),
(941,1387,ls),
(946,1382,o),
(947,1377,o),
(947,1372,cs),
(947,1360,o),
(936,1350,o),
(924,1350,cs),
(920,1350,o),
(916,1351,o),
(913,1354,cs)
);
},
{
closed = 1;
nodes = (
(90,0,ls),
(57,0,o),
(40,21,o),
(40,43,cs),
(40,64,o),
(56,86,o),
(89,86,cs),
(174,86,l),
(559,1085,l),
(342,1085,ls),
(309,1085,o),
(292,1106,o),
(292,1128,cs),
(292,1149,o),
(308,1171,o),
(341,1171,cs),
(644,1171,ls),
(690,1171,o),
(713,1140,o),
(725,1106,cs),
(1087,86,l),
(1166,86,ls),
(1198,86,o),
(1214,65,o),
(1214,44,cs),
(1214,22,o),
(1197,0,o),
(1164,0,cs),
(798,0,ls),
(764,0,o),
(747,22,o),
(747,44,cs),
(747,65,o),
(763,86,o),
(796,86,cs),
(982,86,l),
(875,392,l),
(392,392,l),
(280,86,l),
(439,86,ls),
(472,86,o),
(489,64,o),
(489,43,cs),
(489,21,o),
(472,0,o),
(438,0,cs)
);
},
{
closed = 1;
nodes = (
(425,475,l),
(845,475,l),
(646,1072,l)
);
}
);
};
layerId = "840BD324-B0A6-42B0-BD23-CB5E8C19394F";
shapes = (
{
pos = (7,444);
ref = dblgravecomb;
},
{
ref = A;
}
);
width = 1240;
}
);
unicode = 512;
},
{
glyphname = Adieresis;
lastChange = "2024-05-02 14:32:21 +0000";
layers = (
{
background = {
shapes = (
{
closed = 1;
nodes = (
(460,1474,cs),
(506,1474,o),
(542,1437,o),
(542,1391,cs),
(542,1345,o),
(506,1309,o),
(460,1309,cs),
(414,1309,o),
(377,1345,o),
(377,1391,cs),
(377,1437,o),
(414,1474,o)
);
},
{
closed = 1;
nodes = (
(795,1474,cs),
(841,1474,o),
(877,1437,o),
(877,1391,cs),
(877,1345,o),
(841,1309,o),
(795,1309,cs),
(749,1309,o),
(712,1345,o),
(712,1391,cs),
(712,1437,o),
(749,1474,o)
);
},
{
closed = 1;
nodes = (
(90,0,ls),
(57,0,o),
(40,21,o),
(40,43,cs),
(40,64,o),
(56,86,o),
(89,86,cs),
(174,86,l),
(559,1085,l),
(342,1085,ls),
(309,1085,o),
(292,1106,o),
(292,1128,cs),
(292,1149,o),
(308,1171,o),
(341,1171,cs),
(644,1171,ls),
(690,1171,o),
(713,1140,o),
(725,1106,cs),
(1087,86,l),
(1166,86,ls),
(1198,86,o),
(1214,65,o),
(1214,44,cs),
(1214,22,o),
(1197,0,o),
(1164,0,cs),
(798,0,ls),
(764,0,o),
(747,22,o),
(747,44,cs),
(747,65,o),
(763,86,o),
(796,86,cs),
(982,86,l),
(875,392,l),
(392,392,l),
(280,86,l),
(439,86,ls),
(472,86,o),
(489,64,o),
(489,43,cs),
(489,21,o),
(472,0,o),
(438,0,cs)
);
},
{
closed = 1;
nodes = (
(425,475,l),
(845,475,l),
(646,1072,l)
);
}
);
};
layerId = "840BD324-B0A6-42B0-BD23-CB5E8C19394F";
shapes = (
{
pos = (-72,331);
ref = dieresis;
},
{
ref = A;
}
);
width = 1240;
}
);
unicode = 196;
},
{
glyphname = Agrave;
lastChange = "2024-05-02 14:32:21 +0000";
layers = (
{
background = {
shapes = (
{
closed = 1;
nodes = (
(829,1385,cs),
(829,1368,o),
(814,1350,o),
(796,1350,cs),
(791,1350,o),
(787,1351,o),
(784,1354,c),
(673,1418,o),
(551,1497,o),
(444,1564,cs),
(432,1572,o),
(425,1583,o),
(425,1595,cs),
(425,1623,o),
(454,1652,o),
(483,1652,cs),
(494,1652,o),
(503,1649,o),
(511,1642,cs),
(604,1562,o),
(717,1474,o),
(819,1406,cs),
(827,1401,o),
(829,1395,o)
);
},
{
closed = 1;
nodes = (
(90,0,ls),
(57,0,o),
(40,21,o),
(40,43,cs),
(40,64,o),
(56,86,o),
(89,86,cs),
(174,86,l),
(559,1085,l),
(342,1085,ls),
(309,1085,o),
(292,1106,o),
(292,1128,cs),
(292,1149,o),
(308,1171,o),
(341,1171,cs),
(644,1171,ls),
(690,1171,o),
(713,1140,o),
(725,1106,cs),
(1087,86,l),
(1166,86,ls),
(1198,86,o),
(1214,65,o),
(1214,44,cs),
(1214,22,o),
(1197,0,o),
(1164,0,cs),
(798,0,ls),
(764,0,o),
(747,22,o),
(747,44,cs),
(747,65,o),
(763,86,o),
(796,86,cs),
(982,86,l),
(875,392,l),
(392,392,l),
(280,86,l),
(439,86,ls),
(472,86,o),
(489,64,o),
(489,43,cs),
(489,21,o),
(472,0,o),
(438,0,cs)
);
},
{
closed = 1;
nodes = (
(425,475,l),
(845,475,l),
(646,1072,l)
);
}
);
};
layerId = "840BD324-B0A6-42B0-BD23-CB5E8C19394F";
shapes = (
{
pos = (419,375);
ref = grave;
},
{
ref = A;
}
);
width = 1240;
}
);
unicode = 192;
},
{
glyphname = Ainvertedbreve;
lastChange = "2024-05-02 14:32:25 +0000";
layers = (
{
background = {
shapes = (
{
closed = 1;
nodes = (
(627,1470,cs),
(567,1470,o),
(508,1434,o),
(497,1366,c),
(493,1354,o),
(484,1350,o),
(474,1350,cs),
(458,1350,o),
(440,1362,o),
(440,1374,cs),
(440,1499,o),
(566,1528,o),
(627,1528,cs),
(688,1528,o),
(814,1499,o),
(814,1374,cs),
(814,1362,o),
(796,1350,o),
(780,1350,cs),
(770,1350,o),
(761,1354,o),
(757,1366,c),
(746,1434,o),
(687,1470,o)
);
},
{
closed = 1;
nodes = (
(90,0,ls),
(57,0,o),
(40,21,o),
(40,43,cs),
(40,64,o),
(56,86,o),
(89,86,cs),
(174,86,l),
(559,1085,l),
(342,1085,ls),
(309,1085,o),
(292,1106,o),
(292,1128,cs),
(292,1149,o),
(308,1171,o),
(341,1171,cs),
(644,1171,ls),
(690,1171,o),
(713,1140,o),
(725,1106,cs),
(1087,86,l),
(1166,86,ls),
(1198,86,o),
(1214,65,o),
(1214,44,cs),
(1214,22,o),
(1197,0,o),
(1164,0,cs),
(798,0,ls),
(764,0,o),
(747,22,o),
(747,44,cs),
(747,65,o),
(763,86,o),
(796,86,cs),
(982,86,l),
(875,392,l),
(392,392,l),
(280,86,l),
(439,86,ls),
(472,86,o),
(489,64,o),
(489,43,cs),
(489,21,o),
(472,0,o),
(438,0,cs)
);
},
{
closed = 1;
nodes = (
(425,475,l),
(845,475,l),
(646,1072,l)
);
}
);
};
layerId = "840BD324-B0A6-42B0-BD23-CB5E8C19394F";
shapes = (
{
pos = (7,380);
ref = breveinvertedcomb;
},
{
ref = A;
}
);
width = 1240;
}
);
unicode = 514;
},
{
glyphname = Amacron;
lastChange = "2024-05-02 14:32:21 +0000";
layers = (
{
background = {
shapes = (
{
closed = 1;
nodes = (
(810,1350,cs),
(448,1350,ls),
(410,1350,o),
(397,1366,o),
(397,1393,cs),
(397,1420,o),
(413,1436,o),
(447,1436,cs),
(808,1436,ls),
(841,1436,o),
(857,1420,o),
(857,1393,cs),
(857,1366,o),
(843,1350,o)
);
},
{
closed = 1;
nodes = (
(90,0,ls),
(57,0,o),
(40,21,o),
(40,43,cs),
(40,64,o),
(56,86,o),
(89,86,cs),
(174,86,l),
(559,1085,l),
(342,1085,ls),
(309,1085,o),
(292,1106,o),
(292,1128,cs),
(292,1149,o),
(308,1171,o),
(341,1171,cs),
(644,1171,ls),
(690,1171,o),
(713,1140,o),
(725,1106,cs),
(1087,86,l),
(1166,86,ls),
(1198,86,o),
(1214,65,o),
(1214,44,cs),
(1214,22,o),
(1197,0,o),
(1164,0,cs),
(798,0,ls),
(764,0,o),
(747,22,o),
(747,44,cs),
(747,65,o),
(763,86,o),
(796,86,cs),
(982,86,l),
(875,392,l),
(392,392,l),
(280,86,l),
(439,86,ls),
(472,86,o),
(489,64,o),
(489,43,cs),
(489,21,o),
(472,0,o),
(438,0,cs)
);
},
{
closed = 1;
nodes = (
(425,475,l),
(845,475,l),
(646,1072,l)
);
}
);
};
layerId = "840BD324-B0A6-42B0-BD23-CB5E8C19394F";
shapes = (
{
pos = (-73,317);
ref = macron;
},
{
ref = A;
}
);
width = 1240;
}
);
unicode = 256;
},
{
glyphname = Aogonek;
lastChange = "2024-05-02 14:32:21 +0000";
layers = (
{
background = {
shapes = (
{
closed = 1;
nodes = (
(949,-274,cs),
(949,-318,o),
(981,-322,o),
(1013,-322,cs),
(1036,-322,ls),
(1058,-322,o),
(1085,-317,o),
(1085,-336,cs),
(1085,-371,o),
(1027,-413,o),
(963,-413,cs),
(900,-413,o),
(851,-384,o),
(851,-303,cs),
(851,-242,o),
(912,-80,o),
(1026,14,c),
(1067,14,ls),
(1071,14,o),
(949,-202,o)
);
},
{
closed = 1;
nodes = (
(90,0,ls),
(57,0,o),
(40,21,o),
(40,43,cs),
(40,64,o),
(56,86,o),
(89,86,cs),
(174,86,l),
(559,1085,l),
(342,1085,ls),
(309,1085,o),
(292,1106,o),
(292,1128,cs),
(292,1149,o),
(308,1171,o),
(341,1171,cs),
(644,1171,ls),
(690,1171,o),
(713,1140,o),
(725,1106,cs),
(1087,86,l),
(1166,86,ls),
(1198,86,o),
(1214,65,o),
(1214,44,cs),
(1214,22,o),
(1197,0,o),
(1164,0,cs),
(798,0,ls),
(764,0,o),
(747,22,o),
(747,44,cs),
(747,65,o),
(763,86,o),
(796,86,cs),
(982,86,l),
(875,392,l),
(392,392,l),
(280,86,l),
(439,86,ls),
(472,86,o),
(489,64,o),
(489,43,cs),
(489,21,o),
(472,0,o),
(438,0,cs)
);
},
{
closed = 1;
nodes = (
(425,475,l),
(845,475,l),
(646,1072,l)
);
}
);
};
layerId = "840BD324-B0A6-42B0-BD23-CB5E8C19394F";
shapes = (
{
pos = (348,-6);
ref = ogonek;
},
{
ref = A;
}
);
width = 1240;
}
);
unicode = 260;
},
{
glyphname = Aring;
lastChange = "2024-05-02 14:32:21 +0000";
layers = (
{
background = {
shapes = (
{
closed = 1;
nodes = (
(632,1241,cs),
(696,1241,o),
(726,1289,o),
(726,1345,cs),
(726,1401,o),
(694,1450,o),
(629,1450,cs),
(563,1450,o),
(532,1401,o),
(532,1345,cs),
(532,1290,o),
(569,1241,o)
);
},
{
closed = 1;
nodes = (
(630,1516,cs),
(743,1516,o),
(799,1432,o),
(799,1347,cs),
(799,1262,o),
(740,1176,o),
(627,1176,cs),
(514,1176,o),
(456,1260,o),
(456,1344,cs),
(456,1430,o),
(516,1516,o)
);
},
{
closed = 1;
nodes = (
(90,0,ls),
(57,0,o),
(40,21,o),
(40,43,cs),
(40,64,o),
(56,86,o),
(89,86,cs),
(174,86,l),
(559,1085,l),
(342,1085,ls),
(309,1085,o),
(292,1106,o),
(292,1128,cs),
(292,1149,o),
(308,1171,o),
(341,1171,cs),
(644,1171,ls),
(690,1171,o),
(713,1140,o),
(725,1106,cs),
(1087,86,l),
(1166,86,ls),
(1198,86,o),
(1214,65,o),
(1214,44,cs),
(1214,22,o),
(1197,0,o),
(1164,0,cs),
(798,0,ls),
(764,0,o),
(747,22,o),
(747,44,cs),
(747,65,o),
(763,86,o),
(796,86,cs),
(982,86,l),
(875,392,l),
(392,392,l),
(280,86,l),
(439,86,ls),
(472,86,o),
(489,64,o),
(489,43,cs),
(489,21,o),
(472,0,o),
(438,0,cs)
);
},
{
closed = 1;
nodes = (
(425,475,l),
(845,475,l),
(646,1072,l)
);
}
);
};
layerId = "840BD324-B0A6-42B0-BD23-CB5E8C19394F";
shapes = (
{
pos = (-72,167);
ref = ring;
},
{
ref = A;
}
);
width = 1240;
}
);
unicode = 197;
},
{
glyphname = Atilde;
lastChange = "2024-05-02 14:32:21 +0000";
layers = (
{
background = {
shapes = (
{
closed = 1;
nodes = (
(500,1528,cs),
(505,1528,o),
(510,1527,o),
(516,1526,cs),
(586,1513,o),
(706,1429,o),
(748,1429,cs),
(779,1429,o),
(795,1472,o),
(813,1505,cs),
(816,1511,o),
(823,1513,o),
(830,1513,cs),
(851,1513,o),
(882,1494,o),
(878,1475,c),
(858,1423,o),
(820,1350,o),
(752,1350,cs),
(744,1350,o),
(734,1352,o),
(725,1354,cs),
(647,1374,o),
(564,1435,o),
(511,1447,cs),
(508,1448,o),
(505,1448,o),
(502,1448,cs),
(476,1448,o),
(457,1422,o),
(439,1380,cs),
(435,1372,o),
(427,1368,o),
(417,1368,cs),
(399,1368,o),
(376,1380,o),
(376,1396,cs),
(376,1454,o),
(439,1528,o)
);
},
{
closed = 1;
nodes = (
(90,0,ls),
(57,0,o),
(40,21,o),
(40,43,cs),
(40,64,o),
(56,86,o),
(89,86,cs),
(174,86,l),
(559,1085,l),
(342,1085,ls),
(309,1085,o),
(292,1106,o),
(292,1128,cs),
(292,1149,o),
(308,1171,o),
(341,1171,cs),
(644,1171,ls),
(690,1171,o),
(713,1140,o),
(725,1106,cs),
(1087,86,l),
(1166,86,ls),
(1198,86,o),
(1214,65,o),
(1214,44,cs),
(1214,22,o),
(1197,0,o),
(1164,0,cs),
(798,0,ls),
(764,0,o),
(747,22,o),
(747,44,cs),
(747,65,o),
(763,86,o),
(796,86,cs),
(982,86,l),
(875,392,l),
(392,392,l),
(280,86,l),
(439,86,ls),
(472,86,o),
(489,64,o),
(489,43,cs),
(489,21,o),
(472,0,o),
(438,0,cs)
);
},
{
closed = 1;
nodes = (
(425,475,l),
(845,475,l),
(646,1072,l)
);
}
);
};
layerId = "840BD324-B0A6-42B0-BD23-CB5E8C19394F";
shapes = (
{
pos = (-33,373);
ref = tilde;
},
{
ref = A;
}
);
width = 1240;
}
);
unicode = 195;
},
{
glyphname = AE;
lastChange = "2024-05-02 14:32:13 +0000";
layers = (
{
background = {
shapes = (
{
closed = 1;
nodes = (
(88,0,ls),
(55,0,o),
(38,21,o),
(38,43,cs),
(38,64,o),
(54,86,o),
(87,86,cs),
(138,86,l),
(463,1085,l),
(301,1085,ls),
(268,1085,o),
(251,1106,o),
(251,1128,cs),
(251,1149,o),
(267,1171,o),
(300,1171,cs),
(1050,1171,ls),
(1083,1171,o),
(1106,1151,o),
(1106,1117,cs),
(1106,893,ls),
(1106,863,o),
(1086,849,o),
(1066,849,cs),
(1046,849,o),
(1028,862,o),
(1027,887,cs),
(1013,1085,l),
(729,1085,l),
(729,637,l),
(871,637,l),
(884,740,ls),
(887,770,o),
(906,785,o),
(924,785,cs),
(943,785,o),
(962,769,o),
(962,732,cs),
(962,460,ls),
(962,425,o),
(943,409,o),
(924,409,cs),
(905,409,o),
(886,424,o),
(884,452,c),
(871,560,l),
(729,560,l),
(729,85,l),
(1016,85,l),
(1032,296,ls),
(1033,320,o),
(1052,335,o),
(1073,335,cs),
(1094,335,o),
(1115,319,o),
(1115,283,cs),
(1115,53,ls),
(1115,19,o),
(1092,0,o),
(1059,0,cs),
(613,0,ls),
(579,0,o),
(562,22,o),
(562,43,cs),
(562,64,o),
(579,85,o),
(612,85,cs),
(642,85,l),
(642,392,l),
(327,392,l),
(231,86,l),
(398,86,ls),
(431,86,o),
(448,64,o),
(448,43,cs),
(448,21,o),
(431,0,o),
(397,0,cs)
);
},
{
closed = 1;
nodes = (
(642,475,l),
(642,1085,l),
(545,1085,l),
(354,475,l)
);
}
);
};
layerId = "840BD324-B0A6-42B0-BD23-CB5E8C19394F";
shapes = (
{
closed = 1;
nodes = (
(88,0,ls),
(55,0,o),
(38,21,o),
(38,43,cs),
(38,64,o),
(54,86,o),
(87,86,cs),
(138,86,l),
(463,1085,l),
(301,1085,ls),
(268,1085,o),
(251,1106,o),
(251,1128,cs),
(251,1149,o),
(267,1171,o),
(300,1171,cs),
(1050,1171,ls),
(1083,1171,o),
(1106,1151,o),
(1106,1117,cs),
(1106,893,ls),
(1106,863,o),
(1086,849,o),
(1066,849,cs),
(1046,849,o),
(1028,862,o),
(1027,887,cs),
(1013,1085,l),
(729,1085,l),
(729,637,l),
(871,637,l),
(884,740,ls),
(887,770,o),
(906,785,o),
(924,785,cs),
(943,785,o),
(962,769,o),
(962,732,cs),
(962,460,ls),
(962,425,o),
(943,409,o),
(924,409,cs),
(905,409,o),
(886,424,o),
(884,452,c),
(871,560,l),
(729,560,l),
(729,85,l),
(1016,85,l),
(1032,296,ls),
(1033,320,o),
(1052,335,o),
(1073,335,cs),
(1094,335,o),
(1115,319,o),
(1115,283,cs),
(1115,53,ls),
(1115,19,o),
(1092,0,o),
(1059,0,cs),
(613,0,ls),
(579,0,o),
(562,22,o),
(562,43,cs),
(562,64,o),
(579,85,o),
(612,85,cs),
(642,85,l),
(642,392,l),
(327,392,l),
(231,86,l),
(398,86,ls),
(431,86,o),
(448,64,o),
(448,43,cs),
(448,21,o),
(431,0,o),
(397,0,cs)
);
},
{
closed = 1;
nodes = (
(642,475,l),
(642,1085,l),
(545,1085,l),
(354,475,l)
);
}
);
width = 1240;
}
);
unicode = 198;
},
{
glyphname = B;
lastChange = "2024-05-02 14:32:13 +0000";
layers = (
{
background = {
shapes = (
{
closed = 1;
nodes = (
(921,885,cs),
(921,1036,o),
(793,1085,o),
(605,1085,cs),
(499,1085,l),
(499,673,l),
(629,673,ls),
(776,673,o),
(921,733,o)
);
},
{
closed = 1;
nodes = (
(1008,363,cs),
(1008,575,o),
(826,597,o),
(629,597,cs),
(499,597,l),
(499,86,l),
(605,86,ls),
(841,86,o),
(1008,153,o)
);
},
{
closed = 1;
nodes = (
(1104,348,cs),
(1104,99,o),
(881,0,o),
(602,0,cs),
(244,0,ls),
(210,0,o),
(193,21,o),
(193,43,cs),
(193,64,o),
(210,86,o),
(243,86,cs),
(403,86,l),
(403,1085,l),
(237,1085,ls),
(204,1085,o),
(188,1107,o),
(188,1129,cs),
(188,1150,o),
(204,1171,o),
(236,1171,cs),
(592,1171,ls),
(817,1171,o),
(1007,1106,o),
(1007,889,cs),
(1007,766,o),
(932,686,o),
(843,660,c),
(985,639,o),
(1104,548,o)
);
}
);
};
layerId = "840BD324-B0A6-42B0-BD23-CB5E8C19394F";
shapes = (
{
closed = 1;
nodes = (
(921,885,cs),
(921,1036,o),
(793,1085,o),
(605,1085,cs),
(499,1085,l),
(499,673,l),
(629,673,ls),
(776,673,o),
(921,733,o)
);
},
{
closed = 1;
nodes = (
(1008,363,cs),
(1008,575,o),
(826,597,o),
(629,597,cs),
(499,597,l),
(499,86,l),
(605,86,ls),
(841,86,o),
(1008,153,o)
);
},
{
closed = 1;
nodes = (
(1104,348,cs),
(1104,99,o),
(881,0,o),
(602,0,cs),
(244,0,ls),
(210,0,o),
(193,21,o),
(193,43,cs),
(193,64,o),
(210,86,o),
(243,86,cs),
(403,86,l),
(403,1085,l),
(237,1085,ls),
(204,1085,o),
(188,1107,o),
(188,1129,cs),
(188,1150,o),
(204,1171,o),
(236,1171,cs),
(592,1171,ls),
(817,1171,o),
(1007,1106,o),
(1007,889,cs),
(1007,766,o),
(932,686,o),
(843,660,c),
(985,639,o),
(1104,548,o)
);
}
);
width = 1240;
}
);
unicode = 66;
},
{
glyphname = Bdotaccent;
lastChange = "2024-05-02 14:32:25 +0000";
layers = (
{
background = {
shapes = (
{
closed = 1;
nodes = (
(646,1474,cs),
(692,1474,o),
(728,1437,o),
(728,1391,cs),
(728,1345,o),
(692,1309,o),
(646,1309,cs),
(600,1309,o),
(563,1345,o),
(563,1391,cs),
(563,1437,o),
(600,1474,o)
);
},
{
closed = 1;
nodes = (
(921,885,cs),
(921,1036,o),
(793,1085,o),
(605,1085,cs),
(499,1085,l),
(499,673,l),
(629,673,ls),
(776,673,o),
(921,733,o)
);
},
{
closed = 1;
nodes = (
(1008,363,cs),
(1008,575,o),
(826,597,o),
(629,597,cs),
(499,597,l),
(499,86,l),
(605,86,ls),
(841,86,o),
(1008,153,o)
);
},
{
closed = 1;
nodes = (
(1104,348,cs),
(1104,99,o),
(881,0,o),
(602,0,cs),
(244,0,ls),
(210,0,o),
(193,21,o),
(193,43,cs),
(193,64,o),
(210,86,o),
(243,86,cs),
(403,86,l),
(403,1085,l),
(237,1085,ls),
(204,1085,o),
(188,1107,o),
(188,1129,cs),
(188,1150,o),
(204,1171,o),
(236,1171,cs),
(592,1171,ls),
(817,1171,o),
(1007,1106,o),
(1007,889,cs),
(1007,766,o),
(932,686,o),
(843,660,c),
(985,639,o),
(1104,548,o)
);
}
);
};
layerId = "840BD324-B0A6-42B0-BD23-CB5E8C19394F";
shapes = (
{
pos = (2,661);
ref = dotaccentcomb;
},
{
ref = B;
}
);
width = 1240;
}
);
unicode = 7682;
},
{
glyphname = C;
lastChange = "2024-05-02 14:32:13 +0000";
layers = (
{
background = {
shapes = (
{
closed = 1;
nodes = (
(1145,336,cs),
(1108,168,o),
(959,-17,o),
(669,-17,cs),
(361,-17,o),
(132,225,o),
(132,607,cs),
(132,954,o),
(360,1187,o),
(668,1187,cs),
(827,1187,o),
(968,1113,o),
(1022,1015,c),
(1022,1121,ls),
(1022,1154,o),
(1047,1171,o),
(1071,1171,cs),
(1096,1171,o),
(1120,1154,o),
(1120,1120,cs),
(1120,827,ls),
(1120,795,o),
(1097,780,o),
(1074,780,cs),
(1050,780,o),
(1031,797,o),
(1026,827,cs),
(995,991,o),
(850,1101,o),
(671,1101,cs),
(396,1101,o),
(228,890,o),
(228,600,cs),
(228,263,o),
(435,69,o),
(670,69,cs),
(863,69,o),
(995,182,o),
(1049,359,cs),
(1056,379,o),
(1072,387,o),
(1089,387,cs),
(1116,387,o),
(1146,367,o),
(1146,343,cs),
(1146,341,o),
(1146,338,o)
);
}
);
};
layerId = "840BD324-B0A6-42B0-BD23-CB5E8C19394F";
shapes = (
{
closed = 1;
nodes = (
(1145,336,cs),
(1108,168,o),
(959,-17,o),
(669,-17,cs),
(361,-17,o),
(132,225,o),
(132,607,cs),
(132,954,o),
(360,1187,o),
(668,1187,cs),
(827,1187,o),
(968,1113,o),
(1022,1015,c),
(1022,1121,ls),
(1022,1154,o),
(1047,1171,o),
(1071,1171,cs),
(1096,1171,o),
(1120,1154,o),
(1120,1120,cs),
(1120,827,ls),
(1120,795,o),
(1097,780,o),
(1074,780,cs),
(1050,780,o),
(1031,797,o),
(1026,827,cs),
(995,991,o),
(850,1101,o),
(671,1101,cs),
(396,1101,o),
(228,890,o),
(228,600,cs),
(228,263,o),
(435,69,o),
(670,69,cs),
(863,69,o),
(995,182,o),
(1049,359,cs),
(1056,379,o),
(1072,387,o),
(1089,387,cs),
(1116,387,o),
(1146,367,o),
(1146,343,cs),
(1146,341,o),
(1146,338,o)
);
}
);
width = 1240;
}
);
unicode = 67;
},
{
glyphname = Cacute;
lastChange = "2024-05-02 14:32:21 +0000";
layers = (
{
background = {
shapes = (
{
closed = 1;
nodes = (
(810,1588,cs),
(488,1354,ls),
(485,1351,o),
(481,1350,o),
(477,1350,cs),
(465,1350,o),
(453,1360,o),
(453,1372,cs),
(453,1377,o),
(455,1382,o),
(460,1387,cs),
(731,1663,ls),
(741,1673,o),
(751,1677,o),
(762,1677,cs),
(793,1677,o),
(824,1644,o),
(824,1616,cs),
(824,1606,o),
(820,1595,o)
);
},
{
closed = 1;
nodes = (
(1145,336,cs),
(1108,168,o),
(959,-17,o),
(669,-17,cs),
(361,-17,o),
(132,225,o),
(132,607,cs),
(132,954,o),
(360,1187,o),
(668,1187,cs),
(827,1187,o),
(968,1113,o),
(1022,1015,c),
(1022,1121,ls),
(1022,1154,o),
(1047,1171,o),
(1071,1171,cs),
(1096,1171,o),
(1120,1154,o),
(1120,1120,cs),
(1120,827,ls),
(1120,795,o),
(1097,780,o),
(1074,780,cs),
(1050,780,o),
(1031,797,o),
(1026,827,cs),
(995,991,o),
(850,1101,o),
(671,1101,cs),
(396,1101,o),
(228,890,o),
(228,600,cs),
(228,263,o),
(435,69,o),
(670,69,cs),
(863,69,o),
(995,182,o),
(1049,359,cs),
(1056,379,o),
(1072,387,o),
(1089,387,cs),
(1116,387,o),
(1146,367,o),
(1146,343,cs),
(1146,341,o),
(1146,338,o)
);
}
);
};
layerId = "840BD324-B0A6-42B0-BD23-CB5E8C19394F";
shapes = (
{
pos = (-48,372);
ref = acute;
},
{
ref = C;
}
);
width = 1240;
}
);
unicode = 262;
},
{
glyphname = Ccaron;
lastChange = "2024-05-02 14:32:21 +0000";
layers = (
{
background = {
shapes = (
{
closed = 1;
nodes = (
(639,1350,cs),
(626,1350,o),
(613,1353,o),
(608,1361,cs),
(424,1644,l),
(419,1649,o),
(417,1656,o),
(417,1661,cs),
(417,1677,o),
(436,1691,o),
(454,1691,cs),
(462,1691,o),
(472,1690,o),
(477,1682,cs),
(639,1473,l),
(802,1682,ls),
(807,1690,o),
(817,1691,o),
(825,1691,cs),
(843,1691,o),
(862,1677,o),
(862,1661,cs),
(862,1656,o),
(860,1649,o),
(855,1644,c),
(671,1361,ls),
(666,1353,o),
(652,1350,o)
);
},
{
closed = 1;
nodes = (
(1145,336,cs),
(1108,168,o),
(959,-17,o),
(669,-17,cs),
(361,-17,o),
(132,225,o),
(132,607,cs),
(132,954,o),
(360,1187,o),
(668,1187,cs),
(827,1187,o),
(968,1113,o),
(1022,1015,c),
(1022,1121,ls),
(1022,1154,o),
(1047,1171,o),
(1071,1171,cs),
(1096,1171,o),
(1120,1154,o),
(1120,1120,cs),
(1120,827,ls),
(1120,795,o),
(1097,780,o),
(1074,780,cs),
(1050,780,o),
(1031,797,o),
(1026,827,cs),
(995,991,o),
(850,1101,o),
(671,1101,cs),
(396,1101,o),
(228,890,o),
(228,600,cs),
(228,263,o),
(435,69,o),
(670,69,cs),
(863,69,o),
(995,182,o),
(1049,359,cs),
(1056,379,o),
(1072,387,o),
(1089,387,cs),
(1116,387,o),
(1146,367,o),
(1146,343,cs),
(1146,341,o),
(1146,338,o)
);
}
);
};
layerId = "840BD324-B0A6-42B0-BD23-CB5E8C19394F";
shapes = (
{
pos = (-60,371);
ref = caron;
},
{
ref = C;
}
);
width = 1240;
}
);
unicode = 268;
},
{
glyphname = Ccedilla;
lastChange = "2024-05-02 14:32:21 +0000";
layers = (
{
background = {
shapes = (
{
closed = 1;
nodes = (
(658,-4,l),
(617,-325,ls),
(610,-386,o),
(581,-405,o),
(555,-405,cs),
(524,-405,o),
(506,-384,o),
(506,-351,cs),
(506,-339,o),
(509,-325,o),
(514,-310,cs),
(621,-4,l)
);
},
{
closed = 1;
nodes = (
(1145,336,cs),
(1108,168,o),
(959,-17,o),
(669,-17,cs),
(361,-17,o),
(132,225,o),
(132,607,cs),
(132,954,o),
(360,1187,o),
(668,1187,cs),
(827,1187,o),
(968,1113,o),
(1022,1015,c),
(1022,1121,ls),
(1022,1154,o),
(1047,1171,o),
(1071,1171,cs),
(1096,1171,o),
(1120,1154,o),
(1120,1120,cs),
(1120,827,ls),
(1120,795,o),
(1097,780,o),
(1074,780,cs),
(1050,780,o),
(1031,797,o),
(1026,827,cs),
(995,991,o),
(850,1101,o),
(671,1101,cs),
(396,1101,o),
(228,890,o),
(228,600,cs),
(228,263,o),
(435,69,o),
(670,69,cs),
(863,69,o),
(995,182,o),
(1049,359,cs),
(1056,379,o),
(1072,387,o),
(1089,387,cs),
(1116,387,o),
(1146,367,o),
(1146,343,cs),
(1146,341,o),
(1146,338,o)
);
}
);
};
layerId = "840BD324-B0A6-42B0-BD23-CB5E8C19394F";
shapes = (
{
pos = (478,-4);
ref = cedilla;
},
{
ref = C;
}
);
width = 1240;
}
);
unicode = 199;
},
{
glyphname = Ccircumflex;
lastChange = "2024-05-02 14:32:21 +0000";
layers = (
{
background = {
shapes = (
{
closed = 1;
nodes = (
(639,1691,cs),
(652,1691,o),
(666,1687,o),
(671,1679,cs),
(855,1396,l),
(860,1391,o),
(862,1384,o),
(862,1379,cs),
(862,1363,o),
(843,1350,o),
(825,1350,cs),
(817,1350,o),
(807,1351,o),
(802,1359,cs),
(639,1568,l),
(477,1359,ls),
(472,1351,o),
(462,1350,o),
(454,1350,cs),
(436,1350,o),
(417,1363,o),
(417,1379,cs),
(417,1384,o),
(419,1391,o),
(424,1396,c),
(608,1679,ls),
(613,1687,o),
(626,1691,o)
);
},
{
closed = 1;
nodes = (
(1145,336,cs),
(1108,168,o),
(959,-17,o),
(669,-17,cs),
(361,-17,o),
(132,225,o),
(132,607,cs),
(132,954,o),
(360,1187,o),
(668,1187,cs),
(827,1187,o),
(968,1113,o),
(1022,1015,c),
(1022,1121,ls),
(1022,1154,o),
(1047,1171,o),
(1071,1171,cs),
(1096,1171,o),
(1120,1154,o),
(1120,1120,cs),
(1120,827,ls),
(1120,795,o),
(1097,780,o),
(1074,780,cs),
(1050,780,o),
(1031,797,o),
(1026,827,cs),
(995,991,o),
(850,1101,o),
(671,1101,cs),
(396,1101,o),
(228,890,o),
(228,600,cs),
(228,263,o),
(435,69,o),
(670,69,cs),
(863,69,o),
(995,182,o),
(1049,359,cs),
(1056,379,o),
(1072,387,o),
(1089,387,cs),
(1116,387,o),
(1146,367,o),
(1146,343,cs),
(1146,341,o),
(1146,338,o)
);
}
);
};
layerId = "840BD324-B0A6-42B0-BD23-CB5E8C19394F";
shapes = (
{
pos = (-60,371);
ref = circumflex;
},
{
ref = C;
}
);
width = 1240;
}
);
unicode = 264;
},
{
glyphname = Cdotaccent;
lastChange = "2024-05-02 14:32:21 +0000";
layers = (
{
background = {
shapes = (
{
closed = 1;
nodes = (
(640,1474,cs),
(686,1474,o),
(722,1437,o),
(722,1391,cs),
(722,1345,o),
(686,1309,o),
(640,1309,cs),
(594,1309,o),
(557,1345,o),
(557,1391,cs),
(557,1437,o),
(594,1474,o)
);
},
{
closed = 1;
nodes = (
(1145,336,cs),
(1108,168,o),
(959,-17,o),
(669,-17,cs),
(361,-17,o),
(132,225,o),
(132,607,cs),
(132,954,o),
(360,1187,o),
(668,1187,cs),
(827,1187,o),
(968,1113,o),
(1022,1015,c),
(1022,1121,ls),
(1022,1154,o),
(1047,1171,o),
(1071,1171,cs),
(1096,1171,o),
(1120,1154,o),
(1120,1120,cs),
(1120,827,ls),
(1120,795,o),
(1097,780,o),
(1074,780,cs),
(1050,780,o),
(1031,797,o),
(1026,827,cs),
(995,991,o),
(850,1101,o),
(671,1101,cs),
(396,1101,o),
(228,890,o),
(228,600,cs),
(228,263,o),
(435,69,o),
(670,69,cs),
(863,69,o),
(995,182,o),
(1049,359,cs),
(1056,379,o),
(1072,387,o),
(1089,387,cs),
(1116,387,o),
(1146,367,o),
(1146,343,cs),
(1146,341,o),
(1146,338,o)
);
}
);
};
layerId = "840BD324-B0A6-42B0-BD23-CB5E8C19394F";
shapes = (
{
pos = (-4,661);
ref = dotaccentcomb;
},
{
ref = C;
}
);
width = 1240;
}
);
unicode = 266;
},
{
glyphname = D;
lastChange = "2024-05-02 14:32:13 +0000";
layers = (
{
background = {
shapes = (
{
closed = 1;
nodes = (
(1084,591,cs),
(1084,168,o),
(874,0,o),
(513,0,cs),
(152,0,ls),
(118,0,o),
(101,21,o),
(101,43,cs),
(101,64,o),
(118,86,o),
(151,86,cs),
(314,86,l),
(314,1085,l),
(155,1085,ls),
(123,1085,o),
(107,1106,o),
(107,1127,cs),
(107,1149,o),
(124,1171,o),
(157,1171,cs),
(515,1171,ls),
(858,1171,o),
(1084,993,o)
);
},
{
closed = 1;
nodes = (
(988,591,cs),
(988,907,o),
(827,1085,o),
(534,1085,cs),
(410,1085,l),
(410,86,l),
(520,86,ls),
(851,86,o),
(988,256,o)
);
}
);
};
layerId = "840BD324-B0A6-42B0-BD23-CB5E8C19394F";
shapes = (
{
closed = 1;
nodes = (
(1084,591,cs),
(1084,168,o),
(874,0,o),
(513,0,cs),
(152,0,ls),
(118,0,o),
(101,21,o),
(101,43,cs),
(101,64,o),
(118,86,o),
(151,86,cs),
(314,86,l),
(314,1085,l),
(155,1085,ls),
(123,1085,o),
(107,1106,o),
(107,1127,cs),
(107,1149,o),
(124,1171,o),
(157,1171,cs),
(515,1171,ls),
(858,1171,o),
(1084,993,o)
);
},
{
closed = 1;
nodes = (
(988,591,cs),
(988,907,o),
(827,1085,o),
(534,1085,cs),
(410,1085,l),
(410,86,l),
(520,86,ls),
(851,86,o),
(988,256,o)
);
}
);
width = 1240;
}
);
unicode = 68;
},
{
glyphname = DZ;
lastChange = "2024-05-02 14:32:25 +0000";
layers = (
{
background = {
shapes = (
{
closed = 1;
nodes = (
(235,86,l),
(496,86,o),
(553,256,o),
(553,591,cs),
(553,907,o),
(488,1085,o),
(235,1085,c)
);
},
{
closed = 1;
nodes = (
(1111,0,cs),
(739,0,ls),
(715,0,o),
(704,14,o),
(704,39,cs),
(704,54,o),
(708,73,o),
(715,95,cs),
(1038,1085,l),
(818,1085,l),
(818,857,ls),
(818,830,o),
(795,817,o),
(773,817,cs),
(748,817,o),
(732,834,o),
(732,866,cs),
(732,1116,l),
(733,1144,o),
(739,1171,o),
(790,1171,cs),
(1090,1171,ls),
(1125,1171,o),
(1132,1137,o),
(1132,1111,cs),
(1132,1097,o),
(1130,1085,o),
(1129,1081,cs),
(811,86,l),
(1070,86,l),
(1070,314,l),
(1072,346,o),
(1093,363,o),
(1116,363,cs),
(1137,363,o),
(1162,350,o),
(1162,315,cs),
(1162,53,l),
(1163,19,o),
(1140,0,o)
);
},
{
closed = 1;
nodes = (
(228,0,cs),
(115,0,ls),
(81,0,o),
(64,21,o),
(64,43,cs),
(64,64,o),
(81,86,o),
(114,86,cs),
(139,86,l),
(139,1085,l),
(118,1085,ls),
(86,1085,o),
(70,1106,o),
(70,1127,cs),
(70,1149,o),
(87,1171,o),
(120,1171,cs),
(230,1171,ls),
(525,1171,o),
(649,993,o),
(649,591,cs),
(649,168,o),
(519,0,o)
);
}
);
};
layerId = "840BD324-B0A6-42B0-BD23-CB5E8C19394F";
shapes = (
{
closed = 1;
nodes = (
(235,86,l),
(496,86,o),
(553,256,o),
(553,591,cs),
(553,907,o),
(488,1085,o),
(235,1085,c)
);
},
{
closed = 1;
nodes = (
(1111,0,cs),
(739,0,ls),
(715,0,o),
(704,14,o),
(704,39,cs),
(704,54,o),
(708,73,o),
(715,95,cs),
(1038,1085,l),
(818,1085,l),
(818,857,ls),
(818,830,o),
(795,817,o),
(773,817,cs),
(748,817,o),
(732,834,o),
(732,866,cs),
(732,1116,l),
(733,1144,o),
(739,1171,o),
(790,1171,cs),
(1090,1171,ls),
(1125,1171,o),
(1132,1137,o),
(1132,1111,cs),
(1132,1097,o),
(1130,1085,o),
(1129,1081,cs),
(811,86,l),
(1070,86,l),
(1070,314,l),
(1072,346,o),
(1093,363,o),
(1116,363,cs),
(1137,363,o),
(1162,350,o),
(1162,315,cs),
(1162,53,l),
(1163,19,o),
(1140,0,o)
);
},
{
closed = 1;
nodes = (
(228,0,cs),
(115,0,ls),
(81,0,o),
(64,21,o),
(64,43,cs),
(64,64,o),
(81,86,o),
(114,86,cs),
(139,86,l),
(139,1085,l),
(118,1085,ls),
(86,1085,o),
(70,1106,o),
(70,1127,cs),
(70,1149,o),
(87,1171,o),
(120,1171,cs),
(230,1171,ls),
(525,1171,o),
(649,993,o),
(649,591,cs),
(649,168,o),
(519,0,o)
);
}
);
width = 1240;
}
);
unicode = 497;
},
{
glyphname = DZcaron;
lastChange = "2024-05-02 14:32:25 +0000";
layers = (
{
background = {
shapes = (
{
closed = 1;
nodes = (
(235,86,l),
(496,86,o),
(553,256,o),
(553,591,cs),
(553,907,o),
(488,1085,o),
(235,1085,c)
);
},
{
closed = 1;
nodes = (
(1111,0,cs),
(739,0,ls),
(715,0,o),
(704,14,o),
(704,39,cs),
(704,54,o),
(708,73,o),
(715,95,cs),
(1038,1085,l),
(818,1085,l),
(818,857,ls),
(818,830,o),
(795,817,o),
(773,817,cs),
(748,817,o),
(732,834,o),
(732,866,cs),
(732,1116,l),
(733,1144,o),
(739,1171,o),
(790,1171,cs),
(1090,1171,ls),
(1125,1171,o),
(1132,1137,o),
(1132,1111,cs),
(1132,1097,o),
(1130,1085,o),
(1129,1081,cs),
(811,86,l),
(1070,86,l),
(1070,314,l),
(1072,346,o),
(1093,363,o),
(1116,363,cs),
(1137,363,o),
(1162,350,o),
(1162,315,cs),
(1162,53,l),
(1163,19,o),
(1140,0,o)
);
},
{
closed = 1;
nodes = (
(228,0,cs),
(115,0,ls),
(81,0,o),
(64,21,o),
(64,43,cs),
(64,64,o),
(81,86,o),
(114,86,cs),
(139,86,l),
(139,1085,l),
(118,1085,ls),
(86,1085,o),
(70,1106,o),
(70,1127,cs),
(70,1149,o),
(87,1171,o),
(120,1171,cs),
(230,1171,ls),
(525,1171,o),
(649,993,o),
(649,591,cs),
(649,168,o),
(519,0,o)
);
},
{
closed = 1;
nodes = (
(985,1320,l),
(980,1312,o),
(966,1309,o),
(953,1309,cs),
(940,1309,o),
(927,1312,o),
(922,1320,cs),
(758,1603,l),
(753,1608,o),
(751,1615,o),
(751,1620,cs),
(751,1636,o),
(770,1650,o),
(788,1650,cs),
(796,1650,o),
(806,1649,o),
(811,1641,cs),
(953,1432,l),
(1066,1641,ls),
(1071,1649,o),
(1081,1650,o),
(1089,1650,cs),
(1107,1650,o),
(1126,1636,o),
(1126,1620,cs),
(1126,1615,o),
(1124,1608,o),
(1119,1603,c)
);
}
);
};
layerId = "840BD324-B0A6-42B0-BD23-CB5E8C19394F";
shapes = (
{
closed = 1;
nodes = (
(235,86,l),
(496,86,o),
(553,256,o),
(553,591,cs),
(553,907,o),
(488,1085,o),
(235,1085,c)
);
},
{
closed = 1;
nodes = (
(1111,0,cs),
(739,0,ls),
(715,0,o),
(704,14,o),
(704,39,cs),
(704,54,o),
(708,73,o),
(715,95,cs),
(1038,1085,l),
(818,1085,l),
(818,857,ls),
(818,830,o),
(795,817,o),
(773,817,cs),
(748,817,o),
(732,834,o),
(732,866,cs),
(732,1116,l),
(733,1144,o),
(739,1171,o),
(790,1171,cs),
(1090,1171,ls),
(1125,1171,o),
(1132,1137,o),
(1132,1111,cs),
(1132,1097,o),
(1130,1085,o),
(1129,1081,cs),
(811,86,l),
(1070,86,l),
(1070,314,l),
(1072,346,o),
(1093,363,o),
(1116,363,cs),
(1137,363,o),
(1162,350,o),
(1162,315,cs),
(1162,53,l),
(1163,19,o),
(1140,0,o)
);
},
{
closed = 1;
nodes = (
(228,0,cs),
(115,0,ls),
(81,0,o),
(64,21,o),
(64,43,cs),
(64,64,o),
(81,86,o),
(114,86,cs),
(139,86,l),
(139,1085,l),
(118,1085,ls),
(86,1085,o),
(70,1106,o),
(70,1127,cs),
(70,1149,o),
(87,1171,o),
(120,1171,cs),
(230,1171,ls),
(525,1171,o),
(649,993,o),
(649,591,cs),
(649,168,o),
(519,0,o)
);
},
{
closed = 1;
nodes = (
(985,1320,l),
(980,1312,o),
(966,1309,o),
(953,1309,cs),
(940,1309,o),
(927,1312,o),
(922,1320,cs),
(758,1603,l),
(753,1608,o),
(751,1615,o),
(751,1620,cs),
(751,1636,o),
(770,1650,o),
(788,1650,cs),
(796,1650,o),
(806,1649,o),
(811,1641,cs),
(953,1432,l),
(1066,1641,ls),
(1071,1649,o),
(1081,1650,o),
(1089,1650,cs),
(1107,1650,o),
(1126,1636,o),
(1126,1620,cs),
(1126,1615,o),
(1124,1608,o),
(1119,1603,c)
);
}
);
width = 1240;
}
);
unicode = 452;
},
{
glyphname = Dcaron;
lastChange = "2024-05-02 14:32:21 +0000";
layers = (
{
background = {
shapes = (
{
closed = 1;
nodes = (
(592,1350,cs),
(579,1350,o),
(566,1353,o),
(561,1361,cs),
(377,1644,l),
(372,1649,o),
(370,1656,o),
(370,1661,cs),
(370,1677,o),
(389,1691,o),
(407,1691,cs),
(415,1691,o),
(425,1690,o),
(430,1682,cs),
(592,1473,l),
(755,1682,ls),
(760,1690,o),
(770,1691,o),
(778,1691,cs),
(796,1691,o),
(815,1677,o),
(815,1661,cs),
(815,1656,o),
(813,1649,o),
(808,1644,c),
(624,1361,ls),
(619,1353,o),
(605,1350,o)
);
},
{
closed = 1;
nodes = (
(1084,591,cs),
(1084,168,o),
(874,0,o),
(513,0,cs),
(152,0,ls),
(118,0,o),
(101,21,o),
(101,43,cs),
(101,64,o),
(118,86,o),
(151,86,cs),
(314,86,l),
(314,1085,l),
(155,1085,ls),
(123,1085,o),
(107,1106,o),
(107,1127,cs),
(107,1149,o),
(124,1171,o),
(157,1171,cs),
(515,1171,ls),
(858,1171,o),
(1084,993,o)
);
},
{
closed = 1;
nodes = (
(988,591,cs),
(988,907,o),
(827,1085,o),
(534,1085,cs),
(410,1085,l),
(410,86,l),
(520,86,ls),
(851,86,o),
(988,256,o)
);
}
);
};
layerId = "840BD324-B0A6-42B0-BD23-CB5E8C19394F";
shapes = (
{
pos = (-107,371);
ref = caron;
},
{
ref = D;
}
);
width = 1240;
}
);
unicode = 270;
},
{
glyphname = Dcroat;
lastChange = "2024-05-02 14:32:13 +0000";
layers = (
{
background = {
shapes = (
{
closed = 1;
nodes = (
(172,572,ls),
(135,572,o),
(126,592,o),
(126,611,cs),
(126,630,o),
(133,648,o),
(168,648,cs),
(314,648,l),
(314,1085,l),
(155,1085,ls),
(123,1085,o),
(107,1106,o),
(107,1127,cs),
(107,1149,o),
(124,1171,o),
(157,1171,cs),
(515,1171,ls),
(858,1171,o),
(1084,993,o),
(1084,591,cs),
(1084,168,o),
(874,0,o),
(513,0,cs),
(152,0,ls),
(118,0,o),
(101,21,o),
(101,43,cs),
(101,64,o),
(118,86,o),
(151,86,cs),
(314,86,l),
(314,572,l)
);
},
{
closed = 1;
nodes = (
(978,591,cs),
(978,907,o),
(827,1085,o),
(534,1085,cs),
(420,1085,l),
(420,648,l),
(607,648,ls),
(640,648,o),
(646,630,o),
(646,611,cs),
(646,592,o),
(638,572,o),
(605,572,cs),
(420,572,l),
(420,86,l),
(520,86,ls),
(851,86,o),
(978,256,o)
);
}
);
};
layerId = "840BD324-B0A6-42B0-BD23-CB5E8C19394F";
shapes = (
{
closed = 1;
nodes = (
(172,572,ls),
(135,572,o),
(126,592,o),
(126,611,cs),
(126,630,o),
(133,648,o),
(168,648,cs),
(314,648,l),
(314,1085,l),
(155,1085,ls),
(123,1085,o),
(107,1106,o),
(107,1127,cs),
(107,1149,o),
(124,1171,o),
(157,1171,cs),
(515,1171,ls),
(858,1171,o),
(1084,993,o),
(1084,591,cs),
(1084,168,o),
(874,0,o),
(513,0,cs),
(152,0,ls),
(118,0,o),
(101,21,o),
(101,43,cs),
(101,64,o),
(118,86,o),
(151,86,cs),
(314,86,l),
(314,572,l)
);
},
{
closed = 1;
nodes = (
(978,591,cs),
(978,907,o),
(827,1085,o),
(534,1085,cs),
(420,1085,l),
(420,648,l),
(607,648,ls),
(640,648,o),
(646,630,o),
(646,611,cs),
(646,592,o),
(638,572,o),
(605,572,cs),
(420,572,l),
(420,86,l),
(520,86,ls),
(851,86,o),
(978,256,o)
);
}
);
width = 1240;
}
);
unicode = 272;
},
{
glyphname = Ddotaccent;
lastChange = "2024-05-02 14:32:25 +0000";
layers = (
{
background = {
shapes = (
{
closed = 1;
nodes = (
(593,1474,cs),
(639,1474,o),
(675,1437,o),
(675,1391,cs),
(675,1345,o),
(639,1309,o),
(593,1309,cs),
(547,1309,o),
(510,1345,o),
(510,1391,cs),
(510,1437,o),
(547,1474,o)
);
},
{
closed = 1;
nodes = (
(1084,591,cs),
(1084,168,o),
(874,0,o),
(513,0,cs),
(152,0,ls),
(118,0,o),
(101,21,o),
(101,43,cs),
(101,64,o),
(118,86,o),
(151,86,cs),
(314,86,l),
(314,1085,l),
(155,1085,ls),
(123,1085,o),
(107,1106,o),
(107,1127,cs),
(107,1149,o),
(124,1171,o),
(157,1171,cs),
(515,1171,ls),
(858,1171,o),
(1084,993,o)
);
},
{
closed = 1;
nodes = (
(988,591,cs),
(988,907,o),
(827,1085,o),
(534,1085,cs),
(410,1085,l),
(410,86,l),
(520,86,ls),
(851,86,o),
(988,256,o)
);
}
);
};
layerId = "840BD324-B0A6-42B0-BD23-CB5E8C19394F";
shapes = (
{
pos = (-51,661);
ref = dotaccentcomb;
},
{
ref = D;
}
);
width = 1240;
}
);
unicode = 7690;
},
{
glyphname = Dz;
lastChange = "2024-05-02 14:32:25 +0000";
layers = (
{
background = {
shapes = (
{
closed = 1;
nodes = (
(1089,772,ls),
(1135,772,o),
(1150,750,o),
(1150,727,cs),
(1150,710,o),
(1138,695,o),
(1132,682,cs),
(860,82,l),
(1065,82,l),
(1076,259,ls),
(1077,283,o),
(1099,297,o),
(1120,297,cs),
(1141,297,o),
(1161,284,o),
(1161,255,cs),
(1161,46,ls),
(1161,21,o),
(1134,0,o),
(1110,0,cs),
(806,0,ls),
(768,0,o),
(750,24,o),
(750,59,cs),
(750,81,o),
(761,97,o),
(767,109,cs),
(1034,692,l),
(831,692,l),
(823,535,ls),
(822,505,o),
(802,490,o),
(781,490,cs),
(759,490,o),
(736,507,o),
(736,540,cs),
(736,726,ls),
(736,750,o),
(758,772,o),
(782,772,cs)
);
},
{
closed = 1;
nodes = (
(235,86,l),
(496,86,o),
(553,256,o),
(553,591,cs),
(553,907,o),
(488,1085,o),
(235,1085,c)
);
},
{
closed = 1;
nodes = (
(228,0,cs),
(115,0,ls),
(81,0,o),
(64,21,o),
(64,43,cs),
(64,64,o),
(81,86,o),
(114,86,cs),
(139,86,l),
(139,1085,l),
(118,1085,ls),
(86,1085,o),
(70,1106,o),
(70,1127,cs),
(70,1149,o),
(87,1171,o),
(120,1171,cs),
(230,1171,ls),
(525,1171,o),
(649,993,o),
(649,591,cs),
(649,168,o),
(519,0,o)
);
}
);
};
layerId = "840BD324-B0A6-42B0-BD23-CB5E8C19394F";
shapes = (
{
closed = 1;
nodes = (
(1089,772,ls),
(1135,772,o),
(1150,750,o),
(1150,727,cs),
(1150,710,o),
(1138,695,o),
(1132,682,cs),
(860,82,l),
(1065,82,l),
(1076,259,ls),
(1077,283,o),
(1099,297,o),
(1120,297,cs),
(1141,297,o),
(1161,284,o),
(1161,255,cs),
(1161,46,ls),
(1161,21,o),
(1134,0,o),
(1110,0,cs),
(806,0,ls),
(768,0,o),
(750,24,o),
(750,59,cs),
(750,81,o),
(761,97,o),
(767,109,cs),
(1034,692,l),
(831,692,l),
(823,535,ls),
(822,505,o),
(802,490,o),
(781,490,cs),
(759,490,o),
(736,507,o),
(736,540,cs),
(736,726,ls),
(736,750,o),
(758,772,o),
(782,772,cs)
);
},
{
closed = 1;
nodes = (
(235,86,l),
(496,86,o),
(553,256,o),
(553,591,cs),
(553,907,o),
(488,1085,o),
(235,1085,c)
);
},
{
closed = 1;
nodes = (
(228,0,cs),
(115,0,ls),
(81,0,o),
(64,21,o),
(64,43,cs),
(64,64,o),
(81,86,o),
(114,86,cs),
(139,86,l),
(139,1085,l),
(118,1085,ls),
(86,1085,o),
(70,1106,o),
(70,1127,cs),
(70,1149,o),
(87,1171,o),
(120,1171,cs),
(230,1171,ls),
(525,1171,o),
(649,993,o),
(649,591,cs),
(649,168,o),
(519,0,o)
);
}
);
width = 1240;
}
);
unicode = 498;
},
{
glyphname = Dzcaron;
lastChange = "2024-05-02 14:32:25 +0000";
layers = (
{
background = {
shapes = (
{
closed = 1;
nodes = (
(1089,772,ls),
(1135,772,o),
(1150,750,o),
(1150,727,cs),
(1150,710,o),
(1138,695,o),
(1132,682,cs),
(860,82,l),
(1065,82,l),
(1076,259,ls),
(1077,283,o),
(1099,297,o),
(1120,297,cs),
(1141,297,o),
(1161,284,o),
(1161,255,cs),
(1161,46,ls),
(1161,21,o),
(1134,0,o),
(1110,0,cs),
(806,0,ls),
(768,0,o),
(750,24,o),
(750,59,cs),
(750,81,o),
(761,97,o),
(767,109,cs),
(1034,692,l),
(831,692,l),
(823,535,ls),
(822,505,o),
(802,490,o),
(781,490,cs),
(759,490,o),
(736,507,o),
(736,540,cs),
(736,726,ls),
(736,750,o),
(758,772,o),
(782,772,cs)
);
},
{
closed = 1;
nodes = (
(235,86,l),
(496,86,o),
(553,256,o),
(553,591,cs),
(553,907,o),
(488,1085,o),
(235,1085,c)
);
},
{
closed = 1;
nodes = (
(228,0,cs),
(115,0,ls),
(81,0,o),
(64,21,o),
(64,43,cs),
(64,64,o),
(81,86,o),
(114,86,cs),
(139,86,l),
(139,1085,l),
(118,1085,ls),
(86,1085,o),
(70,1106,o),
(70,1127,cs),
(70,1149,o),
(87,1171,o),
(120,1171,cs),
(230,1171,ls),
(525,1171,o),
(649,993,o),
(649,591,cs),
(649,168,o),
(519,0,o)
);
},
{
closed = 1;
nodes = (
(957,935,cs),
(944,935,o),
(931,938,o),
(926,946,cs),
(742,1229,l),
(737,1234,o),
(735,1241,o),
(735,1246,cs),
(735,1262,o),
(754,1276,o),
(772,1276,cs),
(780,1276,o),
(790,1275,o),
(795,1267,cs),
(957,1058,l),
(1120,1267,ls),
(1125,1275,o),
(1135,1276,o),
(1143,1276,cs),
(1161,1276,o),
(1180,1262,o),
(1180,1246,cs),
(1180,1241,o),
(1178,1234,o),
(1173,1229,c),
(989,946,ls),
(984,938,o),
(970,935,o)
);
}
);
};
layerId = "840BD324-B0A6-42B0-BD23-CB5E8C19394F";
shapes = (
{
closed = 1;
nodes = (
(1089,772,ls),
(1135,772,o),
(1150,750,o),
(1150,727,cs),
(1150,710,o),
(1138,695,o),
(1132,682,cs),
(860,82,l),
(1065,82,l),
(1076,259,ls),
(1077,283,o),
(1099,297,o),
(1120,297,cs),
(1141,297,o),
(1161,284,o),
(1161,255,cs),
(1161,46,ls),
(1161,21,o),
(1134,0,o),
(1110,0,cs),
(806,0,ls),
(768,0,o),
(750,24,o),
(750,59,cs),
(750,81,o),
(761,97,o),
(767,109,cs),
(1034,692,l),
(831,692,l),
(823,535,ls),
(822,505,o),
(802,490,o),
(781,490,cs),
(759,490,o),
(736,507,o),
(736,540,cs),
(736,726,ls),
(736,750,o),
(758,772,o),
(782,772,cs)
);
},
{
closed = 1;
nodes = (
(235,86,l),
(496,86,o),
(553,256,o),
(553,591,cs),
(553,907,o),
(488,1085,o),
(235,1085,c)
);
},
{
closed = 1;
nodes = (
(228,0,cs),
(115,0,ls),
(81,0,o),
(64,21,o),
(64,43,cs),
(64,64,o),
(81,86,o),
(114,86,cs),
(139,86,l),
(139,1085,l),
(118,1085,ls),
(86,1085,o),
(70,1106,o),
(70,1127,cs),
(70,1149,o),
(87,1171,o),
(120,1171,cs),
(230,1171,ls),
(525,1171,o),
(649,993,o),
(649,591,cs),
(649,168,o),
(519,0,o)
);
},
{
pos = (258,-44);
ref = caron;
}
);
width = 1240;
}
);
unicode = 453;
},
{
glyphname = Eth;
lastChange = "2024-05-02 14:32:13 +0000";
layers = (
{
background = {
shapes = (
{
closed = 1;
nodes = (
(172,572,ls),
(135,572,o),
(126,592,o),
(126,611,cs),
(126,630,o),
(133,648,o),
(168,648,cs),
(314,648,l),
(314,1085,l),
(155,1085,ls),
(123,1085,o),
(107,1106,o),
(107,1127,cs),
(107,1149,o),
(124,1171,o),
(157,1171,cs),
(515,1171,ls),
(858,1171,o),
(1084,993,o),
(1084,591,cs),
(1084,168,o),
(874,0,o),
(513,0,cs),
(152,0,ls),
(118,0,o),
(101,21,o),
(101,43,cs),
(101,64,o),
(118,86,o),
(151,86,cs),
(314,86,l),
(314,572,l)
);
},
{
closed = 1;
nodes = (
(978,591,cs),
(978,907,o),
(827,1085,o),
(534,1085,cs),
(420,1085,l),
(420,648,l),
(607,648,ls),
(640,648,o),
(646,630,o),
(646,611,cs),
(646,592,o),
(638,572,o),
(605,572,cs),
(420,572,l),
(420,86,l),
(520,86,ls),
(851,86,o),
(978,256,o)
);
}
);
};
layerId = "840BD324-B0A6-42B0-BD23-CB5E8C19394F";
shapes = (
{
closed = 1;
nodes = (
(172,572,ls),
(135,572,o),
(126,592,o),
(126,611,cs),
(126,630,o),
(133,648,o),
(168,648,cs),
(314,648,l),
(314,1085,l),
(155,1085,ls),
(123,1085,o),
(107,1106,o),
(107,1127,cs),
(107,1149,o),
(124,1171,o),
(157,1171,cs),
(515,1171,ls),
(858,1171,o),
(1084,993,o),
(1084,591,cs),
(1084,168,o),
(874,0,o),
(513,0,cs),
(152,0,ls),
(118,0,o),
(101,21,o),
(101,43,cs),
(101,64,o),
(118,86,o),
(151,86,cs),
(314,86,l),
(314,572,l)
);
},
{
closed = 1;
nodes = (
(978,591,cs),
(978,907,o),
(827,1085,o),
(534,1085,cs),
(420,1085,l),
(420,648,l),
(607,648,ls),
(640,648,o),
(646,630,o),
(646,611,cs),
(646,592,o),
(638,572,o),
(605,572,cs),
(420,572,l),
(420,86,l),
(520,86,ls),
(851,86,o),
(978,256,o)
);
}
);
width = 1240;
}
);
unicode = 208;
},
{
glyphname = E;
lastChange = "2024-05-02 14:32:13 +0000";
layers = (
{
background = {
shapes = (
{
closed = 1;
nodes = (
(837,437,ls),
(837,402,o),
(818,386,o),
(799,386,cs),
(780,386,o),
(761,401,o),
(759,429,cs),
(746,577,l),
(420,577,l),
(420,85,l),
(1035,85,l),
(1051,336,ls),
(1052,360,o),
(1074,375,o),
(1095,375,cs),
(1116,375,o),
(1137,359,o),
(1137,323,cs),
(1137,53,ls),
(1137,19,o),
(1114,0,o),
(1081,0,cs),
(155,0,ls),
(121,0,o),
(104,22,o),
(104,43,cs),
(104,64,o),
(121,85,o),
(154,85,cs),
(324,85,l),
(324,1085,l),
(189,1085,ls),
(157,1085,o),
(141,1106,o),
(141,1127,cs),
(141,1149,o),
(158,1171,o),
(191,1171,cs),
(1069,1171,ls),
(1102,1171,o),
(1125,1151,o),
(1125,1117,cs),
(1125,847,ls),
(1125,817,o),
(1105,803,o),
(1085,803,cs),
(1065,803,o),
(1044,816,o),
(1043,841,cs),
(1029,1085,l),
(420,1085,l),
(420,654,l),
(746,654,l),
(759,787,ls),
(762,817,o),
(781,832,o),
(799,832,cs),
(818,832,o),
(837,816,o),
(837,779,cs)
);
}
);
};
layerId = "840BD324-B0A6-42B0-BD23-CB5E8C19394F";
shapes = (
{
closed = 1;
nodes = (
(837,437,ls),
(837,402,o),
(818,386,o),
(799,386,cs),
(780,386,o),
(761,401,o),
(759,429,cs),
(746,577,l),
(420,577,l),
(420,85,l),
(1035,85,l),
(1051,336,ls),
(1052,360,o),
(1074,375,o),
(1095,375,cs),
(1116,375,o),
(1137,359,o),
(1137,323,cs),
(1137,53,ls),
(1137,19,o),
(1114,0,o),
(1081,0,cs),
(155,0,ls),
(121,0,o),
(104,22,o),
(104,43,cs),
(104,64,o),
(121,85,o),
(154,85,cs),
(324,85,l),
(324,1085,l),
(189,1085,ls),
(157,1085,o),
(141,1106,o),
(141,1127,cs),
(141,1149,o),
(158,1171,o),
(191,1171,cs),
(1069,1171,ls),
(1102,1171,o),
(1125,1151,o),
(1125,1117,cs),
(1125,847,ls),
(1125,817,o),
(1105,803,o),
(1085,803,cs),
(1065,803,o),
(1044,816,o),
(1043,841,cs),
(1029,1085,l),
(420,1085,l),
(420,654,l),
(746,654,l),
(759,787,ls),
(762,817,o),
(781,832,o),
(799,832,cs),
(818,832,o),
(837,816,o),
(837,779,cs)
);
}
);
width = 1240;
}
);
unicode = 69;
},
{
glyphname = Eacute;
lastChange = "2024-05-02 14:32:21 +0000";
layers = (
{
background = {
shapes = (
{
closed = 1;
nodes = (
(792,1588,cs),
(470,1354,ls),
(467,1351,o),
(463,1350,o),
(459,1350,cs),
(447,1350,o),
(435,1360,o),
(435,1372,cs),
(435,1377,o),
(437,1382,o),
(442,1387,cs),
(713,1663,ls),
(723,1673,o),
(733,1677,o),
(744,1677,cs),
(775,1677,o),
(806,1644,o),
(806,1616,cs),
(806,1606,o),
(802,1595,o)
);
},
{
closed = 1;
nodes = (
(837,437,ls),
(837,402,o),
(818,386,o),
(799,386,cs),
(780,386,o),
(761,401,o),
(759,429,cs),
(746,577,l),
(420,577,l),
(420,85,l),
(1035,85,l),
(1051,336,ls),
(1052,360,o),
(1074,375,o),
(1095,375,cs),
(1116,375,o),
(1137,359,o),
(1137,323,cs),
(1137,53,ls),
(1137,19,o),
(1114,0,o),
(1081,0,cs),
(155,0,ls),
(121,0,o),
(104,22,o),
(104,43,cs),
(104,64,o),
(121,85,o),
(154,85,cs),
(324,85,l),
(324,1085,l),
(189,1085,ls),
(157,1085,o),
(141,1106,o),
(141,1127,cs),
(141,1149,o),
(158,1171,o),
(191,1171,cs),
(1069,1171,ls),
(1102,1171,o),
(1125,1151,o),
(1125,1117,cs),
(1125,847,ls),
(1125,817,o),
(1105,803,o),
(1085,803,cs),
(1065,803,o),
(1044,816,o),
(1043,841,cs),
(1029,1085,l),
(420,1085,l),
(420,654,l),
(746,654,l),
(759,787,ls),
(762,817,o),
(781,832,o),
(799,832,cs),
(818,832,o),
(837,816,o),
(837,779,cs)
);
}
);
};
layerId = "840BD324-B0A6-42B0-BD23-CB5E8C19394F";
shapes = (
{
pos = (-66,372);
ref = acute;
},
{
ref = E;
}
);
width = 1240;
}
);
unicode = 201;
},
{
glyphname = Ebreve;
lastChange = "2024-05-02 14:32:21 +0000";
layers = (
{
background = {
shapes = (
{
closed = 1;
nodes = (
(621,1408,cs),
(681,1408,o),
(740,1444,o),
(751,1512,c),
(755,1524,o),
(764,1528,o),
(774,1528,cs),
(790,1528,o),
(808,1516,o),
(808,1504,cs),
(808,1379,o),
(682,1350,o),
(621,1350,cs),
(560,1350,o),
(434,1379,o),
(434,1504,cs),
(434,1516,o),
(452,1528,o),
(468,1528,cs),
(478,1528,o),
(487,1524,o),
(491,1512,c),
(502,1444,o),
(561,1408,o)
);
},
{
closed = 1;
nodes = (
(837,437,ls),
(837,402,o),
(818,386,o),
(799,386,cs),
(780,386,o),
(761,401,o),
(759,429,cs),
(746,577,l),
(420,577,l),
(420,85,l),
(1035,85,l),
(1051,336,ls),
(1052,360,o),
(1074,375,o),
(1095,375,cs),
(1116,375,o),
(1137,359,o),
(1137,323,cs),
(1137,53,ls),
(1137,19,o),
(1114,0,o),
(1081,0,cs),
(155,0,ls),
(121,0,o),
(104,22,o),
(104,43,cs),
(104,64,o),
(121,85,o),
(154,85,cs),
(324,85,l),
(324,1085,l),
(189,1085,ls),
(157,1085,o),
(141,1106,o),
(141,1127,cs),
(141,1149,o),
(158,1171,o),
(191,1171,cs),
(1069,1171,ls),
(1102,1171,o),
(1125,1151,o),
(1125,1117,cs),
(1125,847,ls),
(1125,817,o),
(1105,803,o),
(1085,803,cs),
(1065,803,o),
(1044,816,o),
(1043,841,cs),
(1029,1085,l),
(420,1085,l),
(420,654,l),
(746,654,l),
(759,787,ls),
(762,817,o),
(781,832,o),
(799,832,cs),
(818,832,o),
(837,816,o),
(837,779,cs)
);
}
);
};
layerId = "840BD324-B0A6-42B0-BD23-CB5E8C19394F";
shapes = (
{
pos = (-76,380);
ref = breve;
},
{
ref = E;
}
);
width = 1240;
}
);
unicode = 276;
},
{
glyphname = Ecaron;
lastChange = "2024-05-02 14:32:21 +0000";
layers = (
{
background = {
shapes = (
{
closed = 1;
nodes = (
(620,1350,cs),
(607,1350,o),
(594,1353,o),
(589,1361,cs),
(405,1644,l),
(400,1649,o),
(398,1656,o),
(398,1661,cs),
(398,1677,o),
(417,1691,o),
(435,1691,cs),
(443,1691,o),
(453,1690,o),
(458,1682,cs),
(620,1473,l),
(783,1682,ls),
(788,1690,o),
(798,1691,o),
(806,1691,cs),
(824,1691,o),
(843,1677,o),
(843,1661,cs),
(843,1656,o),
(841,1649,o),
(836,1644,c),
(652,1361,ls),
(647,1353,o),
(633,1350,o)
);
},
{
closed = 1;
nodes = (
(837,437,ls),
(837,402,o),
(818,386,o),
(799,386,cs),
(780,386,o),
(761,401,o),
(759,429,cs),
(746,577,l),
(420,577,l),
(420,85,l),
(1035,85,l),
(1051,336,ls),
(1052,360,o),
(1074,375,o),
(1095,375,cs),
(1116,375,o),
(1137,359,o),
(1137,323,cs),
(1137,53,ls),
(1137,19,o),
(1114,0,o),
(1081,0,cs),
(155,0,ls),
(121,0,o),
(104,22,o),
(104,43,cs),
(104,64,o),
(121,85,o),
(154,85,cs),
(324,85,l),
(324,1085,l),
(189,1085,ls),
(157,1085,o),
(141,1106,o),
(141,1127,cs),
(141,1149,o),
(158,1171,o),
(191,1171,cs),
(1069,1171,ls),
(1102,1171,o),
(1125,1151,o),
(1125,1117,cs),
(1125,847,ls),
(1125,817,o),
(1105,803,o),
(1085,803,cs),
(1065,803,o),
(1044,816,o),
(1043,841,cs),
(1029,1085,l),
(420,1085,l),
(420,654,l),
(746,654,l),
(759,787,ls),
(762,817,o),
(781,832,o),
(799,832,cs),
(818,832,o),
(837,816,o),
(837,779,cs)
);
}
);
};
layerId = "840BD324-B0A6-42B0-BD23-CB5E8C19394F";
shapes = (
{
pos = (-79,371);
ref = caron;
},
{
ref = E;
}
);
width = 1240;
}
);
unicode = 282;
},
{
glyphname = Ecircumflex;
lastChange = "2024-05-02 14:32:21 +0000";
layers = (
{
background = {
shapes = (
{
closed = 1;
nodes = (
(620,1691,cs),
(633,1691,o),
(647,1687,o),
(652,1679,cs),
(836,1396,l),
(841,1391,o),
(843,1384,o),
(843,1379,cs),
(843,1363,o),
(824,1350,o),
(806,1350,cs),
(798,1350,o),
(788,1351,o),
(783,1359,cs),
(620,1568,l),
(458,1359,ls),
(453,1351,o),
(443,1350,o),
(435,1350,cs),
(417,1350,o),
(398,1363,o),
(398,1379,cs),
(398,1384,o),
(400,1391,o),
(405,1396,c),
(589,1679,ls),
(594,1687,o),
(607,1691,o)
);
},
{
closed = 1;
nodes = (
(837,437,ls),
(837,402,o),
(818,386,o),
(799,386,cs),
(780,386,o),
(761,401,o),
(759,429,cs),
(746,577,l),
(420,577,l),
(420,85,l),
(1035,85,l),
(1051,336,ls),
(1052,360,o),
(1074,375,o),
(1095,375,cs),
(1116,375,o),
(1137,359,o),
(1137,323,cs),
(1137,53,ls),
(1137,19,o),
(1114,0,o),
(1081,0,cs),
(155,0,ls),
(121,0,o),
(104,22,o),
(104,43,cs),
(104,64,o),
(121,85,o),
(154,85,cs),
(324,85,l),
(324,1085,l),
(189,1085,ls),
(157,1085,o),
(141,1106,o),
(141,1127,cs),
(141,1149,o),
(158,1171,o),
(191,1171,cs),
(1069,1171,ls),
(1102,1171,o),
(1125,1151,o),
(1125,1117,cs),
(1125,847,ls),
(1125,817,o),
(1105,803,o),
(1085,803,cs),
(1065,803,o),
(1044,816,o),
(1043,841,cs),
(1029,1085,l),
(420,1085,l),
(420,654,l),
(746,654,l),
(759,787,ls),
(762,817,o),
(781,832,o),
(799,832,cs),
(818,832,o),
(837,816,o),
(837,779,cs)
);
}
);
};
layerId = "840BD324-B0A6-42B0-BD23-CB5E8C19394F";
shapes = (
{
pos = (-79,371);
ref = circumflex;
},
{
ref = E;
}
);
width = 1240;
}
);
unicode = 202;
},
{
glyphname = Edblgrave;
lastChange = "2024-05-02 14:32:25 +0000";
layers = (
{
background = {
shapes = (
{
closed = 1;
nodes = (
(314,1588,ls),
(304,1595,o),
(300,1606,o),
(300,1616,cs),
(300,1644,o),
(330,1677,o),
(361,1677,cs),
(372,1677,o),
(383,1673,o),
(393,1663,cs),
(664,1387,ls),
(669,1382,o),
(670,1377,o),
(670,1372,cs),
(670,1360,o),
(659,1350,o),
(647,1350,cs),
(643,1350,o),
(639,1351,o),
(636,1354,cs)
);
},
{
closed = 1;
nodes = (
(624,1608,l),
(614,1615,o),
(610,1626,o),
(610,1636,cs),
(610,1664,o),
(640,1697,o),
(671,1697,cs),
(682,1697,o),
(693,1693,o),
(703,1683,c),
(934,1387,ls),
(939,1382,o),
(940,1377,o),
(940,1372,cs),
(940,1360,o),
(929,1350,o),
(917,1350,cs),
(913,1350,o),
(909,1351,o),
(906,1354,cs)
);
},
{
closed = 1;
nodes = (
(837,437,ls),
(837,402,o),
(818,386,o),
(799,386,cs),
(780,386,o),
(761,401,o),
(759,429,cs),
(746,577,l),
(420,577,l),
(420,85,l),
(1035,85,l),
(1051,336,ls),
(1052,360,o),
(1074,375,o),
(1095,375,cs),
(1116,375,o),
(1137,359,o),
(1137,323,cs),
(1137,53,ls),
(1137,19,o),
(1114,0,o),
(1081,0,cs),
(155,0,ls),
(121,0,o),
(104,22,o),
(104,43,cs),
(104,64,o),
(121,85,o),
(154,85,cs),
(324,85,l),
(324,1085,l),
(189,1085,ls),
(157,1085,o),
(141,1106,o),
(141,1127,cs),
(141,1149,o),
(158,1171,o),
(191,1171,cs),
(1069,1171,ls),
(1102,1171,o),
(1125,1151,o),
(1125,1117,cs),
(1125,847,ls),
(1125,817,o),
(1105,803,o),
(1085,803,cs),
(1065,803,o),
(1044,816,o),
(1043,841,cs),
(1029,1085,l),
(420,1085,l),
(420,654,l),
(746,654,l),
(759,787,ls),
(762,817,o),
(781,832,o),
(799,832,cs),
(818,832,o),
(837,816,o),
(837,779,cs)
);
}
);
};
layerId = "840BD324-B0A6-42B0-BD23-CB5E8C19394F";
shapes = (
{
pos = (0,444);
ref = dblgravecomb;
},
{
ref = E;
}
);
width = 1240;
}
);
unicode = 516;
},
{
glyphname = Edieresis;
lastChange = "2024-05-02 14:32:21 +0000";
layers = (
{
background = {
shapes = (
{
closed = 1;
nodes = (
(454,1474,cs),
(500,1474,o),
(536,1437,o),
(536,1391,cs),
(536,1345,o),
(500,1309,o),
(454,1309,cs),
(408,1309,o),
(371,1345,o),
(371,1391,cs),
(371,1437,o),
(408,1474,o)
);
},
{
closed = 1;
nodes = (
(789,1474,cs),
(835,1474,o),
(871,1437,o),
(871,1391,cs),
(871,1345,o),
(835,1309,o),
(789,1309,cs),
(743,1309,o),
(706,1345,o),
(706,1391,cs),
(706,1437,o),
(743,1474,o)
);
},
{
closed = 1;
nodes = (
(837,437,ls),
(837,402,o),
(818,386,o),
(799,386,cs),
(780,386,o),
(761,401,o),
(759,429,cs),
(746,577,l),
(420,577,l),
(420,85,l),
(1035,85,l),
(1051,336,ls),
(1052,360,o),
(1074,375,o),
(1095,375,cs),
(1116,375,o),
(1137,359,o),
(1137,323,cs),
(1137,53,ls),
(1137,19,o),
(1114,0,o),
(1081,0,cs),
(155,0,ls),
(121,0,o),
(104,22,o),
(104,43,cs),
(104,64,o),
(121,85,o),
(154,85,cs),
(324,85,l),
(324,1085,l),
(189,1085,ls),
(157,1085,o),
(141,1106,o),
(141,1127,cs),
(141,1149,o),
(158,1171,o),
(191,1171,cs),
(1069,1171,ls),
(1102,1171,o),
(1125,1151,o),
(1125,1117,cs),
(1125,847,ls),
(1125,817,o),
(1105,803,o),
(1085,803,cs),
(1065,803,o),
(1044,816,o),
(1043,841,cs),
(1029,1085,l),
(420,1085,l),
(420,654,l),
(746,654,l),
(759,787,ls),
(762,817,o),
(781,832,o),
(799,832,cs),
(818,832,o),
(837,816,o),
(837,779,cs)
);
}
);
};
layerId = "840BD324-B0A6-42B0-BD23-CB5E8C19394F";
shapes = (
{
pos = (-78,331);
ref = dieresis;
},
{
ref = E;
}
);
width = 1240;
}
);
unicode = 203;
},
{
glyphname = Edotaccent;
lastChange = "2024-05-02 14:32:21 +0000";
layers = (
{
background = {
shapes = (
{
closed = 1;
nodes = (
(621,1474,cs),
(667,1474,o),
(703,1437,o),
(703,1391,cs),
(703,1345,o),
(667,1309,o),
(621,1309,cs),
(575,1309,o),
(538,1345,o),
(538,1391,cs),
(538,1437,o),
(575,1474,o)
);
},
{
closed = 1;
nodes = (
(837,437,ls),
(837,402,o),
(818,386,o),
(799,386,cs),
(780,386,o),
(761,401,o),
(759,429,cs),
(746,577,l),
(420,577,l),
(420,85,l),
(1035,85,l),
(1051,336,ls),
(1052,360,o),
(1074,375,o),
(1095,375,cs),
(1116,375,o),
(1137,359,o),
(1137,323,cs),
(1137,53,ls),
(1137,19,o),
(1114,0,o),
(1081,0,cs),
(155,0,ls),
(121,0,o),
(104,22,o),
(104,43,cs),
(104,64,o),
(121,85,o),
(154,85,cs),
(324,85,l),
(324,1085,l),
(189,1085,ls),
(157,1085,o),
(141,1106,o),
(141,1127,cs),
(141,1149,o),
(158,1171,o),
(191,1171,cs),
(1069,1171,ls),
(1102,1171,o),
(1125,1151,o),
(1125,1117,cs),
(1125,847,ls),
(1125,817,o),
(1105,803,o),
(1085,803,cs),
(1065,803,o),
(1044,816,o),
(1043,841,cs),
(1029,1085,l),
(420,1085,l),
(420,654,l),
(746,654,l),
(759,787,ls),
(762,817,o),
(781,832,o),
(799,832,cs),
(818,832,o),
(837,816,o),
(837,779,cs)
);
}
);
};
layerId = "840BD324-B0A6-42B0-BD23-CB5E8C19394F";
shapes = (
{
pos = (-23,661);
ref = dotaccentcomb;
},
{
ref = E;
}
);
width = 1240;
}
);
unicode = 278;
},
{
glyphname = Egrave;
lastChange = "2024-05-02 14:32:21 +0000";
layers = (
{
background = {
shapes = (
{
closed = 1;
nodes = (
(822,1385,cs),
(822,1368,o),
(807,1350,o),
(789,1350,cs),
(784,1350,o),
(780,1351,o),
(777,1354,c),
(666,1418,o),
(544,1497,o),
(437,1564,cs),
(425,1572,o),
(418,1583,o),
(418,1595,cs),
(418,1623,o),
(447,1652,o),
(476,1652,cs),
(487,1652,o),
(496,1649,o),
(504,1642,cs),
(597,1562,o),
(710,1474,o),
(812,1406,cs),
(820,1401,o),
(822,1395,o)
);
},
{
closed = 1;
nodes = (
(837,437,ls),
(837,402,o),
(818,386,o),
(799,386,cs),
(780,386,o),
(761,401,o),
(759,429,cs),
(746,577,l),
(420,577,l),
(420,85,l),
(1035,85,l),
(1051,336,ls),
(1052,360,o),
(1074,375,o),
(1095,375,cs),
(1116,375,o),
(1137,359,o),
(1137,323,cs),
(1137,53,ls),
(1137,19,o),
(1114,0,o),
(1081,0,cs),
(155,0,ls),
(121,0,o),
(104,22,o),
(104,43,cs),
(104,64,o),
(121,85,o),
(154,85,cs),
(324,85,l),
(324,1085,l),
(189,1085,ls),
(157,1085,o),
(141,1106,o),
(141,1127,cs),
(141,1149,o),
(158,1171,o),
(191,1171,cs),
(1069,1171,ls),
(1102,1171,o),
(1125,1151,o),
(1125,1117,cs),
(1125,847,ls),
(1125,817,o),
(1105,803,o),
(1085,803,cs),
(1065,803,o),
(1044,816,o),
(1043,841,cs),
(1029,1085,l),
(420,1085,l),
(420,654,l),
(746,654,l),
(759,787,ls),
(762,817,o),
(781,832,o),
(799,832,cs),
(818,832,o),
(837,816,o),
(837,779,cs)
);
}
);
};
layerId = "840BD324-B0A6-42B0-BD23-CB5E8C19394F";
shapes = (
{
pos = (412,375);
ref = grave;
},
{
ref = E;
}
);
width = 1240;
}
);
unicode = 200;
},
{
glyphname = Einvertedbreve;
lastChange = "2024-05-02 14:32:25 +0000";
layers = (
{
background = {
shapes = (
{
closed = 1;
nodes = (
(700,1470,cs),
(640,1470,o),
(581,1434,o),
(570,1366,c),
(566,1354,o),
(557,1350,o),
(547,1350,cs),
(531,1350,o),
(513,1362,o),
(513,1374,cs),
(513,1499,o),
(639,1528,o),
(700,1528,cs),
(761,1528,o),
(887,1499,o),
(887,1374,cs),
(887,1362,o),
(869,1350,o),
(853,1350,cs),
(843,1350,o),
(834,1354,o),
(830,1366,c),
(819,1434,o),
(760,1470,o)
);
},
{
closed = 1;
nodes = (
(837,437,ls),
(837,402,o),
(818,386,o),
(799,386,cs),
(780,386,o),
(761,401,o),
(759,429,cs),
(746,577,l),
(420,577,l),
(420,85,l),
(1035,85,l),
(1051,336,ls),
(1052,360,o),
(1074,375,o),
(1095,375,cs),
(1116,375,o),
(1137,359,o),
(1137,323,cs),
(1137,53,ls),
(1137,19,o),
(1114,0,o),
(1081,0,cs),
(155,0,ls),
(121,0,o),
(104,22,o),
(104,43,cs),
(104,64,o),
(121,85,o),
(154,85,cs),
(324,85,l),
(324,1085,l),
(189,1085,ls),
(157,1085,o),
(141,1106,o),
(141,1127,cs),
(141,1149,o),
(158,1171,o),
(191,1171,cs),
(1069,1171,ls),
(1102,1171,o),
(1125,1151,o),
(1125,1117,cs),
(1125,847,ls),
(1125,817,o),
(1105,803,o),
(1085,803,cs),
(1065,803,o),
(1044,816,o),
(1043,841,cs),
(1029,1085,l),
(420,1085,l),
(420,654,l),
(746,654,l),
(759,787,ls),
(762,817,o),
(781,832,o),
(799,832,cs),
(818,832,o),
(837,816,o),
(837,779,cs)
);
}
);
};
layerId = "840BD324-B0A6-42B0-BD23-CB5E8C19394F";
shapes = (
{
pos = (80,380);
ref = breveinvertedcomb;
},
{
ref = E;
}
);
width = 1240;
}
);
unicode = 518;
},
{
glyphname = Emacron;
lastChange = "2024-05-02 14:32:21 +0000";
layers = (
{
background = {
shapes = (
{
closed = 1;
nodes = (
(803,1350,cs),
(441,1350,ls),
(403,1350,o),
(390,1366,o),
(390,1393,cs),
(390,1420,o),
(406,1436,o),
(440,1436,cs),
(801,1436,ls),
(834,1436,o),
(850,1420,o),
(850,1393,cs),
(850,1366,o),
(836,1350,o)
);
},
{
closed = 1;
nodes = (
(837,437,ls),
(837,402,o),
(818,386,o),
(799,386,cs),
(780,386,o),
(761,401,o),
(759,429,cs),
(746,577,l),
(420,577,l),
(420,85,l),
(1035,85,l),
(1051,336,ls),
(1052,360,o),
(1074,375,o),
(1095,375,cs),
(1116,375,o),
(1137,359,o),
(1137,323,cs),
(1137,53,ls),
(1137,19,o),
(1114,0,o),
(1081,0,cs),
(155,0,ls),
(121,0,o),
(104,22,o),
(104,43,cs),
(104,64,o),
(121,85,o),
(154,85,cs),
(324,85,l),
(324,1085,l),
(189,1085,ls),
(157,1085,o),
(141,1106,o),
(141,1127,cs),
(141,1149,o),
(158,1171,o),
(191,1171,cs),
(1069,1171,ls),
(1102,1171,o),
(1125,1151,o),
(1125,1117,cs),
(1125,847,ls),
(1125,817,o),
(1105,803,o),
(1085,803,cs),
(1065,803,o),
(1044,816,o),
(1043,841,cs),
(1029,1085,l),
(420,1085,l),
(420,654,l),
(746,654,l),
(759,787,ls),
(762,817,o),
(781,832,o),
(799,832,cs),
(818,832,o),
(837,816,o),
(837,779,cs)
);
}
);
};
layerId = "840BD324-B0A6-42B0-BD23-CB5E8C19394F";
shapes = (
{
pos = (-80,317);
ref = macron;
},
{
ref = E;
}
);
width = 1240;
}
);
unicode = 274;
},
{
glyphname = Eogonek;
lastChange = "2024-05-02 14:32:21 +0000";
layers = (
{
background = {
shapes = (
{
closed = 1;
nodes = (
(661,-274,cs),
(661,-318,o),
(693,-322,o),
(725,-322,cs),
(748,-322,ls),
(770,-322,o),
(797,-317,o),
(797,-336,cs),
(797,-371,o),
(739,-413,o),
(675,-413,cs),
(612,-413,o),
(563,-384,o),
(563,-303,cs),
(563,-242,o),
(624,-80,o),
(738,14,c),
(779,14,ls),
(783,14,o),
(661,-202,o)
);
},
{
closed = 1;
nodes = (
(837,437,ls),
(837,402,o),
(818,386,o),
(799,386,cs),
(780,386,o),
(761,401,o),
(759,429,cs),
(746,577,l),
(420,577,l),
(420,85,l),
(1035,85,l),
(1051,336,ls),
(1052,360,o),
(1074,375,o),
(1095,375,cs),
(1116,375,o),
(1137,359,o),
(1137,323,cs),
(1137,53,ls),
(1137,19,o),
(1114,0,o),
(1081,0,cs),
(155,0,ls),
(121,0,o),
(104,22,o),
(104,43,cs),
(104,64,o),
(121,85,o),
(154,85,cs),
(324,85,l),
(324,1085,l),
(189,1085,ls),
(157,1085,o),
(141,1106,o),
(141,1127,cs),
(141,1149,o),
(158,1171,o),
(191,1171,cs),
(1069,1171,ls),
(1102,1171,o),
(1125,1151,o),
(1125,1117,cs),
(1125,847,ls),
(1125,817,o),
(1105,803,o),
(1085,803,cs),
(1065,803,o),
(1044,816,o),
(1043,841,cs),
(1029,1085,l),
(420,1085,l),
(420,654,l),
(746,654,l),
(759,787,ls),
(762,817,o),
(781,832,o),
(799,832,cs),
(818,832,o),
(837,816,o),
(837,779,cs)
);
}
);
};
layerId = "840BD324-B0A6-42B0-BD23-CB5E8C19394F";
shapes = (
{
pos = (60,-6);
ref = ogonek;
},
{
ref = E;
}
);
width = 1240;
}
);
unicode = 280;
},
{
glyphname = F;
lastChange = "2024-05-02 14:32:13 +0000";
layers = (
{
background = {
shapes = (
{
closed = 1;
nodes = (
(848,437,ls),
(848,402,o),
(829,386,o),
(810,386,cs),
(791,386,o),
(772,401,o),
(770,429,cs),
(757,577,l),
(420,577,l),
(420,85,l),
(770,85,ls),
(801,85,o),
(816,64,o),
(816,43,cs),
(816,21,o),
(800,0,o),
(771,0,cs),
(155,0,ls),
(121,0,o),
(104,22,o),
(104,43,cs),
(104,64,o),
(121,85,o),
(154,85,cs),
(324,85,l),
(324,1085,l),
(189,1085,ls),
(157,1085,o),
(141,1106,o),
(141,1127,cs),
(141,1149,o),
(158,1171,o),
(191,1171,cs),
(1082,1171,ls),
(1115,1171,o),
(1138,1151,o),
(1138,1117,cs),
(1138,847,ls),
(1138,817,o),
(1118,803,o),
(1098,803,cs),
(1078,803,o),
(1057,816,o),
(1056,841,cs),
(1042,1085,l),
(420,1085,l),
(420,654,l),
(757,654,l),
(770,787,ls),
(773,817,o),
(792,832,o),
(810,832,cs),
(829,832,o),
(848,816,o),
(848,779,cs)
);
}
);
};
layerId = "840BD324-B0A6-42B0-BD23-CB5E8C19394F";
shapes = (
{
closed = 1;
nodes = (
(848,437,ls),
(848,402,o),
(829,386,o),
(810,386,cs),
(791,386,o),
(772,401,o),
(770,429,cs),
(757,577,l),
(420,577,l),
(420,85,l),
(770,85,ls),
(801,85,o),
(816,64,o),
(816,43,cs),
(816,21,o),
(800,0,o),
(771,0,cs),
(155,0,ls),
(121,0,o),
(104,22,o),
(104,43,cs),
(104,64,o),
(121,85,o),
(154,85,cs),
(324,85,l),
(324,1085,l),
(189,1085,ls),
(157,1085,o),
(141,1106,o),
(141,1127,cs),
(141,1149,o),
(158,1171,o),
(191,1171,cs),
(1082,1171,ls),
(1115,1171,o),
(1138,1151,o),
(1138,1117,cs),
(1138,847,ls),
(1138,817,o),
(1118,803,o),
(1098,803,cs),
(1078,803,o),
(1057,816,o),
(1056,841,cs),
(1042,1085,l),
(420,1085,l),
(420,654,l),
(757,654,l),
(770,787,ls),
(773,817,o),
(792,832,o),
(810,832,cs),
(829,832,o),
(848,816,o),
(848,779,cs)
);
}
);
width = 1240;
}
);
unicode = 70;
},
{
glyphname = Fdotaccent;
lastChange = "2024-05-02 14:32:25 +0000";
layers = (
{
background = {
shapes = (
{
closed = 1;
nodes = (
(622,1474,cs),
(668,1474,o),
(704,1437,o),
(704,1391,cs),
(704,1345,o),
(668,1309,o),
(622,1309,cs),
(576,1309,o),
(539,1345,o),
(539,1391,cs),
(539,1437,o),
(576,1474,o)
);
},
{
closed = 1;
nodes = (
(848,437,ls),
(848,402,o),
(829,386,o),
(810,386,cs),
(791,386,o),
(772,401,o),
(770,429,cs),
(757,577,l),
(420,577,l),
(420,85,l),
(770,85,ls),
(801,85,o),
(816,64,o),
(816,43,cs),
(816,21,o),
(800,0,o),
(771,0,cs),
(155,0,ls),
(121,0,o),
(104,22,o),
(104,43,cs),
(104,64,o),
(121,85,o),
(154,85,cs),
(324,85,l),
(324,1085,l),
(189,1085,ls),
(157,1085,o),
(141,1106,o),
(141,1127,cs),
(141,1149,o),
(158,1171,o),
(191,1171,cs),
(1082,1171,ls),
(1115,1171,o),
(1138,1151,o),
(1138,1117,cs),
(1138,847,ls),
(1138,817,o),
(1118,803,o),
(1098,803,cs),
(1078,803,o),
(1057,816,o),
(1056,841,cs),
(1042,1085,l),
(420,1085,l),
(420,654,l),
(757,654,l),
(770,787,ls),
(773,817,o),
(792,832,o),
(810,832,cs),
(829,832,o),
(848,816,o),
(848,779,cs)
);
}
);
};
layerId = "840BD324-B0A6-42B0-BD23-CB5E8C19394F";
shapes = (
{
pos = (-22,661);
ref = dotaccentcomb;
},
{
ref = F;
}
);
width = 1240;
}
);
unicode = 7710;
},
{
glyphname = G;
lastChange = "2024-05-02 14:32:13 +0000";
layers = (
{
background = {
shapes = (
{
closed = 1;
nodes = (
(1083,510,l),
(1083,49,ls),
(1083,11,o),
(1060,-8,o),
(1036,-8,cs),
(1012,-8,o),
(987,12,o),
(987,51,cs),
(987,175,l),
(937,62,o),
(784,-17,o),
(606,-17,cs),
(298,-17,o),
(89,225,o),
(89,607,cs),
(89,954,o),
(297,1187,o),
(605,1187,cs),
(764,1187,o),
(905,1113,o),
(959,1015,c),
(959,1121,ls),
(959,1154,o),
(984,1171,o),
(1008,1171,cs),
(1033,1171,o),
(1057,1154,o),
(1057,1120,cs),
(1057,827,ls),
(1057,795,o),
(1034,780,o),
(1011,780,cs),
(987,780,o),
(968,797,o),
(963,827,cs),
(932,991,o),
(787,1101,o),
(608,1101,cs),
(333,1101,o),
(185,890,o),
(185,600,cs),
(185,263,o),
(372,69,o),
(607,69,cs),
(815,69,o),
(939,182,o),
(987,332,c),
(987,510,l),
(863,510,ls),
(830,510,o),
(813,532,o),
(813,554,cs),
(813,575,o),
(829,596,o),
(862,596,cs),
(1146,596,ls),
(1179,596,o),
(1195,575,o),
(1195,554,cs),
(1195,532,o),
(1178,510,o),
(1144,510,cs)
);
}
);
};
layerId = "840BD324-B0A6-42B0-BD23-CB5E8C19394F";
shapes = (
{
closed = 1;
nodes = (
(1083,510,l),
(1083,49,ls),
(1083,11,o),
(1060,-8,o),
(1036,-8,cs),
(1012,-8,o),
(987,12,o),
(987,51,cs),
(987,175,l),
(937,62,o),
(784,-17,o),
(606,-17,cs),
(298,-17,o),
(89,225,o),
(89,607,cs),
(89,954,o),
(297,1187,o),
(605,1187,cs),
(764,1187,o),
(905,1113,o),
(959,1015,c),
(959,1121,ls),
(959,1154,o),
(984,1171,o),
(1008,1171,cs),
(1033,1171,o),
(1057,1154,o),
(1057,1120,cs),
(1057,827,ls),
(1057,795,o),
(1034,780,o),
(1011,780,cs),
(987,780,o),
(968,797,o),
(963,827,cs),
(932,991,o),
(787,1101,o),
(608,1101,cs),
(333,1101,o),
(185,890,o),
(185,600,cs),
(185,263,o),
(372,69,o),
(607,69,cs),
(815,69,o),
(939,182,o),
(987,332,c),
(987,510,l),
(863,510,ls),
(830,510,o),
(813,532,o),
(813,554,cs),
(813,575,o),
(829,596,o),
(862,596,cs),
(1146,596,ls),
(1179,596,o),
(1195,575,o),
(1195,554,cs),
(1195,532,o),
(1178,510,o),
(1144,510,cs)
);
}
);
width = 1240;
}
);
unicode = 71;
},
{
glyphname = Gacute;
lastChange = "2024-05-02 14:32:25 +0000";
layers = (
{
background = {
shapes = (
{
closed = 1;
nodes = (
(813,1588,cs),
(491,1354,ls),
(488,1351,o),
(484,1350,o),
(480,1350,cs),
(468,1350,o),
(456,1360,o),
(456,1372,cs),
(456,1377,o),
(458,1382,o),
(463,1387,cs),
(734,1663,ls),
(744,1673,o),
(754,1677,o),
(765,1677,cs),
(796,1677,o),
(827,1644,o),
(827,1616,cs),
(827,1606,o),
(823,1595,o)
);
},
{
closed = 1;
nodes = (
(1083,510,l),
(1083,49,ls),
(1083,11,o),
(1060,-8,o),
(1036,-8,cs),
(1012,-8,o),
(987,12,o),
(987,51,cs),
(987,175,l),
(937,62,o),
(784,-17,o),
(606,-17,cs),
(298,-17,o),
(89,225,o),
(89,607,cs),
(89,954,o),
(297,1187,o),
(605,1187,cs),
(764,1187,o),
(905,1113,o),
(959,1015,c),
(959,1121,ls),
(959,1154,o),
(984,1171,o),
(1008,1171,cs),
(1033,1171,o),
(1057,1154,o),
(1057,1120,cs),
(1057,827,ls),
(1057,795,o),
(1034,780,o),
(1011,780,cs),
(987,780,o),
(968,797,o),
(963,827,cs),
(932,991,o),
(787,1101,o),
(608,1101,cs),
(333,1101,o),
(185,890,o),
(185,600,cs),
(185,263,o),
(372,69,o),
(607,69,cs),
(815,69,o),
(939,182,o),
(987,332,c),
(987,510,l),
(863,510,ls),
(830,510,o),
(813,532,o),
(813,554,cs),
(813,575,o),
(829,596,o),
(862,596,cs),
(1146,596,ls),
(1179,596,o),
(1195,575,o),
(1195,554,cs),
(1195,532,o),
(1178,510,o),
(1144,510,cs)
);
}
);
};
layerId = "840BD324-B0A6-42B0-BD23-CB5E8C19394F";
shapes = (
{
pos = (-45,372);
ref = acute;
},
{
ref = G;
}
);
width = 1240;
}
);
unicode = 500;
},
{
glyphname = Gbreve;
lastChange = "2024-05-02 14:32:21 +0000";
layers = (
{
background = {
shapes = (
{
closed = 1;
nodes = (
(642,1408,cs),
(702,1408,o),
(761,1444,o),
(772,1512,c),
(776,1524,o),
(785,1528,o),
(795,1528,cs),
(811,1528,o),
(829,1516,o),
(829,1504,cs),
(829,1379,o),
(703,1350,o),
(642,1350,cs),
(581,1350,o),
(455,1379,o),
(455,1504,cs),
(455,1516,o),
(473,1528,o),
(489,1528,cs),
(499,1528,o),
(508,1524,o),
(512,1512,c),
(523,1444,o),
(582,1408,o)
);
},
{
closed = 1;
nodes = (
(1083,510,l),
(1083,49,ls),
(1083,11,o),
(1060,-8,o),
(1036,-8,cs),
(1012,-8,o),
(987,12,o),
(987,51,cs),
(987,175,l),
(937,62,o),
(784,-17,o),
(606,-17,cs),
(298,-17,o),
(89,225,o),
(89,607,cs),
(89,954,o),
(297,1187,o),
(605,1187,cs),
(764,1187,o),
(905,1113,o),
(959,1015,c),
(959,1121,ls),
(959,1154,o),
(984,1171,o),
(1008,1171,cs),
(1033,1171,o),
(1057,1154,o),
(1057,1120,cs),
(1057,827,ls),
(1057,795,o),
(1034,780,o),
(1011,780,cs),
(987,780,o),
(968,797,o),
(963,827,cs),
(932,991,o),
(787,1101,o),
(608,1101,cs),
(333,1101,o),
(185,890,o),
(185,600,cs),
(185,263,o),
(372,69,o),
(607,69,cs),
(815,69,o),
(939,182,o),
(987,332,c),
(987,510,l),
(863,510,ls),
(830,510,o),
(813,532,o),
(813,554,cs),
(813,575,o),
(829,596,o),
(862,596,cs),
(1146,596,ls),
(1179,596,o),
(1195,575,o),
(1195,554,cs),
(1195,532,o),
(1178,510,o),
(1144,510,cs)
);
}
);
};
layerId = "840BD324-B0A6-42B0-BD23-CB5E8C19394F";
shapes = (
{
pos = (-55,380);
ref = breve;
},
{
ref = G;
}
);
width = 1240;
}
);
unicode = 286;
},
{
glyphname = Gcircumflex;
lastChange = "2024-05-02 14:32:21 +0000";
layers = (
{
background = {
shapes = (
{
closed = 1;
nodes = (
(641,1691,cs),
(654,1691,o),
(668,1687,o),
(673,1679,cs),
(857,1396,l),
(862,1391,o),
(864,1384,o),
(864,1379,cs),
(864,1363,o),
(845,1350,o),
(827,1350,cs),
(819,1350,o),
(809,1351,o),
(804,1359,cs),
(641,1568,l),
(479,1359,ls),
(474,1351,o),
(464,1350,o),
(456,1350,cs),
(438,1350,o),
(419,1363,o),
(419,1379,cs),
(419,1384,o),
(421,1391,o),
(426,1396,c),
(610,1679,ls),
(615,1687,o),
(628,1691,o)
);
},
{
closed = 1;
nodes = (
(1083,510,l),
(1083,49,ls),
(1083,11,o),
(1060,-8,o),
(1036,-8,cs),
(1012,-8,o),
(987,12,o),
(987,51,cs),
(987,175,l),
(937,62,o),
(784,-17,o),
(606,-17,cs),
(298,-17,o),
(89,225,o),
(89,607,cs),
(89,954,o),
(297,1187,o),
(605,1187,cs),
(764,1187,o),
(905,1113,o),
(959,1015,c),
(959,1121,ls),
(959,1154,o),
(984,1171,o),
(1008,1171,cs),
(1033,1171,o),
(1057,1154,o),
(1057,1120,cs),
(1057,827,ls),
(1057,795,o),
(1034,780,o),
(1011,780,cs),
(987,780,o),
(968,797,o),
(963,827,cs),
(932,991,o),
(787,1101,o),
(608,1101,cs),
(333,1101,o),
(185,890,o),
(185,600,cs),
(185,263,o),
(372,69,o),
(607,69,cs),
(815,69,o),
(939,182,o),
(987,332,c),
(987,510,l),
(863,510,ls),
(830,510,o),
(813,532,o),
(813,554,cs),
(813,575,o),
(829,596,o),
(862,596,cs),
(1146,596,ls),
(1179,596,o),
(1195,575,o),
(1195,554,cs),
(1195,532,o),
(1178,510,o),
(1144,510,cs)
);
}
);
};
layerId = "840BD324-B0A6-42B0-BD23-CB5E8C19394F";
shapes = (
{
pos = (-58,371);
ref = circumflex;
},
{
ref = G;
}
);
width = 1240;
}
);
unicode = 284;
},
{
glyphname = Gcommaaccent;
lastChange = "2024-05-02 14:32:21 +0000";
layers = (
{
background = {
shapes = (
{
closed = 1;
nodes = (
(651,-180,cs),
(711,-180,o),
(753,-209,o),
(753,-289,cs),
(753,-405,o),
(650,-515,o),
(568,-556,cs),
(565,-558,o),
(561,-558,o),
(558,-558,cs),
(544,-558,o),
(530,-545,o),
(530,-531,cs),
(530,-524,o),
(534,-516,o),
(542,-510,cs),
(585,-479,o),
(665,-418,o),
(665,-356,c),
(606,-356,o),
(559,-330,o),
(559,-265,cs),
(559,-201,o),
(604,-180,o)
);
},
{
closed = 1;
nodes = (
(1083,510,l),
(1083,49,ls),
(1083,11,o),
(1060,-8,o),
(1036,-8,cs),
(1012,-8,o),
(987,12,o),
(987,51,cs),
(987,175,l),
(937,62,o),
(784,-17,o),
(606,-17,cs),
(298,-17,o),
(89,225,o),
(89,607,cs),
(89,954,o),
(297,1187,o),
(605,1187,cs),
(764,1187,o),
(905,1113,o),
(959,1015,c),
(959,1121,ls),
(959,1154,o),
(984,1171,o),
(1008,1171,cs),
(1033,1171,o),
(1057,1154,o),
(1057,1120,cs),
(1057,827,ls),
(1057,795,o),
(1034,780,o),
(1011,780,cs),
(987,780,o),
(968,797,o),
(963,827,cs),
(932,991,o),
(787,1101,o),
(608,1101,cs),
(333,1101,o),
(185,890,o),
(185,600,cs),
(185,263,o),
(372,69,o),
(607,69,cs),
(815,69,o),
(939,182,o),
(987,332,c),
(987,510,l),
(863,510,ls),
(830,510,o),
(813,532,o),
(813,554,cs),
(813,575,o),
(829,596,o),
(862,596,cs),
(1146,596,ls),
(1179,596,o),
(1195,575,o),
(1195,554,cs),
(1195,532,o),
(1178,510,o),
(1144,510,cs)
);
}
);
};
layerId = "840BD324-B0A6-42B0-BD23-CB5E8C19394F";
shapes = (
{
pos = (-8,-348);
ref = commaaccentcomb;
},
{
ref = G;
}
);
width = 1240;
}
);
unicode = 290;
},
{
glyphname = Gdotaccent;
lastChange = "2024-05-02 14:32:21 +0000";
layers = (
{
background = {
shapes = (
{
closed = 1;
nodes = (
(642,1474,cs),
(688,1474,o),
(724,1437,o),
(724,1391,cs),
(724,1345,o),
(688,1309,o),
(642,1309,cs),
(596,1309,o),
(559,1345,o),
(559,1391,cs),
(559,1437,o),
(596,1474,o)
);
},
{
closed = 1;
nodes = (
(1083,510,l),
(1083,49,ls),
(1083,11,o),
(1060,-8,o),
(1036,-8,cs),
(1012,-8,o),
(987,12,o),
(987,51,cs),
(987,175,l),
(937,62,o),
(784,-17,o),
(606,-17,cs),
(298,-17,o),
(89,225,o),
(89,607,cs),
(89,954,o),
(297,1187,o),
(605,1187,cs),
(764,1187,o),
(905,1113,o),
(959,1015,c),
(959,1121,ls),
(959,1154,o),
(984,1171,o),
(1008,1171,cs),
(1033,1171,o),
(1057,1154,o),
(1057,1120,cs),
(1057,827,ls),
(1057,795,o),
(1034,780,o),
(1011,780,cs),
(987,780,o),
(968,797,o),
(963,827,cs),
(932,991,o),
(787,1101,o),
(608,1101,cs),
(333,1101,o),
(185,890,o),
(185,600,cs),
(185,263,o),
(372,69,o),
(607,69,cs),
(815,69,o),
(939,182,o),
(987,332,c),
(987,510,l),
(863,510,ls),
(830,510,o),
(813,532,o),
(813,554,cs),
(813,575,o),
(829,596,o),
(862,596,cs),
(1146,596,ls),
(1179,596,o),
(1195,575,o),
(1195,554,cs),
(1195,532,o),
(1178,510,o),
(1144,510,cs)
);
}
);
};
layerId = "840BD324-B0A6-42B0-BD23-CB5E8C19394F";
shapes = (
{
pos = (-2,661);
ref = dotaccentcomb;
},
{
ref = G;
}
);
width = 1240;
}
);
unicode = 288;
},
{
glyphname = H;
lastChange = "2024-05-02 14:32:13 +0000";
layers = (
{
background = {
shapes = (
{
closed = 1;
nodes = (
(143,0,ls),
(110,0,o),
(93,22,o),
(93,44,cs),
(93,65,o),
(109,86,o),
(141,86,cs),
(265,86,l),
(265,1085,l),
(157,1085,ls),
(124,1085,o),
(107,1106,o),
(107,1128,cs),
(107,1149,o),
(124,1171,o),
(157,1171,cs),
(459,1171,ls),
(492,1171,o),
(509,1149,o),
(509,1127,cs),
(509,1106,o),
(494,1085,o),
(461,1085,cs),
(361,1085,l),
(361,638,l),
(901,638,l),
(901,1085,l),
(801,1085,ls),
(768,1085,o),
(753,1106,o),
(753,1127,cs),
(753,1149,o),
(770,1171,o),
(803,1171,cs),
(1097,1171,ls),
(1130,1171,o),
(1147,1150,o),
(1147,1130,cs),
(1147,1107,o),
(1130,1085,o),
(1097,1085,cs),
(997,1085,l),
(997,86,l),
(1097,86,ls),
(1130,86,o),
(1147,65,o),
(1147,43,cs),
(1147,22,o),
(1130,0,o),
(1097,0,cs),
(803,0,ls),
(770,0,o),
(753,22,o),
(753,44,cs),
(753,65,o),
(769,86,o),
(801,86,cs),
(901,86,l),
(901,558,l),
(361,558,l),
(361,86,l),
(461,86,ls),
(493,86,o),
(509,66,o),
(509,46,cs),
(509,23,o),
(492,0,o),
(459,0,cs)
);
}
);
};
layerId = "840BD324-B0A6-42B0-BD23-CB5E8C19394F";
shapes = (
{
closed = 1;
nodes = (
(143,0,ls),
(110,0,o),
(93,22,o),
(93,44,cs),
(93,65,o),
(109,86,o),
(141,86,cs),
(265,86,l),
(265,1085,l),
(157,1085,ls),
(124,1085,o),
(107,1106,o),
(107,1128,cs),
(107,1149,o),
(124,1171,o),
(157,1171,cs),
(459,1171,ls),
(492,1171,o),
(509,1149,o),
(509,1127,cs),
(509,1106,o),
(494,1085,o),
(461,1085,cs),
(361,1085,l),
(361,638,l),
(901,638,l),
(901,1085,l),
(801,1085,ls),
(768,1085,o),
(753,1106,o),
(753,1127,cs),
(753,1149,o),
(770,1171,o),
(803,1171,cs),
(1097,1171,ls),
(1130,1171,o),
(1147,1150,o),
(1147,1130,cs),
(1147,1107,o),
(1130,1085,o),
(1097,1085,cs),
(997,1085,l),
(997,86,l),
(1097,86,ls),
(1130,86,o),
(1147,65,o),
(1147,43,cs),
(1147,22,o),
(1130,0,o),
(1097,0,cs),
(803,0,ls),
(770,0,o),
(753,22,o),
(753,44,cs),
(753,65,o),
(769,86,o),
(801,86,cs),
(901,86,l),
(901,558,l),
(361,558,l),
(361,86,l),
(461,86,ls),
(493,86,o),
(509,66,o),
(509,46,cs),
(509,23,o),
(492,0,o),
(459,0,cs)
);
}
);
width = 1240;
}
);
unicode = 72;
},
{
glyphname = Hbar;
lastChange = "2024-05-02 14:32:21 +0000";
layers = (
{
background = {
shapes = (
{
closed = 1;
nodes = (
(153,855,ls),
(116,855,o),
(107,875,o),
(107,894,cs),
(107,913,o),
(114,931,o),
(149,931,cs),
(1108,931,ls),
(1141,931,o),
(1147,913,o),
(1147,894,cs),
(1147,875,o),
(1139,855,o),
(1106,855,cs)
);
},
{
closed = 1;
nodes = (
(143,0,ls),
(110,0,o),
(93,22,o),
(93,44,cs),
(93,65,o),
(109,86,o),
(141,86,cs),
(265,86,l),
(265,1085,l),
(157,1085,ls),
(124,1085,o),
(107,1106,o),
(107,1128,cs),
(107,1149,o),
(124,1171,o),
(157,1171,cs),
(459,1171,ls),
(492,1171,o),
(509,1149,o),
(509,1127,cs),
(509,1106,o),
(494,1085,o),
(461,1085,cs),
(361,1085,l),
(361,638,l),
(901,638,l),
(901,1085,l),
(801,1085,ls),
(768,1085,o),
(753,1106,o),
(753,1127,cs),
(753,1149,o),
(770,1171,o),
(803,1171,cs),
(1097,1171,ls),
(1130,1171,o),
(1147,1150,o),
(1147,1130,cs),
(1147,1107,o),
(1130,1085,o),
(1097,1085,cs),
(997,1085,l),
(997,86,l),
(1097,86,ls),
(1130,86,o),
(1147,65,o),
(1147,43,cs),
(1147,22,o),
(1130,0,o),
(1097,0,cs),
(803,0,ls),
(770,0,o),
(753,22,o),
(753,44,cs),
(753,65,o),
(769,86,o),
(801,86,cs),
(901,86,l),
(901,558,l),
(361,558,l),
(361,86,l),
(461,86,ls),
(493,86,o),
(509,66,o),
(509,46,cs),
(509,23,o),
(492,0,o),
(459,0,cs)
);
}
);
};
layerId = "840BD324-B0A6-42B0-BD23-CB5E8C19394F";
shapes = (
{
closed = 1;
nodes = (
(153,855,ls),
(116,855,o),
(107,875,o),
(107,894,cs),
(107,913,o),
(114,931,o),
(149,931,cs),
(1108,931,ls),
(1141,931,o),
(1147,913,o),
(1147,894,cs),
(1147,875,o),
(1139,855,o),
(1106,855,cs)
);
},
{
ref = H;
}
);
width = 1240;
}
);
unicode = 294;
},
{
glyphname = Hcircumflex;
lastChange = "2024-05-02 14:32:21 +0000";
layers = (
{
background = {
shapes = (
{
closed = 1;
nodes = (
(619,1691,cs),
(632,1691,o),
(646,1687,o),
(651,1679,cs),
(835,1396,l),
(840,1391,o),
(842,1384,o),
(842,1379,cs),
(842,1363,o),
(823,1350,o),
(805,1350,cs),
(797,1350,o),
(787,1351,o),
(782,1359,cs),
(619,1568,l),
(457,1359,ls),
(452,1351,o),
(442,1350,o),
(434,1350,cs),
(416,1350,o),
(397,1363,o),
(397,1379,cs),
(397,1384,o),
(399,1391,o),
(404,1396,c),
(588,1679,ls),
(593,1687,o),
(606,1691,o)
);
},
{
closed = 1;
nodes = (
(143,0,ls),
(110,0,o),
(93,22,o),
(93,44,cs),
(93,65,o),
(109,86,o),
(141,86,cs),
(265,86,l),
(265,1085,l),
(157,1085,ls),
(124,1085,o),
(107,1106,o),
(107,1128,cs),
(107,1149,o),
(124,1171,o),
(157,1171,cs),
(459,1171,ls),
(492,1171,o),
(509,1149,o),
(509,1127,cs),
(509,1106,o),
(494,1085,o),
(461,1085,cs),
(361,1085,l),
(361,638,l),
(901,638,l),
(901,1085,l),
(801,1085,ls),
(768,1085,o),
(753,1106,o),
(753,1127,cs),
(753,1149,o),
(770,1171,o),
(803,1171,cs),
(1097,1171,ls),
(1130,1171,o),
(1147,1150,o),
(1147,1130,cs),
(1147,1107,o),
(1130,1085,o),
(1097,1085,cs),
(997,1085,l),
(997,86,l),
(1097,86,ls),
(1130,86,o),
(1147,65,o),
(1147,43,cs),
(1147,22,o),
(1130,0,o),
(1097,0,cs),
(803,0,ls),
(770,0,o),
(753,22,o),
(753,44,cs),
(753,65,o),
(769,86,o),
(801,86,cs),
(901,86,l),
(901,558,l),
(361,558,l),
(361,86,l),
(461,86,ls),
(493,86,o),
(509,66,o),
(509,46,cs),
(509,23,o),
(492,0,o),
(459,0,cs)
);
}
);
};
layerId = "840BD324-B0A6-42B0-BD23-CB5E8C19394F";
shapes = (
{
pos = (-80,371);
ref = circumflex;
},
{
ref = H;
}
);
width = 1240;
}
);
unicode = 292;
},
{
glyphname = I;
lastChange = "2024-05-02 14:32:13 +0000";
layers = (
{
background = {
shapes = (
{
closed = 1;
nodes = (
(310,0,ls),
(277,0,o),
(259,21,o),
(259,43,cs),
(259,64,o),
(276,86,o),
(309,86,cs),
(614,86,l),
(614,1085,l),
(309,1085,ls),
(276,1085,o),
(259,1106,o),
(259,1127,cs),
(259,1149,o),
(277,1171,o),
(310,1171,cs),
(995,1171,ls),
(1028,1171,o),
(1045,1149,o),
(1045,1127,cs),
(1045,1106,o),
(1029,1085,o),
(996,1085,cs),
(710,1085,l),
(710,86,l),
(996,86,ls),
(1029,86,o),
(1045,64,o),
(1045,43,cs),
(1045,21,o),
(1028,0,o),
(995,0,cs)
);
}
);
};
layerId = "840BD324-B0A6-42B0-BD23-CB5E8C19394F";
shapes = (
{
closed = 1;
nodes = (
(310,0,ls),
(277,0,o),
(259,21,o),
(259,43,cs),
(259,64,o),
(276,86,o),
(309,86,cs),
(614,86,l),
(614,1085,l),
(309,1085,ls),
(276,1085,o),
(259,1106,o),
(259,1127,cs),
(259,1149,o),
(277,1171,o),
(310,1171,cs),
(995,1171,ls),
(1028,1171,o),
(1045,1149,o),
(1045,1127,cs),
(1045,1106,o),
(1029,1085,o),
(996,1085,cs),
(710,1085,l),
(710,86,l),
(996,86,ls),
(1029,86,o),
(1045,64,o),
(1045,43,cs),
(1045,21,o),
(1028,0,o),
(995,0,cs)
);
}
);
width = 1240;
}
);
unicode = 73;
},
{
glyphname = IJ;
lastChange = "2024-05-02 14:32:13 +0000";
layers = (
{
background = {
shapes = (
{
closed = 1;
nodes = (
(1040,307,ls),
(1040,74,o),
(963,0,o),
(676,0,cs),
(655,0,o),
(644,20,o),
(644,41,cs),
(644,61,o),
(654,81,o),
(676,81,cs),
(919,81,o),
(944,125,o),
(944,304,cs),
(944,1085,l),
(348,1085,l),
(348,86,l),
(479,86,ls),
(512,86,o),
(528,64,o),
(528,43,cs),
(528,21,o),
(511,0,o),
(478,0,cs),
(118,0,ls),
(85,0,o),
(67,21,o),
(67,43,cs),
(67,64,o),
(84,86,o),
(117,86,cs),
(252,86,l),
(252,1085,l),
(97,1085,ls),
(64,1085,o),
(47,1106,o),
(47,1127,cs),
(47,1149,o),
(65,1171,o),
(98,1171,cs),
(1142,1171,ls),
(1175,1171,o),
(1192,1150,o),
(1192,1128,cs),
(1192,1107,o),
(1176,1085,o),
(1143,1085,cs),
(1040,1085,l)
);
}
);
};
layerId = "840BD324-B0A6-42B0-BD23-CB5E8C19394F";
shapes = (
{
closed = 1;
nodes = (
(1040,307,ls),
(1040,74,o),
(963,0,o),
(676,0,cs),
(655,0,o),
(644,20,o),
(644,41,cs),
(644,61,o),
(654,81,o),
(676,81,cs),
(919,81,o),
(944,125,o),
(944,304,cs),
(944,1085,l),
(348,1085,l),
(348,86,l),
(479,86,ls),
(512,86,o),
(528,64,o),
(528,43,cs),
(528,21,o),
(511,0,o),
(478,0,cs),
(118,0,ls),
(85,0,o),
(67,21,o),
(67,43,cs),
(67,64,o),
(84,86,o),
(117,86,cs),
(252,86,l),
(252,1085,l),
(97,1085,ls),
(64,1085,o),
(47,1106,o),
(47,1127,cs),
(47,1149,o),
(65,1171,o),
(98,1171,cs),
(1142,1171,ls),
(1175,1171,o),
(1192,1150,o),
(1192,1128,cs),
(1192,1107,o),
(1176,1085,o),
(1143,1085,cs),
(1040,1085,l)
);
}
);
width = 1240;
}
);
unicode = 306;
},
{
glyphname = Iacute;
lastChange = "2024-05-02 14:32:21 +0000";
layers = (
{
background = {
shapes = (
{
closed = 1;
nodes = (
(823,1588,cs),
(501,1354,ls),
(498,1351,o),
(494,1350,o),
(490,1350,cs),
(478,1350,o),
(466,1360,o),
(466,1372,cs),
(466,1377,o),
(468,1382,o),
(473,1387,cs),
(744,1663,ls),
(754,1673,o),
(764,1677,o),
(775,1677,cs),
(806,1677,o),
(837,1644,o),
(837,1616,cs),
(837,1606,o),
(833,1595,o)
);
},
{
closed = 1;
nodes = (
(310,0,ls),
(277,0,o),
(259,21,o),
(259,43,cs),
(259,64,o),
(276,86,o),
(309,86,cs),
(614,86,l),
(614,1085,l),
(309,1085,ls),
(276,1085,o),
(259,1106,o),
(259,1127,cs),
(259,1149,o),
(277,1171,o),
(310,1171,cs),
(995,1171,ls),
(1028,1171,o),
(1045,1149,o),
(1045,1127,cs),
(1045,1106,o),
(1029,1085,o),
(996,1085,cs),
(710,1085,l),
(710,86,l),
(996,86,ls),
(1029,86,o),
(1045,64,o),
(1045,43,cs),
(1045,21,o),
(1028,0,o),
(995,0,cs)
);
}
);
};
layerId = "840BD324-B0A6-42B0-BD23-CB5E8C19394F";
shapes = (
{
pos = (-35,372);
ref = acute;
},
{
ref = I;
}
);
width = 1240;
}
);
unicode = 205;
},
{
glyphname = Ibreve;
lastChange = "2024-05-02 14:32:21 +0000";
layers = (
{
background = {
shapes = (
{
closed = 1;
nodes = (
(652,1408,cs),
(712,1408,o),
(771,1444,o),
(782,1512,c),
(786,1524,o),
(795,1528,o),
(805,1528,cs),
(821,1528,o),
(839,1516,o),
(839,1504,cs),
(839,1379,o),
(713,1350,o),
(652,1350,cs),
(591,1350,o),
(465,1379,o),
(465,1504,cs),
(465,1516,o),
(483,1528,o),
(499,1528,cs),
(509,1528,o),
(518,1524,o),
(522,1512,c),
(533,1444,o),
(592,1408,o)
);
},
{
closed = 1;
nodes = (
(310,0,ls),
(277,0,o),
(259,21,o),
(259,43,cs),
(259,64,o),
(276,86,o),
(309,86,cs),
(614,86,l),
(614,1085,l),
(309,1085,ls),
(276,1085,o),
(259,1106,o),
(259,1127,cs),
(259,1149,o),
(277,1171,o),
(310,1171,cs),
(995,1171,ls),
(1028,1171,o),
(1045,1149,o),
(1045,1127,cs),
(1045,1106,o),
(1029,1085,o),
(996,1085,cs),
(710,1085,l),
(710,86,l),
(996,86,ls),
(1029,86,o),
(1045,64,o),
(1045,43,cs),
(1045,21,o),
(1028,0,o),
(995,0,cs)
);
}
);
};
layerId = "840BD324-B0A6-42B0-BD23-CB5E8C19394F";
shapes = (
{
pos = (-45,380);
ref = breve;
},
{
ref = I;
}
);
width = 1240;
}
);
unicode = 300;
},
{
glyphname = Icircumflex;
lastChange = "2024-05-02 14:32:21 +0000";
layers = (
{
background = {
shapes = (
{
closed = 1;
nodes = (
(651,1691,cs),
(664,1691,o),
(678,1687,o),
(683,1679,cs),
(867,1396,l),
(872,1391,o),
(874,1384,o),
(874,1379,cs),
(874,1363,o),
(855,1350,o),
(837,1350,cs),
(829,1350,o),
(819,1351,o),
(814,1359,cs),
(651,1568,l),
(489,1359,ls),
(484,1351,o),
(474,1350,o),
(466,1350,cs),
(448,1350,o),
(429,1363,o),
(429,1379,cs),
(429,1384,o),
(431,1391,o),
(436,1396,c),
(620,1679,ls),
(625,1687,o),
(638,1691,o)
);
},
{
closed = 1;
nodes = (
(310,0,ls),
(277,0,o),
(259,21,o),
(259,43,cs),
(259,64,o),
(276,86,o),
(309,86,cs),
(614,86,l),
(614,1085,l),
(309,1085,ls),
(276,1085,o),
(259,1106,o),
(259,1127,cs),
(259,1149,o),
(277,1171,o),
(310,1171,cs),
(995,1171,ls),
(1028,1171,o),
(1045,1149,o),
(1045,1127,cs),
(1045,1106,o),
(1029,1085,o),
(996,1085,cs),
(710,1085,l),
(710,86,l),
(996,86,ls),
(1029,86,o),
(1045,64,o),
(1045,43,cs),
(1045,21,o),
(1028,0,o),
(995,0,cs)
);
}
);
};
layerId = "840BD324-B0A6-42B0-BD23-CB5E8C19394F";
shapes = (
{
pos = (-48,371);
ref = circumflex;
},
{
ref = I;
}
);
width = 1240;
}
);
unicode = 206;
},
{
glyphname = Idblgrave;
lastChange = "2024-05-02 14:32:25 +0000";
layers = (
{
background = {
shapes = (
{
closed = 1;
nodes = (
(346,1588,ls),
(336,1595,o),
(332,1606,o),
(332,1616,cs),
(332,1644,o),
(362,1677,o),
(393,1677,cs),
(404,1677,o),
(415,1673,o),
(425,1663,cs),
(696,1387,ls),
(701,1382,o),
(702,1377,o),
(702,1372,cs),
(702,1360,o),
(691,1350,o),
(679,1350,cs),
(675,1350,o),
(671,1351,o),
(668,1354,cs)
);
},
{
closed = 1;
nodes = (
(656,1608,l),
(646,1615,o),
(642,1626,o),
(642,1636,cs),
(642,1664,o),
(672,1697,o),
(703,1697,cs),
(714,1697,o),
(725,1693,o),
(735,1683,c),
(966,1387,ls),
(971,1382,o),
(972,1377,o),
(972,1372,cs),
(972,1360,o),
(961,1350,o),
(949,1350,cs),
(945,1350,o),
(941,1351,o),
(938,1354,cs)
);
},
{
closed = 1;
nodes = (
(310,0,ls),
(277,0,o),
(259,21,o),
(259,43,cs),
(259,64,o),
(276,86,o),
(309,86,cs),
(614,86,l),
(614,1085,l),
(309,1085,ls),
(276,1085,o),
(259,1106,o),
(259,1127,cs),
(259,1149,o),
(277,1171,o),
(310,1171,cs),
(995,1171,ls),
(1028,1171,o),
(1045,1149,o),
(1045,1127,cs),
(1045,1106,o),
(1029,1085,o),
(996,1085,cs),
(710,1085,l),
(710,86,l),
(996,86,ls),
(1029,86,o),
(1045,64,o),
(1045,43,cs),
(1045,21,o),
(1028,0,o),
(995,0,cs)
);
}
);
};
layerId = "840BD324-B0A6-42B0-BD23-CB5E8C19394F";
shapes = (
{
pos = (32,444);
ref = dblgravecomb;
},
{
ref = I;
}
);
width = 1240;
}
);
unicode = 520;
},
{
glyphname = Idieresis;
lastChange = "2024-05-02 14:32:21 +0000";
layers = (
{
background = {
shapes = (
{
closed = 1;
nodes = (
(485,1474,cs),
(531,1474,o),
(567,1437,o),
(567,1391,cs),
(567,1345,o),
(531,1309,o),
(485,1309,cs),
(439,1309,o),
(402,1345,o),
(402,1391,cs),
(402,1437,o),
(439,1474,o)
);
},
{
closed = 1;
nodes = (
(820,1474,cs),
(866,1474,o),
(902,1437,o),
(902,1391,cs),
(902,1345,o),
(866,1309,o),
(820,1309,cs),
(774,1309,o),
(737,1345,o),
(737,1391,cs),
(737,1437,o),
(774,1474,o)
);
},
{
closed = 1;
nodes = (
(310,0,ls),
(277,0,o),
(259,21,o),
(259,43,cs),
(259,64,o),
(276,86,o),
(309,86,cs),
(614,86,l),
(614,1085,l),
(309,1085,ls),
(276,1085,o),
(259,1106,o),
(259,1127,cs),
(259,1149,o),
(277,1171,o),
(310,1171,cs),
(995,1171,ls),
(1028,1171,o),
(1045,1149,o),
(1045,1127,cs),
(1045,1106,o),
(1029,1085,o),
(996,1085,cs),
(710,1085,l),
(710,86,l),
(996,86,ls),
(1029,86,o),
(1045,64,o),
(1045,43,cs),
(1045,21,o),
(1028,0,o),
(995,0,cs)
);
}
);
};
layerId = "840BD324-B0A6-42B0-BD23-CB5E8C19394F";
shapes = (
{
pos = (-47,331);
ref = dieresis;
},
{
ref = I;
}
);
width = 1240;
}
);
unicode = 207;
},
{
glyphname = Idotaccent;
lastChange = "2024-05-02 14:32:21 +0000";
layers = (
{
background = {
shapes = (
{
closed = 1;
nodes = (
(652,1474,cs),
(698,1474,o),
(734,1437,o),
(734,1391,cs),
(734,1345,o),
(698,1309,o),
(652,1309,cs),
(606,1309,o),
(569,1345,o),
(569,1391,cs),
(569,1437,o),
(606,1474,o)
);
},
{
closed = 1;
nodes = (
(310,0,ls),
(277,0,o),
(259,21,o),
(259,43,cs),
(259,64,o),
(276,86,o),
(309,86,cs),
(614,86,l),
(614,1085,l),
(309,1085,ls),
(276,1085,o),
(259,1106,o),
(259,1127,cs),
(259,1149,o),
(277,1171,o),
(310,1171,cs),
(995,1171,ls),
(1028,1171,o),
(1045,1149,o),
(1045,1127,cs),
(1045,1106,o),
(1029,1085,o),
(996,1085,cs),
(710,1085,l),
(710,86,l),
(996,86,ls),
(1029,86,o),
(1045,64,o),
(1045,43,cs),
(1045,21,o),
(1028,0,o),
(995,0,cs)
);
}
);
};
layerId = "840BD324-B0A6-42B0-BD23-CB5E8C19394F";
shapes = (
{
pos = (8,661);
ref = dotaccentcomb;
},
{
ref = I;
}
);
width = 1240;
}
);
unicode = 304;
},
{
glyphname = Igrave;
lastChange = "2024-05-02 14:32:21 +0000";
layers = (
{
background = {
shapes = (
{
closed = 1;
nodes = (
(854,1385,cs),
(854,1368,o),
(839,1350,o),
(821,1350,cs),
(816,1350,o),
(812,1351,o),
(809,1354,c),
(698,1418,o),
(576,1497,o),
(469,1564,cs),
(457,1572,o),
(450,1583,o),
(450,1595,cs),
(450,1623,o),
(479,1652,o),
(508,1652,cs),
(519,1652,o),
(528,1649,o),
(536,1642,cs),
(629,1562,o),
(742,1474,o),
(844,1406,cs),
(852,1401,o),
(854,1395,o)
);
},
{
closed = 1;
nodes = (
(310,0,ls),
(277,0,o),
(259,21,o),
(259,43,cs),
(259,64,o),
(276,86,o),
(309,86,cs),
(614,86,l),
(614,1085,l),
(309,1085,ls),
(276,1085,o),
(259,1106,o),
(259,1127,cs),
(259,1149,o),
(277,1171,o),
(310,1171,cs),
(995,1171,ls),
(1028,1171,o),
(1045,1149,o),
(1045,1127,cs),
(1045,1106,o),
(1029,1085,o),
(996,1085,cs),
(710,1085,l),
(710,86,l),
(996,86,ls),
(1029,86,o),
(1045,64,o),
(1045,43,cs),
(1045,21,o),
(1028,0,o),
(995,0,cs)
);
}
);
};
layerId = "840BD324-B0A6-42B0-BD23-CB5E8C19394F";
shapes = (
{
pos = (444,375);
ref = grave;
},
{
ref = I;
}
);
width = 1240;
}
);
unicode = 204;
},
{
glyphname = Iinvertedbreve;
lastChange = "2024-05-02 14:32:25 +0000";
layers = (
{
background = {
shapes = (
{
closed = 1;
nodes = (
(652,1470,cs),
(592,1470,o),
(533,1434,o),
(522,1366,c),
(518,1354,o),
(509,1350,o),
(499,1350,cs),
(483,1350,o),
(465,1362,o),
(465,1374,cs),
(465,1499,o),
(591,1528,o),
(652,1528,cs),
(713,1528,o),
(839,1499,o),
(839,1374,cs),
(839,1362,o),
(821,1350,o),
(805,1350,cs),
(795,1350,o),
(786,1354,o),
(782,1366,c),
(771,1434,o),
(712,1470,o)
);
},
{
closed = 1;
nodes = (
(310,0,ls),
(277,0,o),
(259,21,o),
(259,43,cs),
(259,64,o),
(276,86,o),
(309,86,cs),
(614,86,l),
(614,1085,l),
(309,1085,ls),
(276,1085,o),
(259,1106,o),
(259,1127,cs),
(259,1149,o),
(277,1171,o),
(310,1171,cs),
(995,1171,ls),
(1028,1171,o),
(1045,1149,o),
(1045,1127,cs),
(1045,1106,o),
(1029,1085,o),
(996,1085,cs),
(710,1085,l),
(710,86,l),
(996,86,ls),
(1029,86,o),
(1045,64,o),
(1045,43,cs),
(1045,21,o),
(1028,0,o),
(995,0,cs)
);
}
);
};
layerId = "840BD324-B0A6-42B0-BD23-CB5E8C19394F";
shapes = (
{
pos = (32,380);
ref = breveinvertedcomb;
},
{
ref = I;
}
);
width = 1240;
}
);
unicode = 522;
},
{
glyphname = Imacron;
lastChange = "2024-05-02 14:32:21 +0000";
layers = (
{
background = {
shapes = (
{
closed = 1;
nodes = (
(835,1350,cs),
(473,1350,ls),
(435,1350,o),
(422,1366,o),
(422,1393,cs),
(422,1420,o),
(438,1436,o),
(472,1436,cs),
(833,1436,ls),
(866,1436,o),
(882,1420,o),
(882,1393,cs),
(882,1366,o),
(868,1350,o)
);
},
{
closed = 1;
nodes = (
(310,0,ls),
(277,0,o),
(259,21,o),
(259,43,cs),
(259,64,o),
(276,86,o),
(309,86,cs),
(614,86,l),
(614,1085,l),
(309,1085,ls),
(276,1085,o),
(259,1106,o),
(259,1127,cs),
(259,1149,o),
(277,1171,o),
(310,1171,cs),
(995,1171,ls),
(1028,1171,o),
(1045,1149,o),
(1045,1127,cs),
(1045,1106,o),
(1029,1085,o),
(996,1085,cs),
(710,1085,l),
(710,86,l),
(996,86,ls),
(1029,86,o),
(1045,64,o),
(1045,43,cs),
(1045,21,o),
(1028,0,o),
(995,0,cs)
);
}
);
};
layerId = "840BD324-B0A6-42B0-BD23-CB5E8C19394F";
shapes = (
{
pos = (-48,317);
ref = macron;
},
{
ref = I;
}
);
width = 1240;
}
);
unicode = 298;
},
{
glyphname = Iogonek;
lastChange = "2024-05-02 14:32:21 +0000";
layers = (
{
background = {
shapes = (
{
closed = 1;
nodes = (
(555,-274,cs),
(555,-318,o),
(587,-322,o),
(619,-322,cs),
(642,-322,ls),
(664,-322,o),
(691,-317,o),
(691,-336,cs),
(691,-371,o),
(633,-413,o),
(569,-413,cs),
(506,-413,o),
(457,-384,o),
(457,-303,cs),
(457,-242,o),
(518,-80,o),
(632,14,c),
(673,14,ls),
(677,14,o),
(555,-202,o)
);
},
{
closed = 1;
nodes = (
(310,0,ls),
(277,0,o),
(259,21,o),
(259,43,cs),
(259,64,o),
(276,86,o),
(309,86,cs),
(614,86,l),
(614,1085,l),
(309,1085,ls),
(276,1085,o),
(259,1106,o),
(259,1127,cs),
(259,1149,o),
(277,1171,o),
(310,1171,cs),
(995,1171,ls),
(1028,1171,o),
(1045,1149,o),
(1045,1127,cs),
(1045,1106,o),
(1029,1085,o),
(996,1085,cs),
(710,1085,l),
(710,86,l),
(996,86,ls),
(1029,86,o),
(1045,64,o),
(1045,43,cs),
(1045,21,o),
(1028,0,o),
(995,0,cs)
);
}
);
};
layerId = "840BD324-B0A6-42B0-BD23-CB5E8C19394F";
shapes = (
{
pos = (-46,-6);
ref = ogonek;
},
{
ref = I;
}
);
width = 1240;
}
);
unicode = 302;
},
{
glyphname = Itilde;
lastChange = "2024-05-02 14:32:21 +0000";
layers = (
{
background = {
shapes = (
{
closed = 1;
nodes = (
(525,1528,cs),
(530,1528,o),
(535,1527,o),
(541,1526,cs),
(611,1513,o),
(731,1429,o),
(773,1429,cs),
(804,1429,o),
(820,1472,o),
(838,1505,cs),
(841,1511,o),
(848,1513,o),
(855,1513,cs),
(876,1513,o),
(907,1494,o),
(903,1475,c),
(883,1423,o),
(845,1350,o),
(777,1350,cs),
(769,1350,o),
(759,1352,o),
(750,1354,cs),
(672,1374,o),
(589,1435,o),
(536,1447,cs),
(533,1448,o),
(530,1448,o),
(527,1448,cs),
(501,1448,o),
(482,1422,o),
(464,1380,cs),
(460,1372,o),
(452,1368,o),
(442,1368,cs),
(424,1368,o),
(401,1380,o),
(401,1396,cs),
(401,1454,o),
(464,1528,o)
);
},
{
closed = 1;
nodes = (
(310,0,ls),
(277,0,o),
(259,21,o),
(259,43,cs),
(259,64,o),
(276,86,o),
(309,86,cs),
(614,86,l),
(614,1085,l),
(309,1085,ls),
(276,1085,o),
(259,1106,o),
(259,1127,cs),
(259,1149,o),
(277,1171,o),
(310,1171,cs),
(995,1171,ls),
(1028,1171,o),
(1045,1149,o),
(1045,1127,cs),
(1045,1106,o),
(1029,1085,o),
(996,1085,cs),
(710,1085,l),
(710,86,l),
(996,86,ls),
(1029,86,o),
(1045,64,o),
(1045,43,cs),
(1045,21,o),
(1028,0,o),
(995,0,cs)
);
}
);
};
layerId = "840BD324-B0A6-42B0-BD23-CB5E8C19394F";
shapes = (
{
pos = (-8,373);
ref = tilde;
},
{
ref = I;
}
);
width = 1240;
}
);
unicode = 296;
},
{
glyphname = J;
lastChange = "2024-05-02 14:32:13 +0000";
layers = (
{
background = {
shapes = (
{
closed = 1;
nodes = (
(855,317,ls),
(855,84,o),
(644,-13,o),
(451,-13,cs),
(288,-13,o),
(138,56,o),
(138,171,cs),
(138,283,ls),
(138,312,o),
(163,328,o),
(187,328,cs),
(211,328,o),
(234,313,o),
(234,283,cs),
(234,182,ls),
(234,114,o),
(342,68,o),
(460,68,cs),
(602,68,o),
(759,135,o),
(759,314,cs),
(759,1085,l),
(409,1085,ls),
(377,1085,o),
(361,1106,o),
(361,1127,cs),
(361,1149,o),
(377,1171,o),
(410,1171,cs),
(1025,1171,ls),
(1058,1171,o),
(1075,1150,o),
(1075,1128,cs),
(1075,1107,o),
(1059,1085,o),
(1026,1085,cs),
(855,1085,l)
);
}
);
};
layerId = "840BD324-B0A6-42B0-BD23-CB5E8C19394F";
shapes = (
{
closed = 1;
nodes = (
(855,317,ls),
(855,84,o),
(644,-13,o),
(451,-13,cs),
(288,-13,o),
(138,56,o),
(138,171,cs),
(138,283,ls),
(138,312,o),
(163,328,o),
(187,328,cs),
(211,328,o),
(234,313,o),
(234,283,cs),
(234,182,ls),
(234,114,o),
(342,68,o),
(460,68,cs),
(602,68,o),
(759,135,o),
(759,314,cs),
(759,1085,l),
(409,1085,ls),
(377,1085,o),
(361,1106,o),
(361,1127,cs),
(361,1149,o),
(377,1171,o),
(410,1171,cs),
(1025,1171,ls),
(1058,1171,o),
(1075,1150,o),
(1075,1128,cs),
(1075,1107,o),
(1059,1085,o),
(1026,1085,cs),
(855,1085,l)
);
}
);
width = 1240;
}
);
unicode = 74;
},
{
glyphname = Jcircumflex;
lastChange = "2024-05-02 14:32:21 +0000";
layers = (
{
background = {
shapes = (
{
closed = 1;
nodes = (
(606,1691,cs),
(619,1691,o),
(633,1687,o),
(638,1679,cs),
(822,1396,l),
(827,1391,o),
(829,1384,o),
(829,1379,cs),
(829,1363,o),
(810,1350,o),
(792,1350,cs),
(784,1350,o),
(774,1351,o),
(769,1359,cs),
(606,1568,l),
(444,1359,ls),
(439,1351,o),
(429,1350,o),
(421,1350,cs),
(403,1350,o),
(384,1363,o),
(384,1379,cs),
(384,1384,o),
(386,1391,o),
(391,1396,c),
(575,1679,ls),
(580,1687,o),
(593,1691,o)
);
},
{
closed = 1;
nodes = (
(855,317,ls),
(855,84,o),
(644,-13,o),
(451,-13,cs),
(288,-13,o),
(138,56,o),
(138,171,cs),
(138,283,ls),
(138,312,o),
(163,328,o),
(187,328,cs),
(211,328,o),
(234,313,o),
(234,283,cs),
(234,182,ls),
(234,114,o),
(342,68,o),
(460,68,cs),
(602,68,o),
(759,135,o),
(759,314,cs),
(759,1085,l),
(409,1085,ls),
(377,1085,o),
(361,1106,o),
(361,1127,cs),
(361,1149,o),
(377,1171,o),
(410,1171,cs),
(1025,1171,ls),
(1058,1171,o),
(1075,1150,o),
(1075,1128,cs),
(1075,1107,o),
(1059,1085,o),
(1026,1085,cs),
(855,1085,l)
);
}
);
};
layerId = "840BD324-B0A6-42B0-BD23-CB5E8C19394F";
shapes = (
{
pos = (-93,371);
ref = circumflex;
},
{
ref = J;
}
);
width = 1240;
}
);
unicode = 308;
},
{
glyphname = K;
lastChange = "2024-05-02 14:32:13 +0000";
layers = (
{
background = {
shapes = (
{
closed = 1;
nodes = (
(84,0,ls),
(50,0,o),
(33,21,o),
(33,43,cs),
(33,64,o),
(50,86,o),
(83,86,cs),
(242,86,l),
(242,1084,l),
(83,1084,ls),
(50,1084,o),
(33,1105,o),
(33,1127,cs),
(33,1149,o),
(50,1171,o),
(84,1171,cs),
(529,1171,ls),
(562,1171,o),
(579,1148,o),
(579,1126,cs),
(579,1105,o),
(564,1084,o),
(531,1084,cs),
(338,1084,l),
(338,558,l),
(914,1078,ls),
(917,1081,o),
(921,1085,o),
(921,1088,cs),
(921,1091,o),
(917,1094,o),
(902,1094,cs),
(813,1094,ls),
(780,1094,o),
(764,1112,o),
(764,1131,cs),
(764,1151,o),
(782,1171,o),
(814,1171,cs),
(1176,1171,ls),
(1209,1171,o),
(1225,1149,o),
(1225,1127,cs),
(1225,1105,o),
(1209,1084,o),
(1177,1084,cs),
(1039,1084,l),
(601,676,l),
(1122,86,l),
(1259,86,ls),
(1291,86,o),
(1307,64,o),
(1307,43,cs),
(1307,21,o),
(1291,0,o),
(1258,0,cs),
(840,0,ls),
(807,0,o),
(790,21,o),
(790,43,cs),
(790,64,o),
(806,86,o),
(839,86,cs),
(1005,86,l),
(527,621,l),
(342,465,l),
(342,86,l),
(586,86,ls),
(619,86,o),
(635,64,o),
(635,43,cs),
(635,21,o),
(618,0,o),
(585,0,cs)
);
}
);
};
layerId = "840BD324-B0A6-42B0-BD23-CB5E8C19394F";
shapes = (
{
closed = 1;
nodes = (
(84,0,ls),
(50,0,o),
(33,21,o),
(33,43,cs),
(33,64,o),
(50,86,o),
(83,86,cs),
(242,86,l),
(242,1084,l),
(83,1084,ls),
(50,1084,o),
(33,1105,o),
(33,1127,cs),
(33,1149,o),
(50,1171,o),
(84,1171,cs),
(529,1171,ls),
(562,1171,o),
(579,1148,o),
(579,1126,cs),
(579,1105,o),
(564,1084,o),
(531,1084,cs),
(338,1084,l),
(338,558,l),
(914,1078,ls),
(917,1081,o),
(921,1085,o),
(921,1088,cs),
(921,1091,o),
(917,1094,o),
(902,1094,cs),
(813,1094,ls),
(780,1094,o),
(764,1112,o),
(764,1131,cs),
(764,1151,o),
(782,1171,o),
(814,1171,cs),
(1176,1171,ls),
(1209,1171,o),
(1225,1149,o),
(1225,1127,cs),
(1225,1105,o),
(1209,1084,o),
(1177,1084,cs),
(1039,1084,l),
(601,676,l),
(1122,86,l),
(1259,86,ls),
(1291,86,o),
(1307,64,o),
(1307,43,cs),
(1307,21,o),
(1291,0,o),
(1258,0,cs),
(840,0,ls),
(807,0,o),
(790,21,o),
(790,43,cs),
(790,64,o),
(806,86,o),
(839,86,cs),
(1005,86,l),
(527,621,l),
(342,465,l),
(342,86,l),
(586,86,ls),
(619,86,o),
(635,64,o),
(635,43,cs),
(635,21,o),
(618,0,o),
(585,0,cs)
);
}
);
width = 1240;
}
);
unicode = 75;
},
{
glyphname = Kcommaaccent;
lastChange = "2024-05-02 14:32:21 +0000";
layers = (
{
background = {
shapes = (
{
closed = 1;
nodes = (
(679,-163,cs),
(739,-163,o),
(781,-192,o),
(781,-272,cs),
(781,-388,o),
(678,-498,o),
(596,-539,cs),
(593,-541,o),
(589,-541,o),
(586,-541,cs),
(572,-541,o),
(558,-528,o),
(558,-514,cs),
(558,-507,o),
(562,-499,o),
(570,-493,cs),
(613,-462,o),
(693,-401,o),
(693,-339,c),
(634,-339,o),
(587,-313,o),
(587,-248,cs),
(587,-184,o),
(632,-163,o)
);
},
{
closed = 1;
nodes = (
(84,0,ls),
(50,0,o),
(33,21,o),
(33,43,cs),
(33,64,o),
(50,86,o),
(83,86,cs),
(242,86,l),
(242,1084,l),
(83,1084,ls),
(50,1084,o),
(33,1105,o),
(33,1127,cs),
(33,1149,o),
(50,1171,o),
(84,1171,cs),
(529,1171,ls),
(562,1171,o),
(579,1148,o),
(579,1126,cs),
(579,1105,o),
(564,1084,o),
(531,1084,cs),
(338,1084,l),
(338,558,l),
(914,1078,ls),
(917,1081,o),
(921,1085,o),
(921,1088,cs),
(921,1091,o),
(917,1094,o),
(902,1094,cs),
(813,1094,ls),
(780,1094,o),
(764,1112,o),
(764,1131,cs),
(764,1151,o),
(782,1171,o),
(814,1171,cs),
(1176,1171,ls),
(1209,1171,o),
(1225,1149,o),
(1225,1127,cs),
(1225,1105,o),
(1209,1084,o),
(1177,1084,cs),
(1039,1084,l),
(601,676,l),
(1122,86,l),
(1259,86,ls),
(1291,86,o),
(1307,64,o),
(1307,43,cs),
(1307,21,o),
(1291,0,o),
(1258,0,cs),
(840,0,ls),
(807,0,o),
(790,21,o),
(790,43,cs),
(790,64,o),
(806,86,o),
(839,86,cs),
(1005,86,l),
(527,621,l),
(342,465,l),
(342,86,l),
(586,86,ls),
(619,86,o),
(635,64,o),
(635,43,cs),
(635,21,o),
(618,0,o),
(585,0,cs)
);
}
);
};
layerId = "840BD324-B0A6-42B0-BD23-CB5E8C19394F";
shapes = (
{
pos = (20,-331);
ref = commaaccentcomb;
},
{
ref = K;
}
);
width = 1240;
}
);
unicode = 310;
},
{
glyphname = L;
lastChange = "2024-05-02 14:32:13 +0000";
layers = (
{
background = {
shapes = (
{
closed = 1;
nodes = (
(640,1171,ls),
(674,1171,o),
(691,1149,o),
(691,1127,cs),
(691,1106,o),
(674,1085,o),
(641,1085,cs),
(489,1085,l),
(489,86,l),
(946,86,l),
(968,88,o),
(984,92,o),
(987,123,cs),
(1021,399,ls),
(1025,428,o),
(1048,442,o),
(1071,442,cs),
(1097,442,o),
(1122,425,o),
(1122,393,cs),
(1122,387,l),
(1092,66,l),
(1087,29,o),
(1063,0,o),
(1020,0,cs),
(125,0,ls),
(91,0,o),
(74,21,o),
(74,43,cs),
(74,64,o),
(91,86,o),
(124,86,cs),
(393,86,l),
(393,1085,l),
(166,1085,ls),
(133,1085,o),
(117,1106,o),
(117,1127,cs),
(117,1149,o),
(134,1171,o),
(167,1171,cs)
);
}
);
};
layerId = "840BD324-B0A6-42B0-BD23-CB5E8C19394F";
shapes = (
{
closed = 1;
nodes = (
(640,1171,ls),
(674,1171,o),
(691,1149,o),
(691,1127,cs),
(691,1106,o),
(674,1085,o),
(641,1085,cs),
(489,1085,l),
(489,86,l),
(946,86,l),
(968,88,o),
(984,92,o),
(987,123,cs),
(1021,399,ls),
(1025,428,o),
(1048,442,o),
(1071,442,cs),
(1097,442,o),
(1122,425,o),
(1122,393,cs),
(1122,387,l),
(1092,66,l),
(1087,29,o),
(1063,0,o),
(1020,0,cs),
(125,0,ls),
(91,0,o),
(74,21,o),
(74,43,cs),
(74,64,o),
(91,86,o),
(124,86,cs),
(393,86,l),
(393,1085,l),
(166,1085,ls),
(133,1085,o),
(117,1106,o),
(117,1127,cs),
(117,1149,o),
(134,1171,o),
(167,1171,cs)
);
}
);
width = 1240;
}
);
unicode = 76;
},
{
glyphname = LJ;
lastChange = "2024-05-02 14:32:25 +0000";
layers = (
{
background = {
shapes = (
{
closed = 1;
nodes = (
(349,1171,ls),
(383,1171,o),
(400,1149,o),
(400,1127,cs),
(400,1106,o),
(383,1085,o),
(350,1085,cs),
(198,1085,l),
(198,86,l),
(475,86,ls),
(483,86,o),
(482,88,o),
(483,99,cs),
(490,389,l),
(494,418,o),
(517,432,o),
(540,432,cs),
(566,432,o),
(591,415,o),
(591,383,cs),
(591,66,l),
(586,29,o),
(562,0,o),
(519,0,cs),
(64,0,ls),
(30,0,o),
(13,21,o),
(13,43,cs),
(13,64,o),
(30,86,o),
(63,86,cs),
(102,86,l),
(102,1085,l),
(55,1085,ls),
(22,1085,o),
(6,1106,o),
(6,1127,cs),
(6,1149,o),
(23,1171,o),
(56,1171,cs)
);
},
{
closed = 1;
nodes = (
(1154,367,ls),
(1154,72,o),
(1083,-13,o),
(890,-13,cs),
(758,-13,o),
(677,56,o),
(677,171,cs),
(677,283,ls),
(677,312,o),
(702,328,o),
(726,328,cs),
(750,328,o),
(773,313,o),
(773,283,cs),
(773,170,ls),
(773,102,o),
(811,68,o),
(899,68,cs),
(1030,68,o),
(1058,134,o),
(1058,364,cs),
(1058,1085,l),
(778,1085,ls),
(746,1085,o),
(730,1106,o),
(730,1127,cs),
(730,1149,o),
(746,1171,o),
(779,1171,cs),
(1224,1171,ls),
(1257,1171,o),
(1274,1150,o),
(1274,1128,cs),
(1274,1107,o),
(1258,1085,o),
(1225,1085,cs),
(1154,1085,l)
);
}
);
};
layerId = "840BD324-B0A6-42B0-BD23-CB5E8C19394F";
shapes = (
{
closed = 1;
nodes = (
(349,1171,ls),
(383,1171,o),
(400,1149,o),
(400,1127,cs),
(400,1106,o),
(383,1085,o),
(350,1085,cs),
(198,1085,l),
(198,86,l),
(475,86,ls),
(483,86,o),
(482,88,o),
(483,99,cs),
(490,389,l),
(494,418,o),
(517,432,o),
(540,432,cs),
(566,432,o),
(591,415,o),
(591,383,cs),
(591,66,l),
(586,29,o),
(562,0,o),
(519,0,cs),
(64,0,ls),
(30,0,o),
(13,21,o),
(13,43,cs),
(13,64,o),
(30,86,o),
(63,86,cs),
(102,86,l),
(102,1085,l),
(55,1085,ls),
(22,1085,o),
(6,1106,o),
(6,1127,cs),
(6,1149,o),
(23,1171,o),
(56,1171,cs)
);
},
{
closed = 1;
nodes = (
(1154,367,ls),
(1154,72,o),
(1083,-13,o),
(890,-13,cs),
(758,-13,o),
(677,56,o),
(677,171,cs),
(677,283,ls),
(677,312,o),
(702,328,o),
(726,328,cs),
(750,328,o),
(773,313,o),
(773,283,cs),
(773,170,ls),
(773,102,o),
(811,68,o),
(899,68,cs),
(1030,68,o),
(1058,134,o),
(1058,364,cs),
(1058,1085,l),
(778,1085,ls),
(746,1085,o),
(730,1106,o),
(730,1127,cs),
(730,1149,o),
(746,1171,o),
(779,1171,cs),
(1224,1171,ls),
(1257,1171,o),
(1274,1150,o),
(1274,1128,cs),
(1274,1107,o),
(1258,1085,o),
(1225,1085,cs),
(1154,1085,l)
);
}
);
width = 1240;
}
);
unicode = 455;
},
{
glyphname = Lacute;
lastChange = "2024-05-02 14:32:21 +0000";
layers = (
{
background = {
shapes = (
{
closed = 1;
nodes = (
(769,1588,cs),
(447,1354,ls),
(444,1351,o),
(440,1350,o),
(436,1350,cs),
(424,1350,o),
(412,1360,o),
(412,1372,cs),
(412,1377,o),
(414,1382,o),
(419,1387,cs),
(690,1663,ls),
(700,1673,o),
(710,1677,o),
(721,1677,cs),
(752,1677,o),
(783,1644,o),
(783,1616,cs),
(783,1606,o),
(779,1595,o)
);
},
{
closed = 1;
nodes = (
(640,1171,ls),
(674,1171,o),
(691,1149,o),
(691,1127,cs),
(691,1106,o),
(674,1085,o),
(641,1085,cs),
(489,1085,l),
(489,86,l),
(946,86,l),
(968,88,o),
(984,92,o),
(987,123,cs),
(1021,399,ls),
(1025,428,o),
(1048,442,o),
(1071,442,cs),
(1097,442,o),
(1122,425,o),
(1122,393,cs),
(1122,387,l),
(1092,66,l),
(1087,29,o),
(1063,0,o),
(1020,0,cs),
(125,0,ls),
(91,0,o),
(74,21,o),
(74,43,cs),
(74,64,o),
(91,86,o),
(124,86,cs),
(393,86,l),
(393,1085,l),
(166,1085,ls),
(133,1085,o),
(117,1106,o),
(117,1127,cs),
(117,1149,o),
(134,1171,o),
(167,1171,cs)
);
}
);
};
layerId = "840BD324-B0A6-42B0-BD23-CB5E8C19394F";
shapes = (
{
pos = (-89,372);
ref = acute;
},
{
ref = L;
}
);
width = 1240;
}
);
unicode = 313;
},
{
glyphname = Lcaron;
lastChange = "2024-05-02 14:32:21 +0000";
layers = (
{
background = {
shapes = (
{
closed = 1;
nodes = (
(1477,1187,cs),
(1537,1187,o),
(1589,1146,o),
(1589,1066,cs),
(1589,950,o),
(1486,840,o),
(1404,799,cs),
(1401,797,o),
(1397,797,o),
(1394,797,cs),
(1380,797,o),
(1366,810,o),
(1366,824,cs),
(1366,831,o),
(1370,839,o),
(1378,845,cs),
(1421,876,o),
(1487,937,o),
(1487,999,c),
(1428,999,o),
(1379,1027,o),
(1379,1092,cs),
(1379,1156,o),
(1430,1187,o)
);
},
{
closed = 1;
nodes = (
(640,1171,ls),
(674,1171,o),
(691,1149,o),
(691,1127,cs),
(691,1106,o),
(674,1085,o),
(641,1085,cs),
(489,1085,l),
(489,86,l),
(946,86,l),
(968,88,o),
(984,92,o),
(987,123,cs),
(1021,399,ls),
(1025,428,o),
(1048,442,o),
(1071,442,cs),
(1097,442,o),
(1122,425,o),
(1122,393,cs),
(1122,387,l),
(1092,66,l),
(1087,29,o),
(1063,0,o),
(1020,0,cs),
(125,0,ls),
(91,0,o),
(74,21,o),
(74,43,cs),
(74,64,o),
(91,86,o),
(124,86,cs),
(393,86,l),
(393,1085,l),
(166,1085,ls),
(133,1085,o),
(117,1106,o),
(117,1127,cs),
(117,1149,o),
(134,1171,o),
(167,1171,cs)
);
}
);
};
layerId = "840BD324-B0A6-42B0-BD23-CB5E8C19394F";
shapes = (
{
pos = (861,1007);
ref = comma;
},
{
ref = L;
}
);
width = 1240;
}
);
unicode = 317;
},
{
glyphname = Lcommaaccent;
lastChange = "2024-05-02 14:32:21 +0000";
layers = (
{
background = {
shapes = (
{
closed = 1;
nodes = (
(607,-163,cs),
(667,-163,o),
(709,-192,o),
(709,-272,cs),
(709,-388,o),
(606,-498,o),
(524,-539,cs),
(521,-541,o),
(517,-541,o),
(514,-541,cs),
(500,-541,o),
(486,-528,o),
(486,-514,cs),
(486,-507,o),
(490,-499,o),
(498,-493,cs),
(541,-462,o),
(621,-401,o),
(621,-339,c),
(562,-339,o),
(515,-313,o),
(515,-248,cs),
(515,-184,o),
(560,-163,o)
);
},
{
closed = 1;
nodes = (
(640,1171,ls),
(674,1171,o),
(691,1149,o),
(691,1127,cs),
(691,1106,o),
(674,1085,o),
(641,1085,cs),
(489,1085,l),
(489,86,l),
(946,86,l),
(968,88,o),
(984,92,o),
(987,123,cs),
(1021,399,ls),
(1025,428,o),
(1048,442,o),
(1071,442,cs),
(1097,442,o),
(1122,425,o),
(1122,393,cs),
(1122,387,l),
(1092,66,l),
(1087,29,o),
(1063,0,o),
(1020,0,cs),
(125,0,ls),
(91,0,o),
(74,21,o),
(74,43,cs),
(74,64,o),
(91,86,o),
(124,86,cs),
(393,86,l),
(393,1085,l),
(166,1085,ls),
(133,1085,o),
(117,1106,o),
(117,1127,cs),
(117,1149,o),
(134,1171,o),
(167,1171,cs)
);
}
);
};
layerId = "840BD324-B0A6-42B0-BD23-CB5E8C19394F";
shapes = (
{
pos = (-52,-331);
ref = commaaccentcomb;
},
{
ref = L;
}
);
width = 1240;
}
);
unicode = 315;
},
{
glyphname = Ldot;
lastChange = "2024-05-02 14:32:21 +0000";
layers = (
{
background = {
shapes = (
{
closed = 1;
nodes = (
(821,776,cs),
(867,776,o),
(903,739,o),
(903,693,cs),
(903,647,o),
(867,611,o),
(821,611,cs),
(775,611,o),
(738,647,o),
(738,693,cs),
(738,739,o),
(775,776,o)
);
},
{
closed = 1;
nodes = (
(640,1171,ls),
(674,1171,o),
(691,1149,o),
(691,1127,cs),
(691,1106,o),
(674,1085,o),
(641,1085,cs),
(489,1085,l),
(489,86,l),
(946,86,l),
(968,88,o),
(984,92,o),
(987,123,cs),
(1021,399,ls),
(1025,428,o),
(1048,442,o),
(1071,442,cs),
(1097,442,o),
(1122,425,o),
(1122,393,cs),
(1122,387,l),
(1092,66,l),
(1087,29,o),
(1063,0,o),
(1020,0,cs),
(125,0,ls),
(91,0,o),
(74,21,o),
(74,43,cs),
(74,64,o),
(91,86,o),
(124,86,cs),
(393,86,l),
(393,1085,l),
(166,1085,ls),
(133,1085,o),
(117,1106,o),
(117,1127,cs),
(117,1149,o),
(134,1171,o),
(167,1171,cs)
);
}
);
};
layerId = "840BD324-B0A6-42B0-BD23-CB5E8C19394F";
shapes = (
{
pos = (122,96);
ref = periodcentered;
},
{
ref = L;
}
);
width = 1240;
}
);
unicode = 319;
},
{
glyphname = Lj;
lastChange = "2024-05-02 14:32:25 +0000";
layers = (
{
background = {
shapes = (
{
closed = 1;
nodes = (
(1022,1171,cs),
(1068,1171,o),
(1104,1134,o),
(1104,1088,cs),
(1104,1042,o),
(1068,1006,o),
(1022,1006,cs),
(976,1006,o),
(939,1042,o),
(939,1088,cs),
(939,1134,o),
(976,1171,o)
);
},
{
closed = 1;
nodes = (
(464,1171,ls),
(498,1171,o),
(515,1149,o),
(515,1127,cs),
(515,1106,o),
(498,1085,o),
(465,1085,cs),
(353,1085,l),
(353,86,l),
(645,86,l),
(667,88,o),
(683,92,o),
(686,123,cs),
(720,399,ls),
(724,428,o),
(747,442,o),
(770,442,cs),
(796,442,o),
(821,425,o),
(821,393,cs),
(821,387,l),
(791,66,l),
(786,29,o),
(762,0,o),
(719,0,cs),
(113,0,ls),
(79,0,o),
(62,21,o),
(62,43,cs),
(62,64,o),
(79,86,o),
(112,86,cs),
(257,86,l),
(257,1085,l),
(154,1085,ls),
(121,1085,o),
(105,1106,o),
(105,1127,cs),
(105,1149,o),
(122,1171,o),
(155,1171,cs)
);
},
{
closed = 1;
nodes = (
(728,-309,cs),
(695,-309,o),
(677,-287,o),
(677,-265,cs),
(677,-243,o),
(696,-220,o),
(735,-220,cs),
(910,-220,o),
(1020,-155,o),
(1020,0,cs),
(1020,732,l),
(754,732,ls),
(725,732,o),
(710,754,o),
(710,775,cs),
(710,795,o),
(724,814,o),
(750,814,cs),
(1080,814,ls),
(1100,814,o),
(1116,806,o),
(1116,785,cs),
(1116,-10,ls),
(1116,-198,o),
(973,-309,o)
);
}
);
};
layerId = "840BD324-B0A6-42B0-BD23-CB5E8C19394F";
shapes = (
{
closed = 1;
nodes = (
(1022,1171,cs),
(1068,1171,o),
(1104,1134,o),
(1104,1088,cs),
(1104,1042,o),
(1068,1006,o),
(1022,1006,cs),
(976,1006,o),
(939,1042,o),
(939,1088,cs),
(939,1134,o),
(976,1171,o)
);
},
{
closed = 1;
nodes = (
(464,1171,ls),
(498,1171,o),
(515,1149,o),
(515,1127,cs),
(515,1106,o),
(498,1085,o),
(465,1085,cs),
(353,1085,l),
(353,86,l),
(645,86,l),
(667,88,o),
(683,92,o),
(686,123,cs),
(720,399,ls),
(724,428,o),
(747,442,o),
(770,442,cs),
(796,442,o),
(821,425,o),
(821,393,cs),
(821,387,l),
(791,66,l),
(786,29,o),
(762,0,o),
(719,0,cs),
(113,0,ls),
(79,0,o),
(62,21,o),
(62,43,cs),
(62,64,o),
(79,86,o),
(112,86,cs),
(257,86,l),
(257,1085,l),
(154,1085,ls),
(121,1085,o),
(105,1106,o),
(105,1127,cs),
(105,1149,o),
(122,1171,o),
(155,1171,cs)
);
},
{
closed = 1;
nodes = (
(728,-309,cs),
(695,-309,o),
(677,-287,o),
(677,-265,cs),
(677,-243,o),
(696,-220,o),
(735,-220,cs),
(910,-220,o),
(1020,-155,o),
(1020,0,cs),
(1020,732,l),
(754,732,ls),
(725,732,o),
(710,754,o),
(710,775,cs),
(710,795,o),
(724,814,o),
(750,814,cs),
(1080,814,ls),
(1100,814,o),
(1116,806,o),
(1116,785,cs),
(1116,-10,ls),
(1116,-198,o),
(973,-309,o)
);
}
);
width = 1240;
}
);
unicode = 456;
},
{
glyphname = Lslash;
lastChange = "2024-05-02 14:32:21 +0000";
layers = (
{
background = {
shapes = (
{
closed = 1;
nodes = (
(777,768,cs),
(802,768,o),
(818,750,o),
(818,722,cs),
(818,703,o),
(806,692,o),
(780,685,cs),
(245,551,ls),
(237,549,o),
(229,548,o),
(223,548,cs),
(198,548,o),
(183,566,o),
(183,594,cs),
(183,613,o),
(196,627,o),
(223,634,cs),
(758,765,ls),
(765,767,o),
(771,768,o)
);
},
{
closed = 1;
nodes = (
(640,1171,ls),
(674,1171,o),
(691,1149,o),
(691,1127,cs),
(691,1106,o),
(674,1085,o),
(641,1085,cs),
(489,1085,l),
(489,86,l),
(946,86,l),
(968,88,o),
(984,92,o),
(987,123,cs),
(1021,399,ls),
(1025,428,o),
(1048,442,o),
(1071,442,cs),
(1097,442,o),
(1122,425,o),
(1122,393,cs),
(1122,387,l),
(1092,66,l),
(1087,29,o),
(1063,0,o),
(1020,0,cs),
(125,0,ls),
(91,0,o),
(74,21,o),
(74,43,cs),
(74,64,o),
(91,86,o),
(124,86,cs),
(393,86,l),
(393,1085,l),
(166,1085,ls),
(133,1085,o),
(117,1106,o),
(117,1127,cs),
(117,1149,o),
(134,1171,o),
(167,1171,cs)
);
}
);
};
layerId = "840BD324-B0A6-42B0-BD23-CB5E8C19394F";
shapes = (
{
closed = 1;
nodes = (
(777,768,cs),
(802,768,o),
(818,750,o),
(818,722,cs),
(818,703,o),
(806,692,o),
(780,685,cs),
(245,551,ls),
(237,549,o),
(229,548,o),
(223,548,cs),
(198,548,o),
(183,566,o),
(183,594,cs),
(183,613,o),
(196,627,o),
(223,634,cs),
(758,765,ls),
(765,767,o),
(771,768,o)
);
},
{
ref = L;
}
);
width = 1240;
}
);
unicode = 321;
},
{
glyphname = M;
lastChange = "2024-05-02 14:32:13 +0000";
layers = (
{
background = {
shapes = (
{
closed = 1;
nodes = (
(817,0,ls),
(783,0,o),
(766,22,o),
(766,44,cs),
(766,65,o),
(782,86,o),
(815,86,cs),
(948,86,l),
(948,982,l),
(691,390,ls),
(677,358,o),
(651,342,o),
(625,342,cs),
(601,342,o),
(578,355,o),
(565,385,cs),
(298,978,l),
(298,86,l),
(418,86,ls),
(452,86,o),
(468,65,o),
(468,44,cs),
(468,22,o),
(451,0,o),
(417,0,cs),
(70,0,ls),
(37,0,o),
(20,21,o),
(20,43,cs),
(20,64,o),
(36,86,o),
(69,86,cs),
(202,86,l),
(202,1085,l),
(83,1085,ls),
(50,1085,o),
(34,1106,o),
(34,1127,cs),
(34,1149,o),
(51,1171,o),
(84,1171,cs),
(282,1171,ls),
(306,1171,o),
(320,1154,o),
(328,1136,cs),
(629,473,l),
(919,1141,ls),
(926,1158,o),
(942,1171,o),
(964,1171,cs),
(1156,1171,ls),
(1190,1171,o),
(1207,1149,o),
(1207,1127,cs),
(1207,1106,o),
(1190,1085,o),
(1157,1085,cs),
(1044,1085,l),
(1044,86,l),
(1172,86,ls),
(1204,86,o),
(1220,65,o),
(1220,44,cs),
(1220,22,o),
(1203,0,o),
(1170,0,cs)
);
}
);
};
layerId = "840BD324-B0A6-42B0-BD23-CB5E8C19394F";
shapes = (
{
closed = 1;
nodes = (
(817,0,ls),
(783,0,o),
(766,22,o),
(766,44,cs),
(766,65,o),
(782,86,o),
(815,86,cs),
(948,86,l),
(948,982,l),
(691,390,ls),
(677,358,o),
(651,342,o),
(625,342,cs),
(601,342,o),
(578,355,o),
(565,385,cs),
(298,978,l),
(298,86,l),
(418,86,ls),
(452,86,o),
(468,65,o),
(468,44,cs),
(468,22,o),
(451,0,o),
(417,0,cs),
(70,0,ls),
(37,0,o),
(20,21,o),
(20,43,cs),
(20,64,o),
(36,86,o),
(69,86,cs),
(202,86,l),
(202,1085,l),
(83,1085,ls),
(50,1085,o),
(34,1106,o),
(34,1127,cs),
(34,1149,o),
(51,1171,o),
(84,1171,cs),
(282,1171,ls),
(306,1171,o),
(320,1154,o),
(328,1136,cs),
(629,473,l),
(919,1141,ls),
(926,1158,o),
(942,1171,o),
(964,1171,cs),
(1156,1171,ls),
(1190,1171,o),
(1207,1149,o),
(1207,1127,cs),
(1207,1106,o),
(1190,1085,o),
(1157,1085,cs),
(1044,1085,l),
(1044,86,l),
(1172,86,ls),
(1204,86,o),
(1220,65,o),
(1220,44,cs),
(1220,22,o),
(1203,0,o),
(1170,0,cs)
);
}
);
width = 1240;
}
);
unicode = 77;
},
{
glyphname = Mdotaccent;
lastChange = "2024-05-02 14:32:25 +0000";
layers = (
{
background = {
shapes = (
{
closed = 1;
nodes = (
(620,1474,cs),
(666,1474,o),
(702,1437,o),
(702,1391,cs),
(702,1345,o),
(666,1309,o),
(620,1309,cs),
(574,1309,o),
(537,1345,o),
(537,1391,cs),
(537,1437,o),
(574,1474,o)
);
},
{
closed = 1;
nodes = (
(817,0,ls),
(783,0,o),
(766,22,o),
(766,44,cs),
(766,65,o),
(782,86,o),
(815,86,cs),
(948,86,l),
(948,982,l),
(691,390,ls),
(677,358,o),
(651,342,o),
(625,342,cs),
(601,342,o),
(578,355,o),
(565,385,cs),
(298,978,l),
(298,86,l),
(418,86,ls),
(452,86,o),
(468,65,o),
(468,44,cs),
(468,22,o),
(451,0,o),
(417,0,cs),
(70,0,ls),
(37,0,o),
(20,21,o),
(20,43,cs),
(20,64,o),
(36,86,o),
(69,86,cs),
(202,86,l),
(202,1085,l),
(83,1085,ls),
(50,1085,o),
(34,1106,o),
(34,1127,cs),
(34,1149,o),
(51,1171,o),
(84,1171,cs),
(282,1171,ls),
(306,1171,o),
(320,1154,o),
(328,1136,cs),
(629,473,l),
(919,1141,ls),
(926,1158,o),
(942,1171,o),
(964,1171,cs),
(1156,1171,ls),
(1190,1171,o),
(1207,1149,o),
(1207,1127,cs),
(1207,1106,o),
(1190,1085,o),
(1157,1085,cs),
(1044,1085,l),
(1044,86,l),
(1172,86,ls),
(1204,86,o),
(1220,65,o),
(1220,44,cs),
(1220,22,o),
(1203,0,o),
(1170,0,cs)
);
}
);
};
layerId = "840BD324-B0A6-42B0-BD23-CB5E8C19394F";
shapes = (
{
pos = (-24,661);
ref = dotaccentcomb;
},
{
ref = M;
}
);
width = 1240;
}
);
unicode = 7744;
},
{
glyphname = N;
lastChange = "2024-05-02 14:32:13 +0000";
layers = (
{
background = {
shapes = (
{
closed = 1;
nodes = (
(129,1085,ls),
(96,1085,o),
(80,1106,o),
(80,1127,cs),
(80,1149,o),
(97,1171,o),
(130,1171,cs),
(417,1171,ls),
(439,1171,o),
(449,1163,o),
(457,1147,cs),
(943,194,l),
(943,1085,l),
(794,1085,ls),
(761,1085,o),
(745,1106,o),
(745,1127,cs),
(745,1149,o),
(762,1171,o),
(796,1171,cs),
(1133,1171,ls),
(1166,1171,o),
(1183,1149,o),
(1183,1127,cs),
(1183,1106,o),
(1167,1085,o),
(1135,1085,cs),
(1039,1085,l),
(1039,47,ls),
(1039,4,o),
(1016,-16,o),
(990,-16,cs),
(969,-16,o),
(947,-3,o),
(934,22,cs),
(381,1084,l),
(381,86,l),
(519,86,ls),
(552,86,o),
(568,64,o),
(568,43,cs),
(568,21,o),
(551,0,o),
(518,0,cs),
(160,0,ls),
(127,0,o),
(110,21,o),
(110,43,cs),
(110,64,o),
(126,86,o),
(159,86,cs),
(285,86,l),
(285,1085,l)
);
}
);
};
layerId = "840BD324-B0A6-42B0-BD23-CB5E8C19394F";
shapes = (
{
closed = 1;
nodes = (
(129,1085,ls),
(96,1085,o),
(80,1106,o),
(80,1127,cs),
(80,1149,o),
(97,1171,o),
(130,1171,cs),
(417,1171,ls),
(439,1171,o),
(449,1163,o),
(457,1147,cs),
(943,194,l),
(943,1085,l),
(794,1085,ls),
(761,1085,o),
(745,1106,o),
(745,1127,cs),
(745,1149,o),
(762,1171,o),
(796,1171,cs),
(1133,1171,ls),
(1166,1171,o),
(1183,1149,o),
(1183,1127,cs),
(1183,1106,o),
(1167,1085,o),
(1135,1085,cs),
(1039,1085,l),
(1039,47,ls),
(1039,4,o),
(1016,-16,o),
(990,-16,cs),
(969,-16,o),
(947,-3,o),
(934,22,cs),
(381,1084,l),
(381,86,l),
(519,86,ls),
(552,86,o),
(568,64,o),
(568,43,cs),
(568,21,o),
(551,0,o),
(518,0,cs),
(160,0,ls),
(127,0,o),
(110,21,o),
(110,43,cs),
(110,64,o),
(126,86,o),
(159,86,cs),
(285,86,l),
(285,1085,l)
);
}
);
width = 1240;
}
);
unicode = 78;
},
{
glyphname = NJ;
lastChange = "2024-05-02 14:32:25 +0000";
layers = (
{
background = {
shapes = (
{
closed = 1;
nodes = (
(79,1085,ls),
(46,1085,o),
(30,1106,o),
(30,1127,cs),
(30,1149,o),
(47,1171,o),
(80,1171,cs),
(262,1171,ls),
(284,1171,o),
(296,1164,o),
(302,1147,cs),
(583,282,l),
(583,1085,l),
(504,1085,ls),
(471,1085,o),
(455,1106,o),
(455,1127,cs),
(455,1149,o),
(472,1171,o),
(506,1171,cs),
(1224,1171,ls),
(1257,1171,o),
(1274,1150,o),
(1274,1128,cs),
(1274,1107,o),
(1258,1085,o),
(1225,1085,cs),
(1154,1085,l),
(1154,307,ls),
(1154,48,o),
(1055,-14,o),
(951,-14,cs),
(876,-14,o),
(787,48,o),
(787,181,cs),
(787,233,ls),
(787,262,o),
(812,278,o),
(836,278,cs),
(860,278,o),
(883,263,o),
(883,233,cs),
(883,180,ls),
(883,86,o),
(933,68,o),
(964,68,cs),
(1015,68,o),
(1058,103,o),
(1058,304,cs),
(1058,1085,l),
(679,1085,l),
(679,47,ls),
(679,4,o),
(656,-16,o),
(630,-16,cs),
(609,-16,o),
(583,-3,o),
(574,22,cs),
(231,1064,l),
(231,86,l),
(299,86,ls),
(332,86,o),
(348,64,o),
(348,43,cs),
(348,21,o),
(331,0,o),
(298,0,cs),
(100,0,ls),
(67,0,o),
(50,21,o),
(50,43,cs),
(50,64,o),
(66,86,o),
(99,86,cs),
(135,86,l),
(135,1085,l)
);
}
);
};
layerId = "840BD324-B0A6-42B0-BD23-CB5E8C19394F";
shapes = (
{
closed = 1;
nodes = (
(79,1085,ls),
(46,1085,o),
(30,1106,o),
(30,1127,cs),
(30,1149,o),
(47,1171,o),
(80,1171,cs),
(262,1171,ls),
(284,1171,o),
(296,1164,o),
(302,1147,cs),
(583,282,l),
(583,1085,l),
(504,1085,ls),
(471,1085,o),
(455,1106,o),
(455,1127,cs),
(455,1149,o),
(472,1171,o),
(506,1171,cs),
(1224,1171,ls),
(1257,1171,o),
(1274,1150,o),
(1274,1128,cs),
(1274,1107,o),
(1258,1085,o),
(1225,1085,cs),
(1154,1085,l),
(1154,307,ls),
(1154,48,o),
(1055,-14,o),
(951,-14,cs),
(876,-14,o),
(787,48,o),
(787,181,cs),
(787,233,ls),
(787,262,o),
(812,278,o),
(836,278,cs),
(860,278,o),
(883,263,o),
(883,233,cs),
(883,180,ls),
(883,86,o),
(933,68,o),
(964,68,cs),
(1015,68,o),
(1058,103,o),
(1058,304,cs),
(1058,1085,l),
(679,1085,l),
(679,47,ls),
(679,4,o),
(656,-16,o),
(630,-16,cs),
(609,-16,o),
(583,-3,o),
(574,22,cs),
(231,1064,l),
(231,86,l),
(299,86,ls),
(332,86,o),
(348,64,o),
(348,43,cs),
(348,21,o),
(331,0,o),
(298,0,cs),
(100,0,ls),
(67,0,o),
(50,21,o),
(50,43,cs),
(50,64,o),
(66,86,o),
(99,86,cs),
(135,86,l),
(135,1085,l)
);
}
);
width = 1240;
}
);
unicode = 458;
},
{
glyphname = Nacute;
lastChange = "2024-05-02 14:32:21 +0000";
layers = (
{
background = {
shapes = (
{
closed = 1;
nodes = (
(803,1588,cs),
(481,1354,ls),
(478,1351,o),
(474,1350,o),
(470,1350,cs),
(458,1350,o),
(446,1360,o),
(446,1372,cs),
(446,1377,o),
(448,1382,o),
(453,1387,cs),
(724,1663,ls),
(734,1673,o),
(744,1677,o),
(755,1677,cs),
(786,1677,o),
(817,1644,o),
(817,1616,cs),
(817,1606,o),
(813,1595,o)
);
},
{
closed = 1;
nodes = (
(129,1085,ls),
(96,1085,o),
(80,1106,o),
(80,1127,cs),
(80,1149,o),
(97,1171,o),
(130,1171,cs),
(417,1171,ls),
(439,1171,o),
(449,1163,o),
(457,1147,cs),
(943,194,l),
(943,1085,l),
(794,1085,ls),
(761,1085,o),
(745,1106,o),
(745,1127,cs),
(745,1149,o),
(762,1171,o),
(796,1171,cs),
(1133,1171,ls),
(1166,1171,o),
(1183,1149,o),
(1183,1127,cs),
(1183,1106,o),
(1167,1085,o),
(1135,1085,cs),
(1039,1085,l),
(1039,47,ls),
(1039,4,o),
(1016,-16,o),
(990,-16,cs),
(969,-16,o),
(947,-3,o),
(934,22,cs),
(381,1084,l),
(381,86,l),
(519,86,ls),
(552,86,o),
(568,64,o),
(568,43,cs),
(568,21,o),
(551,0,o),
(518,0,cs),
(160,0,ls),
(127,0,o),
(110,21,o),
(110,43,cs),
(110,64,o),
(126,86,o),
(159,86,cs),
(285,86,l),
(285,1085,l)
);
}
);
};
layerId = "840BD324-B0A6-42B0-BD23-CB5E8C19394F";
shapes = (
{
pos = (-55,372);
ref = acute;
},
{
ref = N;
}
);
width = 1240;
}
);
unicode = 323;
},
{
glyphname = Ncaron;
lastChange = "2024-05-02 14:32:21 +0000";
layers = (
{
background = {
shapes = (
{
closed = 1;
nodes = (
(631,1350,cs),
(618,1350,o),
(605,1353,o),
(600,1361,cs),
(416,1644,l),
(411,1649,o),
(409,1656,o),
(409,1661,cs),
(409,1677,o),
(428,1691,o),
(446,1691,cs),
(454,1691,o),
(464,1690,o),
(469,1682,cs),
(631,1473,l),
(794,1682,ls),
(799,1690,o),
(809,1691,o),
(817,1691,cs),
(835,1691,o),
(854,1677,o),
(854,1661,cs),
(854,1656,o),
(852,1649,o),
(847,1644,c),
(663,1361,ls),
(658,1353,o),
(644,1350,o)
);
},
{
closed = 1;
nodes = (
(129,1085,ls),
(96,1085,o),
(80,1106,o),
(80,1127,cs),
(80,1149,o),
(97,1171,o),
(130,1171,cs),
(417,1171,ls),
(439,1171,o),
(449,1163,o),
(457,1147,cs),
(943,194,l),
(943,1085,l),
(794,1085,ls),
(761,1085,o),
(745,1106,o),
(745,1127,cs),
(745,1149,o),
(762,1171,o),
(796,1171,cs),
(1133,1171,ls),
(1166,1171,o),
(1183,1149,o),
(1183,1127,cs),
(1183,1106,o),
(1167,1085,o),
(1135,1085,cs),
(1039,1085,l),
(1039,47,ls),
(1039,4,o),
(1016,-16,o),
(990,-16,cs),
(969,-16,o),
(947,-3,o),
(934,22,cs),
(381,1084,l),
(381,86,l),
(519,86,ls),
(552,86,o),
(568,64,o),
(568,43,cs),
(568,21,o),
(551,0,o),
(518,0,cs),
(160,0,ls),
(127,0,o),
(110,21,o),
(110,43,cs),
(110,64,o),
(126,86,o),
(159,86,cs),
(285,86,l),
(285,1085,l)
);
}
);
};
layerId = "840BD324-B0A6-42B0-BD23-CB5E8C19394F";
shapes = (
{
pos = (-68,371);
ref = caron;
},
{
ref = N;
}
);
width = 1240;
}
);
unicode = 327;
},
{
glyphname = Ncommaaccent;
lastChange = "2024-05-02 14:32:21 +0000";
layers = (
{
background = {
shapes = (
{
closed = 1;
nodes = (
(641,-179,cs),
(701,-179,o),
(743,-208,o),
(743,-288,cs),
(743,-404,o),
(640,-514,o),
(558,-555,cs),
(555,-557,o),
(551,-557,o),
(548,-557,cs),
(534,-557,o),
(520,-544,o),
(520,-530,cs),
(520,-523,o),
(524,-515,o),
(532,-509,cs),
(575,-478,o),
(655,-417,o),
(655,-355,c),
(596,-355,o),
(549,-329,o),
(549,-264,cs),
(549,-200,o),
(594,-179,o)
);
},
{
closed = 1;
nodes = (
(129,1085,ls),
(96,1085,o),
(80,1106,o),
(80,1127,cs),
(80,1149,o),
(97,1171,o),
(130,1171,cs),
(417,1171,ls),
(439,1171,o),
(449,1163,o),
(457,1147,cs),
(943,194,l),
(943,1085,l),
(794,1085,ls),
(761,1085,o),
(745,1106,o),
(745,1127,cs),
(745,1149,o),
(762,1171,o),
(796,1171,cs),
(1133,1171,ls),
(1166,1171,o),
(1183,1149,o),
(1183,1127,cs),
(1183,1106,o),
(1167,1085,o),
(1135,1085,cs),
(1039,1085,l),
(1039,47,ls),
(1039,4,o),
(1016,-16,o),
(990,-16,cs),
(969,-16,o),
(947,-3,o),
(934,22,cs),
(381,1084,l),
(381,86,l),
(519,86,ls),
(552,86,o),
(568,64,o),
(568,43,cs),
(568,21,o),
(551,0,o),
(518,0,cs),
(160,0,ls),
(127,0,o),
(110,21,o),
(110,43,cs),
(110,64,o),
(126,86,o),
(159,86,cs),
(285,86,l),
(285,1085,l)
);
}
);
};
layerId = "840BD324-B0A6-42B0-BD23-CB5E8C19394F";
shapes = (
{
pos = (-18,-347);
ref = commaaccentcomb;
},
{
ref = N;
}
);
width = 1240;
}
);
unicode = 325;
},
{
glyphname = Nj;
lastChange = "2024-05-02 14:32:25 +0000";
layers = (
{
background = {
shapes = (
{
closed = 1;
nodes = (
(1052,1171,cs),
(1098,1171,o),
(1134,1134,o),
(1134,1088,cs),
(1134,1042,o),
(1098,1006,o),
(1052,1006,cs),
(1006,1006,o),
(969,1042,o),
(969,1088,cs),
(969,1134,o),
(1006,1171,o)
);
},
{
closed = 1;
nodes = (
(748,-309,cs),
(715,-309,o),
(697,-287,o),
(697,-265,cs),
(697,-243,o),
(716,-220,o),
(755,-220,cs),
(930,-220,o),
(1040,-155,o),
(1040,0,cs),
(1040,732,l),
(854,732,ls),
(825,732,o),
(810,754,o),
(810,775,cs),
(810,795,o),
(824,814,o),
(850,814,cs),
(1100,814,ls),
(1120,814,o),
(1136,806,o),
(1136,785,cs),
(1136,-10,ls),
(1136,-198,o),
(993,-309,o)
);
},
{
closed = 1;
nodes = (
(79,1085,ls),
(46,1085,o),
(30,1106,o),
(30,1127,cs),
(30,1149,o),
(47,1171,o),
(80,1171,cs),
(292,1171,ls),
(314,1171,o),
(326,1164,o),
(332,1147,cs),
(643,282,l),
(643,1085,l),
(564,1085,ls),
(531,1085,o),
(515,1106,o),
(515,1127,cs),
(515,1149,o),
(532,1171,o),
(566,1171,cs),
(793,1171,ls),
(826,1171,o),
(843,1149,o),
(843,1127,cs),
(843,1106,o),
(827,1085,o),
(795,1085,cs),
(739,1085,l),
(739,47,ls),
(739,4,o),
(716,-16,o),
(690,-16,cs),
(669,-16,o),
(643,-3,o),
(634,22,cs),
(261,1064,l),
(261,86,l),
(329,86,ls),
(362,86,o),
(378,64,o),
(378,43,cs),
(378,21,o),
(361,0,o),
(328,0,cs),
(100,0,ls),
(67,0,o),
(50,21,o),
(50,43,cs),
(50,64,o),
(66,86,o),
(99,86,cs),
(165,86,l),
(165,1085,l)
);
}
);
};
layerId = "840BD324-B0A6-42B0-BD23-CB5E8C19394F";
shapes = (
{
closed = 1;
nodes = (
(1052,1171,cs),
(1098,1171,o),
(1134,1134,o),
(1134,1088,cs),
(1134,1042,o),
(1098,1006,o),
(1052,1006,cs),
(1006,1006,o),
(969,1042,o),
(969,1088,cs),
(969,1134,o),
(1006,1171,o)
);
},
{
closed = 1;
nodes = (
(748,-309,cs),
(715,-309,o),
(697,-287,o),
(697,-265,cs),
(697,-243,o),
(716,-220,o),
(755,-220,cs),
(930,-220,o),
(1040,-155,o),
(1040,0,cs),
(1040,732,l),
(854,732,ls),
(825,732,o),
(810,754,o),
(810,775,cs),
(810,795,o),
(824,814,o),
(850,814,cs),
(1100,814,ls),
(1120,814,o),
(1136,806,o),
(1136,785,cs),
(1136,-10,ls),
(1136,-198,o),
(993,-309,o)
);
},
{
closed = 1;
nodes = (
(79,1085,ls),
(46,1085,o),
(30,1106,o),
(30,1127,cs),
(30,1149,o),
(47,1171,o),
(80,1171,cs),
(292,1171,ls),
(314,1171,o),
(326,1164,o),
(332,1147,cs),
(643,282,l),
(643,1085,l),
(564,1085,ls),
(531,1085,o),
(515,1106,o),
(515,1127,cs),
(515,1149,o),
(532,1171,o),
(566,1171,cs),
(793,1171,ls),
(826,1171,o),
(843,1149,o),
(843,1127,cs),
(843,1106,o),
(827,1085,o),
(795,1085,cs),
(739,1085,l),
(739,47,ls),
(739,4,o),
(716,-16,o),
(690,-16,cs),
(669,-16,o),
(643,-3,o),
(634,22,cs),
(261,1064,l),
(261,86,l),
(329,86,ls),
(362,86,o),
(378,64,o),
(378,43,cs),
(378,21,o),
(361,0,o),
(328,0,cs),
(100,0,ls),
(67,0,o),
(50,21,o),
(50,43,cs),
(50,64,o),
(66,86,o),
(99,86,cs),
(165,86,l),
(165,1085,l)
);
}
);
width = 1240;
}
);
unicode = 459;
},
{
glyphname = Ntilde;
lastChange = "2024-05-02 14:32:21 +0000";
layers = (
{
background = {
shapes = (
{
closed = 1;
nodes = (
(504,1528,cs),
(509,1528,o),
(514,1527,o),
(520,1526,cs),
(590,1513,o),
(710,1429,o),
(752,1429,cs),
(783,1429,o),
(799,1472,o),
(817,1505,cs),
(820,1511,o),
(827,1513,o),
(834,1513,cs),
(855,1513,o),
(886,1494,o),
(882,1475,c),
(862,1423,o),
(824,1350,o),
(756,1350,cs),
(748,1350,o),
(738,1352,o),
(729,1354,cs),
(651,1374,o),
(568,1435,o),
(515,1447,cs),
(512,1448,o),
(509,1448,o),
(506,1448,cs),
(480,1448,o),
(461,1422,o),
(443,1380,cs),
(439,1372,o),
(431,1368,o),
(421,1368,cs),
(403,1368,o),
(380,1380,o),
(380,1396,cs),
(380,1454,o),
(443,1528,o)
);
},
{
closed = 1;
nodes = (
(129,1085,ls),
(96,1085,o),
(80,1106,o),
(80,1127,cs),
(80,1149,o),
(97,1171,o),
(130,1171,cs),
(417,1171,ls),
(439,1171,o),
(449,1163,o),
(457,1147,cs),
(943,194,l),
(943,1085,l),
(794,1085,ls),
(761,1085,o),
(745,1106,o),
(745,1127,cs),
(745,1149,o),
(762,1171,o),
(796,1171,cs),
(1133,1171,ls),
(1166,1171,o),
(1183,1149,o),
(1183,1127,cs),
(1183,1106,o),
(1167,1085,o),
(1135,1085,cs),
(1039,1085,l),
(1039,47,ls),
(1039,4,o),
(1016,-16,o),
(990,-16,cs),
(969,-16,o),
(947,-3,o),
(934,22,cs),
(381,1084,l),
(381,86,l),
(519,86,ls),
(552,86,o),
(568,64,o),
(568,43,cs),
(568,21,o),
(551,0,o),
(518,0,cs),
(160,0,ls),
(127,0,o),
(110,21,o),
(110,43,cs),
(110,64,o),
(126,86,o),
(159,86,cs),
(285,86,l),
(285,1085,l)
);
}
);
};
layerId = "840BD324-B0A6-42B0-BD23-CB5E8C19394F";
shapes = (
{
pos = (-29,373);
ref = tilde;
},
{
ref = N;
}
);
width = 1240;
}
);
unicode = 209;
},
{
glyphname = Eng;
lastChange = "2024-05-02 14:32:13 +0000";
layers = (
{
background = {
shapes = (
{
closed = 1;
nodes = (
(629,-401,cs),
(603,-401,o),
(589,-380,o),
(589,-359,cs),
(589,-339,o),
(602,-320,o),
(630,-320,cs),
(782,-320,o),
(943,-211,o),
(943,-32,cs),
(943,52,l),
(875,177,o),
(506,844,o),
(381,1084,c),
(381,86,l),
(519,86,ls),
(552,86,o),
(568,64,o),
(568,43,cs),
(568,21,o),
(551,0,o),
(518,0,cs),
(160,0,ls),
(127,0,o),
(110,21,o),
(110,43,cs),
(110,64,o),
(126,86,o),
(159,86,cs),
(285,86,l),
(285,1085,l),
(129,1085,ls),
(96,1085,o),
(80,1106,o),
(80,1127,cs),
(80,1149,o),
(97,1171,o),
(130,1171,cs),
(407,1171,ls),
(429,1171,o),
(439,1163,o),
(447,1147,cs),
(943,224,l),
(943,1085,l),
(794,1085,ls),
(761,1085,o),
(745,1106,o),
(745,1127,cs),
(745,1149,o),
(762,1171,o),
(796,1171,cs),
(1133,1171,ls),
(1166,1171,o),
(1183,1149,o),
(1183,1127,cs),
(1183,1106,o),
(1167,1085,o),
(1135,1085,cs),
(1039,1085,l),
(1039,-19,ls),
(1039,-252,o),
(841,-401,o)
);
}
);
};
layerId = "840BD324-B0A6-42B0-BD23-CB5E8C19394F";
shapes = (
{
closed = 1;
nodes = (
(629,-401,cs),
(603,-401,o),
(589,-380,o),
(589,-359,cs),
(589,-339,o),
(602,-320,o),
(630,-320,cs),
(782,-320,o),
(943,-211,o),
(943,-32,cs),
(943,52,l),
(875,177,o),
(506,844,o),
(381,1084,c),
(381,86,l),
(519,86,ls),
(552,86,o),
(568,64,o),
(568,43,cs),
(568,21,o),
(551,0,o),
(518,0,cs),
(160,0,ls),
(127,0,o),
(110,21,o),
(110,43,cs),
(110,64,o),
(126,86,o),
(159,86,cs),
(285,86,l),
(285,1085,l),
(129,1085,ls),
(96,1085,o),
(80,1106,o),
(80,1127,cs),
(80,1149,o),
(97,1171,o),
(130,1171,cs),
(407,1171,ls),
(429,1171,o),
(439,1163,o),
(447,1147,cs),
(943,224,l),
(943,1085,l),
(794,1085,ls),
(761,1085,o),
(745,1106,o),
(745,1127,cs),
(745,1149,o),
(762,1171,o),
(796,1171,cs),
(1133,1171,ls),
(1166,1171,o),
(1183,1149,o),
(1183,1127,cs),
(1183,1106,o),
(1167,1085,o),
(1135,1085,cs),
(1039,1085,l),
(1039,-19,ls),
(1039,-252,o),
(841,-401,o)
);
}
);
width = 1240;
}
);
unicode = 330;
},
{
glyphname = O;
lastChange = "2024-05-02 14:32:13 +0000";
layers = (
{
background = {
shapes = (
{
closed = 1;
nodes = (
(620,-17,cs),
(279,-17,o),
(108,281,o),
(108,582,cs),
(108,883,o),
(279,1187,o),
(620,1187,cs),
(961,1187,o),
(1132,883,o),
(1132,582,cs),
(1132,281,o),
(961,-17,o)
);
},
{
closed = 1;
nodes = (
(620,1101,cs),
(344,1101,o),
(204,842,o),
(204,582,cs),
(204,326,o),
(340,69,o),
(620,69,cs),
(900,69,o),
(1036,326,o),
(1036,582,cs),
(1036,842,o),
(896,1101,o)
);
}
);
};
layerId = "840BD324-B0A6-42B0-BD23-CB5E8C19394F";
shapes = (
{
closed = 1;
nodes = (
(620,-17,cs),
(279,-17,o),
(108,281,o),
(108,582,cs),
(108,883,o),
(279,1187,o),
(620,1187,cs),
(961,1187,o),
(1132,883,o),
(1132,582,cs),
(1132,281,o),
(961,-17,o)
);
},
{
closed = 1;
nodes = (
(620,1101,cs),
(344,1101,o),
(204,842,o),
(204,582,cs),
(204,326,o),
(340,69,o),
(620,69,cs),
(900,69,o),
(1036,326,o),
(1036,582,cs),
(1036,842,o),
(896,1101,o)
);
}
);
width = 1240;
}
);
unicode = 79;
},
{
glyphname = Oacute;
lastChange = "2024-05-02 14:32:21 +0000";
layers = (
{
background = {
shapes = (
{
closed = 1;
nodes = (
(791,1588,cs),
(469,1354,ls),
(466,1351,o),
(462,1350,o),
(458,1350,cs),
(446,1350,o),
(434,1360,o),
(434,1372,cs),
(434,1377,o),
(436,1382,o),
(441,1387,cs),
(712,1663,ls),
(722,1673,o),
(732,1677,o),
(743,1677,cs),
(774,1677,o),
(805,1644,o),
(805,1616,cs),
(805,1606,o),
(801,1595,o)
);
},
{
closed = 1;
nodes = (
(620,-17,cs),
(279,-17,o),
(108,281,o),
(108,582,cs),
(108,883,o),
(279,1187,o),
(620,1187,cs),
(961,1187,o),
(1132,883,o),
(1132,582,cs),
(1132,281,o),
(961,-17,o)
);
},
{
closed = 1;
nodes = (
(620,1101,cs),
(344,1101,o),
(204,842,o),
(204,582,cs),
(204,326,o),
(340,69,o),
(620,69,cs),
(900,69,o),
(1036,326,o),
(1036,582,cs),
(1036,842,o),
(896,1101,o)
);
}
);
};
layerId = "840BD324-B0A6-42B0-BD23-CB5E8C19394F";
shapes = (
{
pos = (-67,372);
ref = acute;
},
{
ref = O;
}
);
width = 1240;
}
);
unicode = 211;
},
{
glyphname = Obreve;
lastChange = "2024-05-02 14:32:21 +0000";
layers = (
{
background = {
shapes = (
{
closed = 1;
nodes = (
(620,1408,cs),
(680,1408,o),
(739,1444,o),
(750,1512,c),
(754,1524,o),
(763,1528,o),
(773,1528,cs),
(789,1528,o),
(807,1516,o),
(807,1504,cs),
(807,1379,o),
(681,1350,o),
(620,1350,cs),
(559,1350,o),
(433,1379,o),
(433,1504,cs),
(433,1516,o),
(451,1528,o),
(467,1528,cs),
(477,1528,o),
(486,1524,o),
(490,1512,c),
(501,1444,o),
(560,1408,o)
);
},
{
closed = 1;
nodes = (
(620,-17,cs),
(279,-17,o),
(108,281,o),
(108,582,cs),
(108,883,o),
(279,1187,o),
(620,1187,cs),
(961,1187,o),
(1132,883,o),
(1132,582,cs),
(1132,281,o),
(961,-17,o)
);
},
{
closed = 1;
nodes = (
(620,1101,cs),
(344,1101,o),
(204,842,o),
(204,582,cs),
(204,326,o),
(340,69,o),
(620,69,cs),
(900,69,o),
(1036,326,o),
(1036,582,cs),
(1036,842,o),
(896,1101,o)
);
}
);
};
layerId = "840BD324-B0A6-42B0-BD23-CB5E8C19394F";
shapes = (
{
pos = (-77,380);
ref = breve;
},
{
ref = O;
}
);
width = 1240;
}
);
unicode = 334;
},
{
glyphname = Ocircumflex;
lastChange = "2024-05-02 14:32:21 +0000";
layers = (
{
background = {
shapes = (
{
closed = 1;
nodes = (
(619,1691,cs),
(632,1691,o),
(646,1687,o),
(651,1679,cs),
(835,1396,l),
(840,1391,o),
(842,1384,o),
(842,1379,cs),
(842,1363,o),
(823,1350,o),
(805,1350,cs),
(797,1350,o),
(787,1351,o),
(782,1359,cs),
(619,1568,l),
(457,1359,ls),
(452,1351,o),
(442,1350,o),
(434,1350,cs),
(416,1350,o),
(397,1363,o),
(397,1379,cs),
(397,1384,o),
(399,1391,o),
(404,1396,c),
(588,1679,ls),
(593,1687,o),
(606,1691,o)
);
},
{
closed = 1;
nodes = (
(620,-17,cs),
(279,-17,o),
(108,281,o),
(108,582,cs),
(108,883,o),
(279,1187,o),
(620,1187,cs),
(961,1187,o),
(1132,883,o),
(1132,582,cs),
(1132,281,o),
(961,-17,o)
);
},
{
closed = 1;
nodes = (
(620,1101,cs),
(344,1101,o),
(204,842,o),
(204,582,cs),
(204,326,o),
(340,69,o),
(620,69,cs),
(900,69,o),
(1036,326,o),
(1036,582,cs),
(1036,842,o),
(896,1101,o)
);
}
);
};
layerId = "840BD324-B0A6-42B0-BD23-CB5E8C19394F";
shapes = (
{
pos = (-80,371);
ref = circumflex;
},
{
ref = O;
}
);
width = 1240;
}
);
unicode = 212;
},
{
glyphname = Odblgrave;
lastChange = "2024-05-02 14:32:25 +0000";
layers = (
{
background = {
shapes = (
{
closed = 1;
nodes = (
(314,1588,ls),
(304,1595,o),
(300,1606,o),
(300,1616,cs),
(300,1644,o),
(330,1677,o),
(361,1677,cs),
(372,1677,o),
(383,1673,o),
(393,1663,cs),
(664,1387,ls),
(669,1382,o),
(670,1377,o),
(670,1372,cs),
(670,1360,o),
(659,1350,o),
(647,1350,cs),
(643,1350,o),
(639,1351,o),
(636,1354,cs)
);
},
{
closed = 1;
nodes = (
(624,1608,l),
(614,1615,o),
(610,1626,o),
(610,1636,cs),
(610,1664,o),
(640,1697,o),
(671,1697,cs),
(682,1697,o),
(693,1693,o),
(703,1683,c),
(934,1387,ls),
(939,1382,o),
(940,1377,o),
(940,1372,cs),
(940,1360,o),
(929,1350,o),
(917,1350,cs),
(913,1350,o),
(909,1351,o),
(906,1354,cs)
);
},
{
closed = 1;
nodes = (
(620,-17,cs),
(279,-17,o),
(108,281,o),
(108,582,cs),
(108,883,o),
(279,1187,o),
(620,1187,cs),
(961,1187,o),
(1132,883,o),
(1132,582,cs),
(1132,281,o),
(961,-17,o)
);
},
{
closed = 1;
nodes = (
(620,1101,cs),
(344,1101,o),
(204,842,o),
(204,582,cs),
(204,326,o),
(340,69,o),
(620,69,cs),
(900,69,o),
(1036,326,o),
(1036,582,cs),
(1036,842,o),
(896,1101,o)
);
}
);
};
layerId = "840BD324-B0A6-42B0-BD23-CB5E8C19394F";
shapes = (
{
pos = (0,444);
ref = dblgravecomb;
},
{
ref = O;
}
);
width = 1240;
}
);
unicode = 524;
},
{
glyphname = Odieresis;
lastChange = "2024-05-02 14:32:21 +0000";
layers = (
{
background = {
shapes = (
{
closed = 1;
nodes = (
(452,1515,cs),
(498,1515,o),
(534,1478,o),
(534,1432,cs),
(534,1386,o),
(498,1350,o),
(452,1350,cs),
(406,1350,o),
(369,1386,o),
(369,1432,cs),
(369,1478,o),
(406,1515,o)
);
},
{
closed = 1;
nodes = (
(787,1515,cs),
(833,1515,o),
(869,1478,o),
(869,1432,cs),
(869,1386,o),
(833,1350,o),
(787,1350,cs),
(741,1350,o),
(704,1386,o),
(704,1432,cs),
(704,1478,o),
(741,1515,o)
);
},
{
closed = 1;
nodes = (
(620,-17,cs),
(279,-17,o),
(108,281,o),
(108,582,cs),
(108,883,o),
(279,1187,o),
(620,1187,cs),
(961,1187,o),
(1132,883,o),
(1132,582,cs),
(1132,281,o),
(961,-17,o)
);
},
{
closed = 1;
nodes = (
(620,1101,cs),
(344,1101,o),
(204,842,o),
(204,582,cs),
(204,326,o),
(340,69,o),
(620,69,cs),
(900,69,o),
(1036,326,o),
(1036,582,cs),
(1036,842,o),
(896,1101,o)
);
}
);
};
layerId = "840BD324-B0A6-42B0-BD23-CB5E8C19394F";
shapes = (
{
pos = (-80,372);
ref = dieresis;
},
{
ref = O;
}
);
width = 1240;
}
);
unicode = 214;
},
{
glyphname = Ograve;
lastChange = "2024-05-02 14:32:21 +0000";
layers = (
{
background = {
shapes = (
{
closed = 1;
nodes = (
(822,1385,cs),
(822,1368,o),
(807,1350,o),
(789,1350,cs),
(784,1350,o),
(780,1351,o),
(777,1354,c),
(666,1418,o),
(544,1497,o),
(437,1564,cs),
(425,1572,o),
(418,1583,o),
(418,1595,cs),
(418,1623,o),
(447,1652,o),
(476,1652,cs),
(487,1652,o),
(496,1649,o),
(504,1642,cs),
(597,1562,o),
(710,1474,o),
(812,1406,cs),
(820,1401,o),
(822,1395,o)
);
},
{
closed = 1;
nodes = (
(620,-17,cs),
(279,-17,o),
(108,281,o),
(108,582,cs),
(108,883,o),
(279,1187,o),
(620,1187,cs),
(961,1187,o),
(1132,883,o),
(1132,582,cs),
(1132,281,o),
(961,-17,o)
);
},
{
closed = 1;
nodes = (
(620,1101,cs),
(344,1101,o),
(204,842,o),
(204,582,cs),
(204,326,o),
(340,69,o),
(620,69,cs),
(900,69,o),
(1036,326,o),
(1036,582,cs),
(1036,842,o),
(896,1101,o)
);
}
);
};
layerId = "840BD324-B0A6-42B0-BD23-CB5E8C19394F";
shapes = (
{
pos = (412,375);
ref = grave;
},
{
ref = O;
}
);
width = 1240;
}
);
unicode = 210;
},
{
glyphname = Ohungarumlaut;
lastChange = "2024-05-02 14:32:21 +0000";
layers = (
{
background = {
shapes = (
{
closed = 1;
nodes = (
(926,1588,cs),
(604,1354,ls),
(601,1351,o),
(597,1350,o),
(593,1350,cs),
(581,1350,o),
(570,1360,o),
(570,1372,cs),
(570,1377,o),
(571,1382,o),
(576,1387,cs),
(847,1663,ls),
(857,1673,o),
(868,1677,o),
(879,1677,cs),
(910,1677,o),
(940,1644,o),
(940,1616,cs),
(940,1606,o),
(936,1595,o)
);
},
{
closed = 1;
nodes = (
(616,1608,c),
(334,1354,ls),
(331,1351,o),
(327,1350,o),
(323,1350,cs),
(311,1350,o),
(300,1360,o),
(300,1372,cs),
(300,1377,o),
(301,1382,o),
(306,1387,cs),
(537,1683,l),
(547,1693,o),
(558,1697,o),
(569,1697,cs),
(600,1697,o),
(630,1664,o),
(630,1636,cs),
(630,1626,o),
(626,1615,o)
);
},
{
closed = 1;
nodes = (
(620,-17,cs),
(279,-17,o),
(108,281,o),
(108,582,cs),
(108,883,o),
(279,1187,o),
(620,1187,cs),
(961,1187,o),
(1132,883,o),
(1132,582,cs),
(1132,281,o),
(961,-17,o)
);
},
{
closed = 1;
nodes = (
(620,1101,cs),
(344,1101,o),
(204,842,o),
(204,582,cs),
(204,326,o),
(340,69,o),
(620,69,cs),
(900,69,o),
(1036,326,o),
(1036,582,cs),
(1036,842,o),
(896,1101,o)
);
}
);
};
layerId = "840BD324-B0A6-42B0-BD23-CB5E8C19394F";
shapes = (
{
pos = (0,444);
ref = hungarumlaut;
},
{
ref = O;
}
);
width = 1240;
}
);
unicode = 336;
},
{
glyphname = Oinvertedbreve;
lastChange = "2024-05-02 14:32:25 +0000";
layers = (
{
background = {
shapes = (
{
closed = 1;
nodes = (
(620,1470,cs),
(560,1470,o),
(501,1434,o),
(490,1366,c),
(486,1354,o),
(477,1350,o),
(467,1350,cs),
(451,1350,o),
(433,1362,o),
(433,1374,cs),
(433,1499,o),
(559,1528,o),
(620,1528,cs),
(681,1528,o),
(807,1499,o),
(807,1374,cs),
(807,1362,o),
(789,1350,o),
(773,1350,cs),
(763,1350,o),
(754,1354,o),
(750,1366,c),
(739,1434,o),
(680,1470,o)
);
},
{
closed = 1;
nodes = (
(620,-17,cs),
(279,-17,o),
(108,281,o),
(108,582,cs),
(108,883,o),
(279,1187,o),
(620,1187,cs),
(961,1187,o),
(1132,883,o),
(1132,582,cs),
(1132,281,o),
(961,-17,o)
);
},
{
closed = 1;
nodes = (
(620,1101,cs),
(344,1101,o),
(204,842,o),
(204,582,cs),
(204,326,o),
(340,69,o),
(620,69,cs),
(900,69,o),
(1036,326,o),
(1036,582,cs),
(1036,842,o),
(896,1101,o)
);
}
);
};
layerId = "840BD324-B0A6-42B0-BD23-CB5E8C19394F";
shapes = (
{
pos = (0,380);
ref = breveinvertedcomb;
},
{
ref = O;
}
);
width = 1240;
}
);
unicode = 526;
},
{
glyphname = Omacron;
lastChange = "2024-05-02 14:32:21 +0000";
layers = (
{
background = {
shapes = (
{
closed = 1;
nodes = (
(803,1350,cs),
(441,1350,ls),
(403,1350,o),
(390,1366,o),
(390,1393,cs),
(390,1420,o),
(406,1436,o),
(440,1436,cs),
(801,1436,ls),
(834,1436,o),
(850,1420,o),
(850,1393,cs),
(850,1366,o),
(836,1350,o)
);
},
{
closed = 1;
nodes = (
(620,-17,cs),
(279,-17,o),
(108,281,o),
(108,582,cs),
(108,883,o),
(279,1187,o),
(620,1187,cs),
(961,1187,o),
(1132,883,o),
(1132,582,cs),
(1132,281,o),
(961,-17,o)
);
},
{
closed = 1;
nodes = (
(620,1101,cs),
(344,1101,o),
(204,842,o),
(204,582,cs),
(204,326,o),
(340,69,o),
(620,69,cs),
(900,69,o),
(1036,326,o),
(1036,582,cs),
(1036,842,o),
(896,1101,o)
);
}
);
};
layerId = "840BD324-B0A6-42B0-BD23-CB5E8C19394F";
shapes = (
{
pos = (-80,317);
ref = macron;
},
{
ref = O;
}
);
width = 1240;
}
);
unicode = 332;
},
{
glyphname = Oslash;
lastChange = "2024-05-02 14:32:21 +0000";
layers = (
{
background = {
shapes = (
{
closed = 1;
nodes = (
(295,-172,ls),
(288,-187,o),
(277,-192,o),
(265,-192,cs),
(246,-192,o),
(226,-176,o),
(226,-158,cs),
(226,-154,o),
(227,-150,o),
(229,-146,cs),
(972,1305,ls),
(978,1316,o),
(988,1321,o),
(999,1321,cs),
(1017,1321,o),
(1037,1308,o),
(1037,1289,cs),
(1037,1284,o),
(1036,1279,o),
(1033,1274,cs)
);
},
{
closed = 1;
nodes = (
(620,-17,cs),
(279,-17,o),
(108,281,o),
(108,582,cs),
(108,883,o),
(279,1187,o),
(620,1187,cs),
(961,1187,o),
(1132,883,o),
(1132,582,cs),
(1132,281,o),
(961,-17,o)
);
},
{
closed = 1;
nodes = (
(620,1101,cs),
(344,1101,o),
(204,842,o),
(204,582,cs),
(204,326,o),
(340,69,o),
(620,69,cs),
(900,69,o),
(1036,326,o),
(1036,582,cs),
(1036,842,o),
(896,1101,o)
);
}
);
};
layerId = "840BD324-B0A6-42B0-BD23-CB5E8C19394F";
shapes = (
{
closed = 1;
nodes = (
(295,-172,ls),
(288,-187,o),
(277,-192,o),
(265,-192,cs),
(246,-192,o),
(226,-176,o),
(226,-158,cs),
(226,-154,o),
(227,-150,o),
(229,-146,cs),
(972,1305,ls),
(978,1316,o),
(988,1321,o),
(999,1321,cs),
(1017,1321,o),
(1037,1308,o),
(1037,1289,cs),
(1037,1284,o),
(1036,1279,o),
(1033,1274,cs)
);
},
{
ref = O;
}
);
width = 1240;
}
);
unicode = 216;
},
{
glyphname = Otilde;
lastChange = "2024-05-02 14:32:21 +0000";
layers = (
{
background = {
shapes = (
{
closed = 1;
nodes = (
(493,1528,cs),
(498,1528,o),
(503,1527,o),
(509,1526,cs),
(579,1513,o),
(699,1429,o),
(741,1429,cs),
(772,1429,o),
(788,1472,o),
(806,1505,cs),
(809,1511,o),
(816,1513,o),
(823,1513,cs),
(844,1513,o),
(875,1494,o),
(871,1475,c),
(851,1423,o),
(813,1350,o),
(745,1350,cs),
(737,1350,o),
(727,1352,o),
(718,1354,cs),
(640,1374,o),
(557,1435,o),
(504,1447,cs),
(501,1448,o),
(498,1448,o),
(495,1448,cs),
(469,1448,o),
(450,1422,o),
(432,1380,cs),
(428,1372,o),
(420,1368,o),
(410,1368,cs),
(392,1368,o),
(369,1380,o),
(369,1396,cs),
(369,1454,o),
(432,1528,o)
);
},
{
closed = 1;
nodes = (
(620,-17,cs),
(279,-17,o),
(108,281,o),
(108,582,cs),
(108,883,o),
(279,1187,o),
(620,1187,cs),
(961,1187,o),
(1132,883,o),
(1132,582,cs),
(1132,281,o),
(961,-17,o)
);
},
{
closed = 1;
nodes = (
(620,1101,cs),
(344,1101,o),
(204,842,o),
(204,582,cs),
(204,326,o),
(340,69,o),
(620,69,cs),
(900,69,o),
(1036,326,o),
(1036,582,cs),
(1036,842,o),
(896,1101,o)
);
}
);
};
layerId = "840BD324-B0A6-42B0-BD23-CB5E8C19394F";
shapes = (
{
pos = (-40,373);
ref = tilde;
},
{
ref = O;
}
);
width = 1240;
}
);
unicode = 213;
},
{
glyphname = OE;
lastChange = "2024-05-02 14:32:13 +0000";
layers = (
{
background = {
shapes = (
{
closed = 1;
nodes = (
(924,437,ls),
(924,402,o),
(905,386,o),
(886,386,cs),
(867,386,o),
(848,401,o),
(846,429,cs),
(833,577,l),
(677,577,l),
(677,85,l),
(1012,85,l),
(1028,336,ls),
(1029,360,o),
(1051,375,o),
(1072,375,cs),
(1093,375,o),
(1114,359,o),
(1114,323,cs),
(1114,53,ls),
(1114,19,o),
(1091,0,o),
(1058,0,cs),
(564,0,ls),
(563,0,ls),
(340,0,o),
(118,200,o),
(118,582,cs),
(118,965,o),
(342,1172,o),
(566,1172,cs),
(726,1172,o),
(886,1171,o),
(1046,1171,cs),
(1079,1171,o),
(1102,1151,o),
(1102,1117,cs),
(1102,847,ls),
(1102,817,o),
(1082,803,o),
(1062,803,cs),
(1042,803,o),
(1021,816,o),
(1020,841,cs),
(1006,1084,l),
(677,1084,l),
(677,654,l),
(833,654,l),
(846,787,ls),
(849,817,o),
(868,832,o),
(886,832,cs),
(905,832,o),
(924,816,o),
(924,779,cs)
);
},
{
closed = 1;
nodes = (
(214,582,cs),
(214,260,o),
(387,82,o),
(561,82,cs),
(579,82,l),
(579,1084,l),
(564,1084,ls),
(389,1084,o),
(214,913,o)
);
}
);
};
layerId = "840BD324-B0A6-42B0-BD23-CB5E8C19394F";
shapes = (
{
closed = 1;
nodes = (
(924,437,ls),
(924,402,o),
(905,386,o),
(886,386,cs),
(867,386,o),
(848,401,o),
(846,429,cs),
(833,577,l),
(677,577,l),
(677,85,l),
(1012,85,l),
(1028,336,ls),
(1029,360,o),
(1051,375,o),
(1072,375,cs),
(1093,375,o),
(1114,359,o),
(1114,323,cs),
(1114,53,ls),
(1114,19,o),
(1091,0,o),
(1058,0,cs),
(564,0,ls),
(563,0,ls),
(340,0,o),
(118,200,o),
(118,582,cs),
(118,965,o),
(342,1172,o),
(566,1172,cs),
(726,1172,o),
(886,1171,o),
(1046,1171,cs),
(1079,1171,o),
(1102,1151,o),
(1102,1117,cs),
(1102,847,ls),
(1102,817,o),
(1082,803,o),
(1062,803,cs),
(1042,803,o),
(1021,816,o),
(1020,841,cs),
(1006,1084,l),
(677,1084,l),
(677,654,l),
(833,654,l),
(846,787,ls),
(849,817,o),
(868,832,o),
(886,832,cs),
(905,832,o),
(924,816,o),
(924,779,cs)
);
},
{
closed = 1;
nodes = (
(214,582,cs),
(214,260,o),
(387,82,o),
(561,82,cs),
(579,82,l),
(579,1084,l),
(564,1084,ls),
(389,1084,o),
(214,913,o)
);
}
);
width = 1240;
}
);
unicode = 338;
},
{
glyphname = P;
lastChange = "2024-05-02 14:32:13 +0000";
layers = (
{
background = {
shapes = (
{
closed = 1;
nodes = (
(1068,847,cs),
(1068,540,o),
(815,527,o),
(558,527,cs),
(442,527,l),
(442,86,l),
(771,86,ls),
(804,86,o),
(820,64,o),
(820,43,cs),
(820,21,o),
(803,0,o),
(770,0,cs),
(174,0,ls),
(140,0,o),
(123,21,o),
(123,43,cs),
(123,64,o),
(140,86,o),
(173,86,cs),
(346,86,l),
(346,1085,l),
(187,1085,ls),
(154,1085,o),
(138,1106,o),
(138,1127,cs),
(138,1149,o),
(155,1171,o),
(188,1171,cs),
(532,1171,ls),
(802,1171,o),
(1068,1154,o)
);
},
{
closed = 1;
nodes = (
(972,843,cs),
(972,1085,o),
(742,1085,o),
(552,1085,cs),
(442,1085,l),
(442,607,l),
(594,607,ls),
(788,607,o),
(972,616,o)
);
}
);
};
layerId = "840BD324-B0A6-42B0-BD23-CB5E8C19394F";
shapes = (
{
closed = 1;
nodes = (
(1068,847,cs),
(1068,540,o),
(815,527,o),
(558,527,cs),
(442,527,l),
(442,86,l),
(771,86,ls),
(804,86,o),
(820,64,o),
(820,43,cs),
(820,21,o),
(803,0,o),
(770,0,cs),
(174,0,ls),
(140,0,o),
(123,21,o),
(123,43,cs),
(123,64,o),
(140,86,o),
(173,86,cs),
(346,86,l),
(346,1085,l),
(187,1085,ls),
(154,1085,o),
(138,1106,o),
(138,1127,cs),
(138,1149,o),
(155,1171,o),
(188,1171,cs),
(532,1171,ls),
(802,1171,o),
(1068,1154,o)
);
},
{
closed = 1;
nodes = (
(972,843,cs),
(972,1085,o),
(742,1085,o),
(552,1085,cs),
(442,1085,l),
(442,607,l),
(594,607,ls),
(788,607,o),
(972,616,o)
);
}
);
width = 1240;
}
);
unicode = 80;
},
{
glyphname = Pdotaccent;
lastChange = "2024-05-02 14:32:25 +0000";
layers = (
{
background = {
shapes = (
{
closed = 1;
nodes = (
(596,1474,cs),
(642,1474,o),
(678,1437,o),
(678,1391,cs),
(678,1345,o),
(642,1309,o),
(596,1309,cs),
(550,1309,o),
(513,1345,o),
(513,1391,cs),
(513,1437,o),
(550,1474,o)
);
},
{
closed = 1;
nodes = (
(1068,847,cs),
(1068,540,o),
(815,527,o),
(558,527,cs),
(442,527,l),
(442,86,l),
(771,86,ls),
(804,86,o),
(820,64,o),
(820,43,cs),
(820,21,o),
(803,0,o),
(770,0,cs),
(174,0,ls),
(140,0,o),
(123,21,o),
(123,43,cs),
(123,64,o),
(140,86,o),
(173,86,cs),
(346,86,l),
(346,1085,l),
(187,1085,ls),
(154,1085,o),
(138,1106,o),
(138,1127,cs),
(138,1149,o),
(155,1171,o),
(188,1171,cs),
(532,1171,ls),
(802,1171,o),
(1068,1154,o)
);
},
{
closed = 1;
nodes = (
(972,843,cs),
(972,1085,o),
(742,1085,o),
(552,1085,cs),
(442,1085,l),
(442,607,l),
(594,607,ls),
(788,607,o),
(972,616,o)
);
}
);
};
layerId = "840BD324-B0A6-42B0-BD23-CB5E8C19394F";
shapes = (
{
pos = (-48,661);
ref = dotaccentcomb;
},
{
ref = P;
}
);
width = 1240;
}
);
unicode = 7766;
},
{
glyphname = Thorn;
lastChange = "2024-05-02 14:32:13 +0000";
layers = (
{
background = {
shapes = (
{
closed = 1;
nodes = (
(971,626,cs),
(971,802,o),
(856,851,o),
(429,851,c),
(429,392,l),
(830,392,o),
(971,433,o)
);
},
{
closed = 1;
nodes = (
(1067,619,cs),
(1067,321,o),
(724,318,o),
(429,318,c),
(429,82,l),
(656,82,ls),
(689,82,o),
(695,61,o),
(695,41,cs),
(695,20,o),
(688,0,o),
(655,0,cs),
(109,0,ls),
(75,0,o),
(68,20,o),
(68,41,cs),
(68,61,o),
(75,82,o),
(108,82,cs),
(333,82,l),
(333,1085,l),
(121,1085,ls),
(88,1085,o),
(82,1106,o),
(82,1127,cs),
(82,1149,o),
(89,1171,o),
(123,1171,cs),
(600,1171,ls),
(627,1171,o),
(631,1151,o),
(631,1130,cs),
(631,1108,o),
(625,1085,o),
(592,1085,cs),
(429,1085,l),
(429,928,l),
(743,928,o),
(1067,927,o)
);
}
);
};
layerId = "840BD324-B0A6-42B0-BD23-CB5E8C19394F";
shapes = (
{
closed = 1;
nodes = (
(971,626,cs),
(971,802,o),
(856,851,o),
(429,851,c),
(429,392,l),
(830,392,o),
(971,433,o)
);
},
{
closed = 1;
nodes = (
(1067,619,cs),
(1067,321,o),
(724,318,o),
(429,318,c),
(429,82,l),
(656,82,ls),
(689,82,o),
(695,61,o),
(695,41,cs),
(695,20,o),
(688,0,o),
(655,0,cs),
(109,0,ls),
(75,0,o),
(68,20,o),
(68,41,cs),
(68,61,o),
(75,82,o),
(108,82,cs),
(333,82,l),
(333,1085,l),
(121,1085,ls),
(88,1085,o),
(82,1106,o),
(82,1127,cs),
(82,1149,o),
(89,1171,o),
(123,1171,cs),
(600,1171,ls),
(627,1171,o),
(631,1151,o),
(631,1130,cs),
(631,1108,o),
(625,1085,o),
(592,1085,cs),
(429,1085,l),
(429,928,l),
(743,928,o),
(1067,927,o)
);
}
);
width = 1240;
}
);
unicode = 222;
},
{
glyphname = Q;
lastChange = "2024-05-02 14:32:13 +0000";
layers = (
{
background = {
shapes = (
{
closed = 1;
nodes = (
(1036,842,o),
(896,1101,o),
(620,1101,cs),
(344,1101,o),
(204,842,o),
(204,582,cs),
(204,326,o),
(340,69,o),
(620,69,cs),
(900,69,o),
(1036,326,o),
(1036,582,cs)
);
},
{
closed = 1;
nodes = (
(241,53,o),
(108,316,o),
(108,582,cs),
(108,883,o),
(279,1187,o),
(620,1187,cs),
(961,1187,o),
(1132,883,o),
(1132,582,cs),
(1132,286,o),
(967,-8,o),
(636,-17,c),
(722,-108,ls),
(754,-141,o),
(790,-162,o),
(836,-162,cs),
(882,-162,o),
(938,-142,o),
(1008,-95,cs),
(1018,-88,o),
(1028,-86,o),
(1037,-86,cs),
(1059,-86,o),
(1077,-108,o),
(1077,-130,cs),
(1077,-144,o),
(1070,-159,o),
(1054,-169,c),
(1002,-218,o),
(901,-246,o),
(854,-246,cs),
(696,-246,o),
(646,-177,o),
(506,-5,c)
);
}
);
};
layerId = "840BD324-B0A6-42B0-BD23-CB5E8C19394F";
shapes = (
{
closed = 1;
nodes = (
(1036,842,o),
(896,1101,o),
(620,1101,cs),
(344,1101,o),
(204,842,o),
(204,582,cs),
(204,326,o),
(340,69,o),
(620,69,cs),
(900,69,o),
(1036,326,o),
(1036,582,cs)
);
},
{
closed = 1;
nodes = (
(241,53,o),
(108,316,o),
(108,582,cs),
(108,883,o),
(279,1187,o),
(620,1187,cs),
(961,1187,o),
(1132,883,o),
(1132,582,cs),
(1132,286,o),
(967,-8,o),
(636,-17,c),
(722,-108,ls),
(754,-141,o),
(790,-162,o),
(836,-162,cs),
(882,-162,o),
(938,-142,o),
(1008,-95,cs),
(1018,-88,o),
(1028,-86,o),
(1037,-86,cs),
(1059,-86,o),
(1077,-108,o),
(1077,-130,cs),
(1077,-144,o),
(1070,-159,o),
(1054,-169,c),
(1002,-218,o),
(901,-246,o),
(854,-246,cs),
(696,-246,o),
(646,-177,o),
(506,-5,c)
);
}
);
width = 1240;
}
);
unicode = 81;
},
{
glyphname = R;
lastChange = "2024-05-02 14:32:13 +0000";
layers = (
{
background = {
shapes = (
{
closed = 1;
nodes = (
(658,41,cs),
(658,21,o),
(642,0,o),
(608,0,cs),
(209,0,ls),
(175,0,o),
(158,21,o),
(158,41,cs),
(158,62,o),
(175,82,o),
(208,82,cs),
(333,82,l),
(333,1085,l),
(236,1085,ls),
(203,1085,o),
(186,1106,o),
(186,1127,cs),
(186,1149,o),
(203,1171,o),
(237,1171,cs),
(557,1171,ls),
(847,1171,o),
(1047,1124,o),
(1047,853,cs),
(1047,699,o),
(945,616,o),
(841,578,c),
(1045,82,l),
(1129,82,ls),
(1179,82,o),
(1193,62,o),
(1193,42,cs),
(1193,21,o),
(1177,0,o),
(1130,0,cs),
(895,0,ls),
(861,0,o),
(844,21,o),
(844,42,cs),
(844,62,o),
(860,82,o),
(893,82,cs),
(944,82,l),
(764,556,l),
(750,551,o),
(651,542,o),
(604,542,cs),
(429,542,l),
(429,82,l),
(609,82,ls),
(642,82,o),
(658,62,o)
);
},
{
closed = 1;
nodes = (
(429,619,l),
(536,619,ls),
(784,619,o),
(951,647,o),
(951,846,cs),
(951,1050,o),
(838,1085,o),
(556,1085,cs),
(429,1085,l)
);
}
);
};
layerId = "840BD324-B0A6-42B0-BD23-CB5E8C19394F";
shapes = (
{
closed = 1;
nodes = (
(658,41,cs),
(658,21,o),
(642,0,o),
(608,0,cs),
(209,0,ls),
(175,0,o),
(158,21,o),
(158,41,cs),
(158,62,o),
(175,82,o),
(208,82,cs),
(333,82,l),
(333,1085,l),
(236,1085,ls),
(203,1085,o),
(186,1106,o),
(186,1127,cs),
(186,1149,o),
(203,1171,o),
(237,1171,cs),
(557,1171,ls),
(847,1171,o),
(1047,1124,o),
(1047,853,cs),
(1047,699,o),
(945,616,o),
(841,578,c),
(1045,82,l),
(1129,82,ls),
(1179,82,o),
(1193,62,o),
(1193,42,cs),
(1193,21,o),
(1177,0,o),
(1130,0,cs),
(895,0,ls),
(861,0,o),
(844,21,o),
(844,42,cs),
(844,62,o),
(860,82,o),
(893,82,cs),
(944,82,l),
(764,556,l),
(750,551,o),
(651,542,o),
(604,542,cs),
(429,542,l),
(429,82,l),
(609,82,ls),
(642,82,o),
(658,62,o)
);
},
{
closed = 1;
nodes = (
(429,619,l),
(536,619,ls),
(784,619,o),
(951,647,o),
(951,846,cs),
(951,1050,o),
(838,1085,o),
(556,1085,cs),
(429,1085,l)
);
}
);
width = 1240;
}
);
unicode = 82;
},
{
glyphname = Racute;
lastChange = "2024-05-02 14:32:21 +0000";
layers = (
{
background = {
shapes = (
{
closed = 1;
nodes = (
(847,1588,cs),
(525,1354,ls),
(522,1351,o),
(518,1350,o),
(514,1350,cs),
(502,1350,o),
(490,1360,o),
(490,1372,cs),
(490,1377,o),
(492,1382,o),
(497,1387,cs),
(768,1663,ls),
(778,1673,o),
(788,1677,o),
(799,1677,cs),
(830,1677,o),
(861,1644,o),
(861,1616,cs),
(861,1606,o),
(857,1595,o)
);
},
{
closed = 1;
nodes = (
(658,41,cs),
(658,21,o),
(642,0,o),
(608,0,cs),
(209,0,ls),
(175,0,o),
(158,21,o),
(158,41,cs),
(158,62,o),
(175,82,o),
(208,82,cs),
(333,82,l),
(333,1085,l),
(236,1085,ls),
(203,1085,o),
(186,1106,o),
(186,1127,cs),
(186,1149,o),
(203,1171,o),
(237,1171,cs),
(557,1171,ls),
(847,1171,o),
(1047,1124,o),
(1047,853,cs),
(1047,699,o),
(945,616,o),
(841,578,c),
(1045,82,l),
(1129,82,ls),
(1179,82,o),
(1193,62,o),
(1193,42,cs),
(1193,21,o),
(1177,0,o),
(1130,0,cs),
(895,0,ls),
(861,0,o),
(844,21,o),
(844,42,cs),
(844,62,o),
(860,82,o),
(893,82,cs),
(944,82,l),
(764,556,l),
(750,551,o),
(651,542,o),
(604,542,cs),
(429,542,l),
(429,82,l),
(609,82,ls),
(642,82,o),
(658,62,o)
);
},
{
closed = 1;
nodes = (
(429,619,l),
(536,619,ls),
(784,619,o),
(951,647,o),
(951,846,cs),
(951,1050,o),
(838,1085,o),
(556,1085,cs),
(429,1085,l)
);
}
);
};
layerId = "840BD324-B0A6-42B0-BD23-CB5E8C19394F";
shapes = (
{
pos = (-11,372);
ref = acute;
},
{
ref = R;
}
);
width = 1240;
}
);
unicode = 340;
},
{
glyphname = Rcaron;
lastChange = "2024-05-02 14:32:21 +0000";
layers = (
{
background = {
shapes = (
{
closed = 1;
nodes = (
(675,1350,cs),
(662,1350,o),
(649,1353,o),
(644,1361,cs),
(460,1644,l),
(455,1649,o),
(453,1656,o),
(453,1661,cs),
(453,1677,o),
(472,1691,o),
(490,1691,cs),
(498,1691,o),
(508,1690,o),
(513,1682,cs),
(675,1473,l),
(838,1682,ls),
(843,1690,o),
(853,1691,o),
(861,1691,cs),
(879,1691,o),
(898,1677,o),
(898,1661,cs),
(898,1656,o),
(896,1649,o),
(891,1644,c),
(707,1361,ls),
(702,1353,o),
(688,1350,o)
);
},
{
closed = 1;
nodes = (
(658,41,cs),
(658,21,o),
(642,0,o),
(608,0,cs),
(209,0,ls),
(175,0,o),
(158,21,o),
(158,41,cs),
(158,62,o),
(175,82,o),
(208,82,cs),
(333,82,l),
(333,1085,l),
(236,1085,ls),
(203,1085,o),
(186,1106,o),
(186,1127,cs),
(186,1149,o),
(203,1171,o),
(237,1171,cs),
(557,1171,ls),
(847,1171,o),
(1047,1124,o),
(1047,853,cs),
(1047,699,o),
(945,616,o),
(841,578,c),
(1045,82,l),
(1129,82,ls),
(1179,82,o),
(1193,62,o),
(1193,42,cs),
(1193,21,o),
(1177,0,o),
(1130,0,cs),
(895,0,ls),
(861,0,o),
(844,21,o),
(844,42,cs),
(844,62,o),
(860,82,o),
(893,82,cs),
(944,82,l),
(764,556,l),
(750,551,o),
(651,542,o),
(604,542,cs),
(429,542,l),
(429,82,l),
(609,82,ls),
(642,82,o),
(658,62,o)
);
},
{
closed = 1;
nodes = (
(429,619,l),
(536,619,ls),
(784,619,o),
(951,647,o),
(951,846,cs),
(951,1050,o),
(838,1085,o),
(556,1085,cs),
(429,1085,l)
);
}
);
};
layerId = "840BD324-B0A6-42B0-BD23-CB5E8C19394F";
shapes = (
{
pos = (-24,371);
ref = caron;
},
{
ref = R;
}
);
width = 1240;
}
);
unicode = 344;
},
{
glyphname = Rcommaaccent;
lastChange = "2024-05-02 14:32:21 +0000";
layers = (
{
background = {
shapes = (
{
closed = 1;
nodes = (
(685,-163,cs),
(745,-163,o),
(787,-192,o),
(787,-272,cs),
(787,-388,o),
(684,-498,o),
(602,-539,cs),
(599,-541,o),
(595,-541,o),
(592,-541,cs),
(578,-541,o),
(564,-528,o),
(564,-514,cs),
(564,-507,o),
(568,-499,o),
(576,-493,cs),
(619,-462,o),
(699,-401,o),
(699,-339,c),
(640,-339,o),
(593,-313,o),
(593,-248,cs),
(593,-184,o),
(638,-163,o)
);
},
{
closed = 1;
nodes = (
(658,41,cs),
(658,21,o),
(642,0,o),
(608,0,cs),
(209,0,ls),
(175,0,o),
(158,21,o),
(158,41,cs),
(158,62,o),
(175,82,o),
(208,82,cs),
(333,82,l),
(333,1085,l),
(236,1085,ls),
(203,1085,o),
(186,1106,o),
(186,1127,cs),
(186,1149,o),
(203,1171,o),
(237,1171,cs),
(557,1171,ls),
(847,1171,o),
(1047,1124,o),
(1047,853,cs),
(1047,699,o),
(945,616,o),
(841,578,c),
(1045,82,l),
(1129,82,ls),
(1179,82,o),
(1193,62,o),
(1193,42,cs),
(1193,21,o),
(1177,0,o),
(1130,0,cs),
(895,0,ls),
(861,0,o),
(844,21,o),
(844,42,cs),
(844,62,o),
(860,82,o),
(893,82,cs),
(944,82,l),
(764,556,l),
(750,551,o),
(651,542,o),
(604,542,cs),
(429,542,l),
(429,82,l),
(609,82,ls),
(642,82,o),
(658,62,o)
);
},
{
closed = 1;
nodes = (
(429,619,l),
(536,619,ls),
(784,619,o),
(951,647,o),
(951,846,cs),
(951,1050,o),
(838,1085,o),
(556,1085,cs),
(429,1085,l)
);
}
);
};
layerId = "840BD324-B0A6-42B0-BD23-CB5E8C19394F";
shapes = (
{
pos = (26,-331);
ref = commaaccentcomb;
},
{
ref = R;
}
);
width = 1240;
}
);
unicode = 342;
},
{
glyphname = Rdblgrave;
lastChange = "2024-05-02 14:32:25 +0000";
layers = (
{
background = {
shapes = (
{
closed = 1;
nodes = (
(260,1588,ls),
(250,1595,o),
(246,1606,o),
(246,1616,cs),
(246,1644,o),
(276,1677,o),
(307,1677,cs),
(318,1677,o),
(329,1673,o),
(339,1663,cs),
(610,1387,ls),
(615,1382,o),
(616,1377,o),
(616,1372,cs),
(616,1360,o),
(605,1350,o),
(593,1350,cs),
(589,1350,o),
(585,1351,o),
(582,1354,cs)
);
},
{
closed = 1;
nodes = (
(570,1608,l),
(560,1615,o),
(556,1626,o),
(556,1636,cs),
(556,1664,o),
(586,1697,o),
(617,1697,cs),
(628,1697,o),
(639,1693,o),
(649,1683,c),
(880,1387,ls),
(885,1382,o),
(886,1377,o),
(886,1372,cs),
(886,1360,o),
(875,1350,o),
(863,1350,cs),
(859,1350,o),
(855,1351,o),
(852,1354,cs)
);
},
{
closed = 1;
nodes = (
(658,41,cs),
(658,21,o),
(642,0,o),
(608,0,cs),
(209,0,ls),
(175,0,o),
(158,21,o),
(158,41,cs),
(158,62,o),
(175,82,o),
(208,82,cs),
(333,82,l),
(333,1085,l),
(236,1085,ls),
(203,1085,o),
(186,1106,o),
(186,1127,cs),
(186,1149,o),
(203,1171,o),
(237,1171,cs),
(557,1171,ls),
(847,1171,o),
(1047,1124,o),
(1047,853,cs),
(1047,699,o),
(945,616,o),
(841,578,c),
(1045,82,l),
(1129,82,ls),
(1179,82,o),
(1193,62,o),
(1193,42,cs),
(1193,21,o),
(1177,0,o),
(1130,0,cs),
(895,0,ls),
(861,0,o),
(844,21,o),
(844,42,cs),
(844,62,o),
(860,82,o),
(893,82,cs),
(944,82,l),
(764,556,l),
(750,551,o),
(651,542,o),
(604,542,cs),
(429,542,l),
(429,82,l),
(609,82,ls),
(642,82,o),
(658,62,o)
);
},
{
closed = 1;
nodes = (
(429,619,l),
(536,619,ls),
(784,619,o),
(951,647,o),
(951,846,cs),
(951,1050,o),
(838,1085,o),
(556,1085,cs),
(429,1085,l)
);
}
);
};
layerId = "840BD324-B0A6-42B0-BD23-CB5E8C19394F";
shapes = (
{
pos = (-54,444);
ref = dblgravecomb;
},
{
ref = R;
}
);
width = 1240;
}
);
unicode = 528;
},
{
glyphname = Rinvertedbreve;
lastChange = "2024-05-02 14:32:25 +0000";
layers = (
{
background = {
shapes = (
{
closed = 1;
nodes = (
(676,1470,cs),
(616,1470,o),
(557,1434,o),
(546,1366,c),
(542,1354,o),
(533,1350,o),
(523,1350,cs),
(507,1350,o),
(489,1362,o),
(489,1374,cs),
(489,1499,o),
(615,1528,o),
(676,1528,cs),
(737,1528,o),
(863,1499,o),
(863,1374,cs),
(863,1362,o),
(845,1350,o),
(829,1350,cs),
(819,1350,o),
(810,1354,o),
(806,1366,c),
(795,1434,o),
(736,1470,o)
);
},
{
closed = 1;
nodes = (
(658,41,cs),
(658,21,o),
(642,0,o),
(608,0,cs),
(209,0,ls),
(175,0,o),
(158,21,o),
(158,41,cs),
(158,62,o),
(175,82,o),
(208,82,cs),
(333,82,l),
(333,1085,l),
(236,1085,ls),
(203,1085,o),
(186,1106,o),
(186,1127,cs),
(186,1149,o),
(203,1171,o),
(237,1171,cs),
(557,1171,ls),
(847,1171,o),
(1047,1124,o),
(1047,853,cs),
(1047,699,o),
(945,616,o),
(841,578,c),
(1045,82,l),
(1129,82,ls),
(1179,82,o),
(1193,62,o),
(1193,42,cs),
(1193,21,o),
(1177,0,o),
(1130,0,cs),
(895,0,ls),
(861,0,o),
(844,21,o),
(844,42,cs),
(844,62,o),
(860,82,o),
(893,82,cs),
(944,82,l),
(764,556,l),
(750,551,o),
(651,542,o),
(604,542,cs),
(429,542,l),
(429,82,l),
(609,82,ls),
(642,82,o),
(658,62,o)
);
},
{
closed = 1;
nodes = (
(429,619,l),
(536,619,ls),
(784,619,o),
(951,647,o),
(951,846,cs),
(951,1050,o),
(838,1085,o),
(556,1085,cs),
(429,1085,l)
);
}
);
};
layerId = "840BD324-B0A6-42B0-BD23-CB5E8C19394F";
shapes = (
{
pos = (56,380);
ref = breveinvertedcomb;
},
{
ref = R;
}
);
width = 1240;
}
);
unicode = 530;
},
{
glyphname = S;
lastChange = "2024-05-02 14:32:13 +0000";
layers = (
{
background = {
shapes = (
{
closed = 1;
nodes = (
(650,1101,cs),
(479,1101,o),
(378,1018,o),
(378,886,cs),
(378,748,o),
(453,724,o),
(615,668,cs),
(751,621,ls),
(945,554,o),
(1057,479,o),
(1057,308,cs),
(1057,71,o),
(881,-17,o),
(689,-17,cs),
(582,-17,o),
(437,27,o),
(363,105,c),
(363,28,o),
(347,-17,o),
(316,-17,cs),
(283,-17,o),
(268,0,o),
(268,57,cs),
(268,371,ls),
(268,403,o),
(288,418,o),
(312,418,cs),
(336,418,o),
(358,402,o),
(358,369,cs),
(358,250,ls),
(358,164,o),
(526,69,o),
(692,69,cs),
(838,69,o),
(961,133,o),
(961,304,cs),
(961,433,o),
(877,480,o),
(731,530,cs),
(567,586,ls),
(410,640,o),
(282,697,o),
(282,881,cs),
(282,1081,o),
(439,1187,o),
(627,1187,cs),
(723,1187,o),
(848,1171,o),
(917,1095,c),
(917,1154,o),
(931,1187,o),
(969,1187,cs),
(996,1187,o),
(1009,1169,o),
(1009,1117,cs),
(1009,864,ls),
(1009,828,o),
(988,811,o),
(963,811,cs),
(940,811,o),
(918,827,o),
(918,858,cs),
(918,949,l),
(906,1053,o),
(767,1101,o)
);
}
);
};
layerId = "840BD324-B0A6-42B0-BD23-CB5E8C19394F";
shapes = (
{
closed = 1;
nodes = (
(650,1101,cs),
(479,1101,o),
(378,1018,o),
(378,886,cs),
(378,748,o),
(453,724,o),
(615,668,cs),
(751,621,ls),
(945,554,o),
(1057,479,o),
(1057,308,cs),
(1057,71,o),
(881,-17,o),
(689,-17,cs),
(582,-17,o),
(437,27,o),
(363,105,c),
(363,28,o),
(347,-17,o),
(316,-17,cs),
(283,-17,o),
(268,0,o),
(268,57,cs),
(268,371,ls),
(268,403,o),
(288,418,o),
(312,418,cs),
(336,418,o),
(358,402,o),
(358,369,cs),
(358,250,ls),
(358,164,o),
(526,69,o),
(692,69,cs),
(838,69,o),
(961,133,o),
(961,304,cs),
(961,433,o),
(877,480,o),
(731,530,cs),
(567,586,ls),
(410,640,o),
(282,697,o),
(282,881,cs),
(282,1081,o),
(439,1187,o),
(627,1187,cs),
(723,1187,o),
(848,1171,o),
(917,1095,c),
(917,1154,o),
(931,1187,o),
(969,1187,cs),
(996,1187,o),
(1009,1169,o),
(1009,1117,cs),
(1009,864,ls),
(1009,828,o),
(988,811,o),
(963,811,cs),
(940,811,o),
(918,827,o),
(918,858,cs),
(918,949,l),
(906,1053,o),
(767,1101,o)
);
}
);
width = 1240;
}
);
unicode = 83;
},
{
glyphname = Sacute;
lastChange = "2024-05-02 14:32:21 +0000";
layers = (
{
background = {
shapes = (
{
closed = 1;
nodes = (
(834,1588,cs),
(512,1354,ls),
(509,1351,o),
(505,1350,o),
(501,1350,cs),
(489,1350,o),
(477,1360,o),
(477,1372,cs),
(477,1377,o),
(479,1382,o),
(484,1387,cs),
(755,1663,ls),
(765,1673,o),
(775,1677,o),
(786,1677,cs),
(817,1677,o),
(848,1644,o),
(848,1616,cs),
(848,1606,o),
(844,1595,o)
);
},
{
closed = 1;
nodes = (
(650,1101,cs),
(479,1101,o),
(378,1018,o),
(378,886,cs),
(378,748,o),
(453,724,o),
(615,668,cs),
(751,621,ls),
(945,554,o),
(1057,479,o),
(1057,308,cs),
(1057,71,o),
(881,-17,o),
(689,-17,cs),
(582,-17,o),
(437,27,o),
(363,105,c),
(363,28,o),
(347,-17,o),
(316,-17,cs),
(283,-17,o),
(268,0,o),
(268,57,cs),
(268,371,ls),
(268,403,o),
(288,418,o),
(312,418,cs),
(336,418,o),
(358,402,o),
(358,369,cs),
(358,250,ls),
(358,164,o),
(526,69,o),
(692,69,cs),
(838,69,o),
(961,133,o),
(961,304,cs),
(961,433,o),
(877,480,o),
(731,530,cs),
(567,586,ls),
(410,640,o),
(282,697,o),
(282,881,cs),
(282,1081,o),
(439,1187,o),
(627,1187,cs),
(723,1187,o),
(848,1171,o),
(917,1095,c),
(917,1154,o),
(931,1187,o),
(969,1187,cs),
(996,1187,o),
(1009,1169,o),
(1009,1117,cs),
(1009,864,ls),
(1009,828,o),
(988,811,o),
(963,811,cs),
(940,811,o),
(918,827,o),
(918,858,cs),
(918,949,l),
(906,1053,o),
(767,1101,o)
);
}
);
};
layerId = "840BD324-B0A6-42B0-BD23-CB5E8C19394F";
shapes = (
{
pos = (-24,372);
ref = acute;
},
{
ref = S;
}
);
width = 1240;
}
);
unicode = 346;
},
{
glyphname = Scaron;
lastChange = "2024-05-02 14:32:21 +0000";
layers = (
{
background = {
shapes = (
{
closed = 1;
nodes = (
(662,1350,cs),
(649,1350,o),
(636,1353,o),
(631,1361,cs),
(447,1644,l),
(442,1649,o),
(440,1656,o),
(440,1661,cs),
(440,1677,o),
(459,1691,o),
(477,1691,cs),
(485,1691,o),
(495,1690,o),
(500,1682,cs),
(662,1473,l),
(825,1682,ls),
(830,1690,o),
(840,1691,o),
(848,1691,cs),
(866,1691,o),
(885,1677,o),
(885,1661,cs),
(885,1656,o),
(883,1649,o),
(878,1644,c),
(694,1361,ls),
(689,1353,o),
(675,1350,o)
);
},
{
closed = 1;
nodes = (
(650,1101,cs),
(479,1101,o),
(378,1018,o),
(378,886,cs),
(378,748,o),
(453,724,o),
(615,668,cs),
(751,621,ls),
(945,554,o),
(1057,479,o),
(1057,308,cs),
(1057,71,o),
(881,-17,o),
(689,-17,cs),
(582,-17,o),
(437,27,o),
(363,105,c),
(363,28,o),
(347,-17,o),
(316,-17,cs),
(283,-17,o),
(268,0,o),
(268,57,cs),
(268,371,ls),
(268,403,o),
(288,418,o),
(312,418,cs),
(336,418,o),
(358,402,o),
(358,369,cs),
(358,250,ls),
(358,164,o),
(526,69,o),
(692,69,cs),
(838,69,o),
(961,133,o),
(961,304,cs),
(961,433,o),
(877,480,o),
(731,530,cs),
(567,586,ls),
(410,640,o),
(282,697,o),
(282,881,cs),
(282,1081,o),
(439,1187,o),
(627,1187,cs),
(723,1187,o),
(848,1171,o),
(917,1095,c),
(917,1154,o),
(931,1187,o),
(969,1187,cs),
(996,1187,o),
(1009,1169,o),
(1009,1117,cs),
(1009,864,ls),
(1009,828,o),
(988,811,o),
(963,811,cs),
(940,811,o),
(918,827,o),
(918,858,cs),
(918,949,l),
(906,1053,o),
(767,1101,o)
);
}
);
};
layerId = "840BD324-B0A6-42B0-BD23-CB5E8C19394F";
shapes = (
{
pos = (-37,371);
ref = caron;
},
{
ref = S;
}
);
width = 1240;
}
);
unicode = 352;
},
{
glyphname = Scedilla;
lastChange = "2024-05-02 14:32:21 +0000";
layers = (
{
background = {
shapes = (
{
closed = 1;
nodes = (
(681,-4,l),
(640,-325,ls),
(633,-386,o),
(604,-405,o),
(578,-405,cs),
(547,-405,o),
(529,-384,o),
(529,-351,cs),
(529,-339,o),
(532,-325,o),
(537,-310,cs),
(644,-4,l)
);
},
{
closed = 1;
nodes = (
(650,1101,cs),
(479,1101,o),
(378,1018,o),
(378,886,cs),
(378,748,o),
(453,724,o),
(615,668,cs),
(751,621,ls),
(945,554,o),
(1057,479,o),
(1057,308,cs),
(1057,71,o),
(881,-17,o),
(689,-17,cs),
(582,-17,o),
(437,27,o),
(363,105,c),
(363,28,o),
(347,-17,o),
(316,-17,cs),
(283,-17,o),
(268,0,o),
(268,57,cs),
(268,371,ls),
(268,403,o),
(288,418,o),
(312,418,cs),
(336,418,o),
(358,402,o),
(358,369,cs),
(358,250,ls),
(358,164,o),
(526,69,o),
(692,69,cs),
(838,69,o),
(961,133,o),
(961,304,cs),
(961,433,o),
(877,480,o),
(731,530,cs),
(567,586,ls),
(410,640,o),
(282,697,o),
(282,881,cs),
(282,1081,o),
(439,1187,o),
(627,1187,cs),
(723,1187,o),
(848,1171,o),
(917,1095,c),
(917,1154,o),
(931,1187,o),
(969,1187,cs),
(996,1187,o),
(1009,1169,o),
(1009,1117,cs),
(1009,864,ls),
(1009,828,o),
(988,811,o),
(963,811,cs),
(940,811,o),
(918,827,o),
(918,858,cs),
(918,949,l),
(906,1053,o),
(767,1101,o)
);
}
);
};
layerId = "840BD324-B0A6-42B0-BD23-CB5E8C19394F";
shapes = (
{
pos = (501,-4);
ref = cedilla;
},
{
ref = S;
}
);
width = 1240;
}
);
unicode = 350;
},
{
glyphname = Scircumflex;
lastChange = "2024-05-02 14:32:21 +0000";
layers = (
{
background = {
shapes = (
{
closed = 1;
nodes = (
(662,1691,cs),
(675,1691,o),
(689,1687,o),
(694,1679,cs),
(878,1396,l),
(883,1391,o),
(885,1384,o),
(885,1379,cs),
(885,1363,o),
(866,1350,o),
(848,1350,cs),
(840,1350,o),
(830,1351,o),
(825,1359,cs),
(662,1568,l),
(500,1359,ls),
(495,1351,o),
(485,1350,o),
(477,1350,cs),
(459,1350,o),
(440,1363,o),
(440,1379,cs),
(440,1384,o),
(442,1391,o),
(447,1396,c),
(631,1679,ls),
(636,1687,o),
(649,1691,o)
);
},
{
closed = 1;
nodes = (
(650,1101,cs),
(479,1101,o),
(378,1018,o),
(378,886,cs),
(378,748,o),
(453,724,o),
(615,668,cs),
(751,621,ls),
(945,554,o),
(1057,479,o),
(1057,308,cs),
(1057,71,o),
(881,-17,o),
(689,-17,cs),
(582,-17,o),
(437,27,o),
(363,105,c),
(363,28,o),
(347,-17,o),
(316,-17,cs),
(283,-17,o),
(268,0,o),
(268,57,cs),
(268,371,ls),
(268,403,o),
(288,418,o),
(312,418,cs),
(336,418,o),
(358,402,o),
(358,369,cs),
(358,250,ls),
(358,164,o),
(526,69,o),
(692,69,cs),
(838,69,o),
(961,133,o),
(961,304,cs),
(961,433,o),
(877,480,o),
(731,530,cs),
(567,586,ls),
(410,640,o),
(282,697,o),
(282,881,cs),
(282,1081,o),
(439,1187,o),
(627,1187,cs),
(723,1187,o),
(848,1171,o),
(917,1095,c),
(917,1154,o),
(931,1187,o),
(969,1187,cs),
(996,1187,o),
(1009,1169,o),
(1009,1117,cs),
(1009,864,ls),
(1009,828,o),
(988,811,o),
(963,811,cs),
(940,811,o),
(918,827,o),
(918,858,cs),
(918,949,l),
(906,1053,o),
(767,1101,o)
);
}
);
};
layerId = "840BD324-B0A6-42B0-BD23-CB5E8C19394F";
shapes = (
{
pos = (-37,371);
ref = circumflex;
},
{
ref = S;
}
);
width = 1240;
}
);
unicode = 348;
},
{
glyphname = Scommaaccent;
lastChange = "2024-05-02 14:32:21 +0000";
layers = (
{
background = {
shapes = (
{
closed = 1;
nodes = (
(672,-180,cs),
(732,-180,o),
(774,-209,o),
(774,-289,cs),
(774,-405,o),
(671,-515,o),
(589,-556,cs),
(586,-558,o),
(582,-558,o),
(579,-558,cs),
(565,-558,o),
(551,-545,o),
(551,-531,cs),
(551,-524,o),
(555,-516,o),
(563,-510,cs),
(606,-479,o),
(686,-418,o),
(686,-356,c),
(627,-356,o),
(580,-330,o),
(580,-265,cs),
(580,-201,o),
(625,-180,o)
);
},
{
closed = 1;
nodes = (
(650,1101,cs),
(479,1101,o),
(378,1018,o),
(378,886,cs),
(378,748,o),
(453,724,o),
(615,668,cs),
(751,621,ls),
(945,554,o),
(1057,479,o),
(1057,308,cs),
(1057,71,o),
(881,-17,o),
(689,-17,cs),
(582,-17,o),
(437,27,o),
(363,105,c),
(363,28,o),
(347,-17,o),
(316,-17,cs),
(283,-17,o),
(268,0,o),
(268,57,cs),
(268,371,ls),
(268,403,o),
(288,418,o),
(312,418,cs),
(336,418,o),
(358,402,o),
(358,369,cs),
(358,250,ls),
(358,164,o),
(526,69,o),
(692,69,cs),
(838,69,o),
(961,133,o),
(961,304,cs),
(961,433,o),
(877,480,o),
(731,530,cs),
(567,586,ls),
(410,640,o),
(282,697,o),
(282,881,cs),
(282,1081,o),
(439,1187,o),
(627,1187,cs),
(723,1187,o),
(848,1171,o),
(917,1095,c),
(917,1154,o),
(931,1187,o),
(969,1187,cs),
(996,1187,o),
(1009,1169,o),
(1009,1117,cs),
(1009,864,ls),
(1009,828,o),
(988,811,o),
(963,811,cs),
(940,811,o),
(918,827,o),
(918,858,cs),
(918,949,l),
(906,1053,o),
(767,1101,o)
);
}
);
};
layerId = "840BD324-B0A6-42B0-BD23-CB5E8C19394F";
shapes = (
{
pos = (13,-348);
ref = commaaccentcomb;
},
{
ref = S;
}
);
width = 1240;
}
);
unicode = 536;
},
{
glyphname = Sdotaccent;
lastChange = "2024-05-02 14:32:25 +0000";
layers = (
{
background = {
shapes = (
{
closed = 1;
nodes = (
(663,1474,cs),
(709,1474,o),
(745,1437,o),
(745,1391,cs),
(745,1345,o),
(709,1309,o),
(663,1309,cs),
(617,1309,o),
(580,1345,o),
(580,1391,cs),
(580,1437,o),
(617,1474,o)
);
},
{
closed = 1;
nodes = (
(650,1101,cs),
(479,1101,o),
(378,1018,o),
(378,886,cs),
(378,748,o),
(453,724,o),
(615,668,cs),
(751,621,ls),
(945,554,o),
(1057,479,o),
(1057,308,cs),
(1057,71,o),
(881,-17,o),
(689,-17,cs),
(582,-17,o),
(437,27,o),
(363,105,c),
(363,28,o),
(347,-17,o),
(316,-17,cs),
(283,-17,o),
(268,0,o),
(268,57,cs),
(268,371,ls),
(268,403,o),
(288,418,o),
(312,418,cs),
(336,418,o),
(358,402,o),
(358,369,cs),
(358,250,ls),
(358,164,o),
(526,69,o),
(692,69,cs),
(838,69,o),
(961,133,o),
(961,304,cs),
(961,433,o),
(877,480,o),
(731,530,cs),
(567,586,ls),
(410,640,o),
(282,697,o),
(282,881,cs),
(282,1081,o),
(439,1187,o),
(627,1187,cs),
(723,1187,o),
(848,1171,o),
(917,1095,c),
(917,1154,o),
(931,1187,o),
(969,1187,cs),
(996,1187,o),
(1009,1169,o),
(1009,1117,cs),
(1009,864,ls),
(1009,828,o),
(988,811,o),
(963,811,cs),
(940,811,o),
(918,827,o),
(918,858,cs),
(918,949,l),
(906,1053,o),
(767,1101,o)
);
}
);
};
layerId = "840BD324-B0A6-42B0-BD23-CB5E8C19394F";
shapes = (
{
pos = (19,661);
ref = dotaccentcomb;
},
{
ref = S;
}
);
width = 1240;
}
);
unicode = 7776;
},
{
glyphname = T;
lastChange = "2024-05-02 14:32:13 +0000";
layers = (
{
background = {
shapes = (
{
closed = 1;
nodes = (
(210,814,ls),
(208,783,o),
(189,769,o),
(169,769,cs),
(145,769,o),
(120,788,o),
(120,823,cs),
(120,1117,ls),
(120,1153,o),
(131,1171,o),
(162,1171,cs),
(1078,1171,ls),
(1107,1171,o),
(1118,1152,o),
(1118,1117,cs),
(1118,823,ls),
(1118,788,o),
(1095,771,o),
(1072,771,cs),
(1051,771,o),
(1030,786,o),
(1028,814,cs),
(1018,1085,l),
(666,1085,l),
(666,86,l),
(908,86,ls),
(940,86,o),
(957,65,o),
(957,44,cs),
(957,22,o),
(939,0,o),
(906,0,cs),
(330,0,ls),
(296,0,o),
(278,22,o),
(278,44,cs),
(278,65,o),
(295,86,o),
(328,86,cs),
(570,86,l),
(570,1085,l),
(222,1085,l)
);
}
);
};
layerId = "840BD324-B0A6-42B0-BD23-CB5E8C19394F";
shapes = (
{
closed = 1;
nodes = (
(210,814,ls),
(208,783,o),
(189,769,o),
(169,769,cs),
(145,769,o),
(120,788,o),
(120,823,cs),
(120,1117,ls),
(120,1153,o),
(131,1171,o),
(162,1171,cs),
(1078,1171,ls),
(1107,1171,o),
(1118,1152,o),
(1118,1117,cs),
(1118,823,ls),
(1118,788,o),
(1095,771,o),
(1072,771,cs),
(1051,771,o),
(1030,786,o),
(1028,814,cs),
(1018,1085,l),
(666,1085,l),
(666,86,l),
(908,86,ls),
(940,86,o),
(957,65,o),
(957,44,cs),
(957,22,o),
(939,0,o),
(906,0,cs),
(330,0,ls),
(296,0,o),
(278,22,o),
(278,44,cs),
(278,65,o),
(295,86,o),
(328,86,cs),
(570,86,l),
(570,1085,l),
(222,1085,l)
);
}
);
width = 1240;
}
);
unicode = 84;
},
{
glyphname = Tbar;
lastChange = "2024-05-02 14:32:21 +0000";
layers = (
{
background = {
shapes = (
{
closed = 1;
nodes = (
(839,648,ls),
(872,648,o),
(878,630,o),
(878,611,cs),
(878,592,o),
(870,572,o),
(837,572,cs),
(404,572,ls),
(367,572,o),
(358,592,o),
(358,611,cs),
(358,630,o),
(365,648,o),
(400,648,cs)
);
},
{
closed = 1;
nodes = (
(210,814,ls),
(208,783,o),
(189,769,o),
(169,769,cs),
(145,769,o),
(120,788,o),
(120,823,cs),
(120,1117,ls),
(120,1153,o),
(131,1171,o),
(162,1171,cs),
(1078,1171,ls),
(1107,1171,o),
(1118,1152,o),
(1118,1117,cs),
(1118,823,ls),
(1118,788,o),
(1095,771,o),
(1072,771,cs),
(1051,771,o),
(1030,786,o),
(1028,814,cs),
(1018,1085,l),
(666,1085,l),
(666,86,l),
(908,86,ls),
(940,86,o),
(957,65,o),
(957,44,cs),
(957,22,o),
(939,0,o),
(906,0,cs),
(330,0,ls),
(296,0,o),
(278,22,o),
(278,44,cs),
(278,65,o),
(295,86,o),
(328,86,cs),
(570,86,l),
(570,1085,l),
(222,1085,l)
);
}
);
};
layerId = "840BD324-B0A6-42B0-BD23-CB5E8C19394F";
shapes = (
{
closed = 1;
nodes = (
(839,648,ls),
(872,648,o),
(878,630,o),
(878,611,cs),
(878,592,o),
(870,572,o),
(837,572,cs),
(404,572,ls),
(367,572,o),
(358,592,o),
(358,611,cs),
(358,630,o),
(365,648,o),
(400,648,cs)
);
},
{
ref = T;
}
);
width = 1240;
}
);
unicode = 358;
},
{
glyphname = Tcaron;
lastChange = "2024-05-02 14:32:21 +0000";
layers = (
{
background = {
shapes = (
{
closed = 1;
nodes = (
(619,1350,cs),
(606,1350,o),
(593,1353,o),
(588,1361,cs),
(404,1644,l),
(399,1649,o),
(397,1656,o),
(397,1661,cs),
(397,1677,o),
(416,1691,o),
(434,1691,cs),
(442,1691,o),
(452,1690,o),
(457,1682,cs),
(619,1473,l),
(782,1682,ls),
(787,1690,o),
(797,1691,o),
(805,1691,cs),
(823,1691,o),
(842,1677,o),
(842,1661,cs),
(842,1656,o),
(840,1649,o),
(835,1644,c),
(651,1361,ls),
(646,1353,o),
(632,1350,o)
);
},
{
closed = 1;
nodes = (
(210,814,ls),
(208,783,o),
(189,769,o),
(169,769,cs),
(145,769,o),
(120,788,o),
(120,823,cs),
(120,1117,ls),
(120,1153,o),
(131,1171,o),
(162,1171,cs),
(1078,1171,ls),
(1107,1171,o),
(1118,1152,o),
(1118,1117,cs),
(1118,823,ls),
(1118,788,o),
(1095,771,o),
(1072,771,cs),
(1051,771,o),
(1030,786,o),
(1028,814,cs),
(1018,1085,l),
(666,1085,l),
(666,86,l),
(908,86,ls),
(940,86,o),
(957,65,o),
(957,44,cs),
(957,22,o),
(939,0,o),
(906,0,cs),
(330,0,ls),
(296,0,o),
(278,22,o),
(278,44,cs),
(278,65,o),
(295,86,o),
(328,86,cs),
(570,86,l),
(570,1085,l),
(222,1085,l)
);
}
);
};
layerId = "840BD324-B0A6-42B0-BD23-CB5E8C19394F";
shapes = (
{
pos = (-80,371);
ref = caron;
},
{
ref = T;
}
);
width = 1240;
}
);
unicode = 356;
},
{
glyphname = Tcommaaccent;
lastChange = "2024-05-02 14:32:25 +0000";
layers = (
{
background = {
shapes = (
{
closed = 1;
nodes = (
(628,-163,cs),
(688,-163,o),
(730,-192,o),
(730,-272,cs),
(730,-388,o),
(627,-498,o),
(545,-539,cs),
(542,-541,o),
(538,-541,o),
(535,-541,cs),
(521,-541,o),
(507,-528,o),
(507,-514,cs),
(507,-507,o),
(511,-499,o),
(519,-493,cs),
(562,-462,o),
(642,-401,o),
(642,-339,c),
(583,-339,o),
(536,-313,o),
(536,-248,cs),
(536,-184,o),
(581,-163,o)
);
},
{
closed = 1;
nodes = (
(210,814,ls),
(208,783,o),
(189,769,o),
(169,769,cs),
(145,769,o),
(120,788,o),
(120,823,cs),
(120,1117,ls),
(120,1153,o),
(131,1171,o),
(162,1171,cs),
(1078,1171,ls),
(1107,1171,o),
(1118,1152,o),
(1118,1117,cs),
(1118,823,ls),
(1118,788,o),
(1095,771,o),
(1072,771,cs),
(1051,771,o),
(1030,786,o),
(1028,814,cs),
(1018,1085,l),
(666,1085,l),
(666,86,l),
(908,86,ls),
(940,86,o),
(957,65,o),
(957,44,cs),
(957,22,o),
(939,0,o),
(906,0,cs),
(330,0,ls),
(296,0,o),
(278,22,o),
(278,44,cs),
(278,65,o),
(295,86,o),
(328,86,cs),
(570,86,l),
(570,1085,l),
(222,1085,l)
);
}
);
};
layerId = "840BD324-B0A6-42B0-BD23-CB5E8C19394F";
shapes = (
{
pos = (-31,-331);
ref = commaaccentcomb;
},
{
ref = T;
}
);
width = 1240;
}
);
unicode = 538;
},
{
glyphname = Tdotaccent;
lastChange = "2024-05-02 14:32:25 +0000";
layers = (
{
background = {
shapes = (
{
closed = 1;
nodes = (
(620,1474,cs),
(666,1474,o),
(702,1437,o),
(702,1391,cs),
(702,1345,o),
(666,1309,o),
(620,1309,cs),
(574,1309,o),
(537,1345,o),
(537,1391,cs),
(537,1437,o),
(574,1474,o)
);
},
{
closed = 1;
nodes = (
(210,814,ls),
(208,783,o),
(189,769,o),
(169,769,cs),
(145,769,o),
(120,788,o),
(120,823,cs),
(120,1117,ls),
(120,1153,o),
(131,1171,o),
(162,1171,cs),
(1078,1171,ls),
(1107,1171,o),
(1118,1152,o),
(1118,1117,cs),
(1118,823,ls),
(1118,788,o),
(1095,771,o),
(1072,771,cs),
(1051,771,o),
(1030,786,o),
(1028,814,cs),
(1018,1085,l),
(666,1085,l),
(666,86,l),
(908,86,ls),
(940,86,o),
(957,65,o),
(957,44,cs),
(957,22,o),
(939,0,o),
(906,0,cs),
(330,0,ls),
(296,0,o),
(278,22,o),
(278,44,cs),
(278,65,o),
(295,86,o),
(328,86,cs),
(570,86,l),
(570,1085,l),
(222,1085,l)
);
}
);
};
layerId = "840BD324-B0A6-42B0-BD23-CB5E8C19394F";
shapes = (
{
pos = (-24,661);
ref = dotaccentcomb;
},
{
ref = T;
}
);
width = 1240;
}
);
unicode = 7786;
},
{
glyphname = U;
lastChange = "2024-05-02 14:32:13 +0000";
layers = (
{
background = {
shapes = (
{
closed = 1;
nodes = (
(654,-17,cs),
(415,-17,o),
(249,142,o),
(249,413,cs),
(249,1085,l),
(104,1085,ls),
(71,1085,o),
(55,1106,o),
(55,1127,cs),
(55,1149,o),
(72,1171,o),
(105,1171,cs),
(506,1171,ls),
(539,1171,o),
(556,1149,o),
(556,1127,cs),
(556,1106,o),
(540,1085,o),
(507,1085,cs),
(345,1085,l),
(345,413,ls),
(345,195,o),
(455,69,o),
(654,69,cs),
(840,69,o),
(960,211,o),
(960,411,cs),
(960,1085,l),
(839,1085,ls),
(806,1085,o),
(789,1106,o),
(789,1127,cs),
(789,1149,o),
(806,1171,o),
(840,1171,cs),
(1173,1171,ls),
(1220,1171,o),
(1243,1149,o),
(1243,1127,cs),
(1243,1106,o),
(1220,1085,o),
(1174,1085,cs),
(1056,1085,l),
(1056,411,ls),
(1056,157,o),
(893,-17,o)
);
}
);
};
layerId = "840BD324-B0A6-42B0-BD23-CB5E8C19394F";
shapes = (
{
closed = 1;
nodes = (
(654,-17,cs),
(415,-17,o),
(249,142,o),
(249,413,cs),
(249,1085,l),
(104,1085,ls),
(71,1085,o),
(55,1106,o),
(55,1127,cs),
(55,1149,o),
(72,1171,o),
(105,1171,cs),
(506,1171,ls),
(539,1171,o),
(556,1149,o),
(556,1127,cs),
(556,1106,o),
(540,1085,o),
(507,1085,cs),
(345,1085,l),
(345,413,ls),
(345,195,o),
(455,69,o),
(654,69,cs),
(840,69,o),
(960,211,o),
(960,411,cs),
(960,1085,l),
(839,1085,ls),
(806,1085,o),
(789,1106,o),
(789,1127,cs),
(789,1149,o),
(806,1171,o),
(840,1171,cs),
(1173,1171,ls),
(1220,1171,o),
(1243,1149,o),
(1243,1127,cs),
(1243,1106,o),
(1220,1085,o),
(1174,1085,cs),
(1056,1085,l),
(1056,411,ls),
(1056,157,o),
(893,-17,o)
);
}
);
width = 1240;
}
);
unicode = 85;
},
{
glyphname = Uacute;
lastChange = "2024-05-02 14:32:21 +0000";
layers = (
{
background = {
shapes = (
{
closed = 1;
nodes = (
(820,1588,cs),
(498,1354,ls),
(495,1351,o),
(491,1350,o),
(487,1350,cs),
(475,1350,o),
(463,1360,o),
(463,1372,cs),
(463,1377,o),
(465,1382,o),
(470,1387,cs),
(741,1663,ls),
(751,1673,o),
(761,1677,o),
(772,1677,cs),
(803,1677,o),
(834,1644,o),
(834,1616,cs),
(834,1606,o),
(830,1595,o)
);
},
{
closed = 1;
nodes = (
(654,-17,cs),
(415,-17,o),
(249,142,o),
(249,413,cs),
(249,1085,l),
(104,1085,ls),
(71,1085,o),
(55,1106,o),
(55,1127,cs),
(55,1149,o),
(72,1171,o),
(105,1171,cs),
(506,1171,ls),
(539,1171,o),
(556,1149,o),
(556,1127,cs),
(556,1106,o),
(540,1085,o),
(507,1085,cs),
(345,1085,l),
(345,413,ls),
(345,195,o),
(455,69,o),
(654,69,cs),
(840,69,o),
(960,211,o),
(960,411,cs),
(960,1085,l),
(839,1085,ls),
(806,1085,o),
(789,1106,o),
(789,1127,cs),
(789,1149,o),
(806,1171,o),
(840,1171,cs),
(1173,1171,ls),
(1220,1171,o),
(1243,1149,o),
(1243,1127,cs),
(1243,1106,o),
(1220,1085,o),
(1174,1085,cs),
(1056,1085,l),
(1056,411,ls),
(1056,157,o),
(893,-17,o)
);
}
);
};
layerId = "840BD324-B0A6-42B0-BD23-CB5E8C19394F";
shapes = (
{
pos = (-38,372);
ref = acute;
},
{
ref = U;
}
);
width = 1240;
}
);
unicode = 218;
},
{
glyphname = Ubreve;
lastChange = "2024-05-02 14:32:21 +0000";
layers = (
{
background = {
shapes = (
{
closed = 1;
nodes = (
(649,1408,cs),
(709,1408,o),
(768,1444,o),
(779,1512,c),
(783,1524,o),
(792,1528,o),
(802,1528,cs),
(818,1528,o),
(836,1516,o),
(836,1504,cs),
(836,1379,o),
(710,1350,o),
(649,1350,cs),
(588,1350,o),
(462,1379,o),
(462,1504,cs),
(462,1516,o),
(480,1528,o),
(496,1528,cs),
(506,1528,o),
(515,1524,o),
(519,1512,c),
(530,1444,o),
(589,1408,o)
);
},
{
closed = 1;
nodes = (
(654,-17,cs),
(415,-17,o),
(249,142,o),
(249,413,cs),
(249,1085,l),
(104,1085,ls),
(71,1085,o),
(55,1106,o),
(55,1127,cs),
(55,1149,o),
(72,1171,o),
(105,1171,cs),
(506,1171,ls),
(539,1171,o),
(556,1149,o),
(556,1127,cs),
(556,1106,o),
(540,1085,o),
(507,1085,cs),
(345,1085,l),
(345,413,ls),
(345,195,o),
(455,69,o),
(654,69,cs),
(840,69,o),
(960,211,o),
(960,411,cs),
(960,1085,l),
(839,1085,ls),
(806,1085,o),
(789,1106,o),
(789,1127,cs),
(789,1149,o),
(806,1171,o),
(840,1171,cs),
(1173,1171,ls),
(1220,1171,o),
(1243,1149,o),
(1243,1127,cs),
(1243,1106,o),
(1220,1085,o),
(1174,1085,cs),
(1056,1085,l),
(1056,411,ls),
(1056,157,o),
(893,-17,o)
);
}
);
};
layerId = "840BD324-B0A6-42B0-BD23-CB5E8C19394F";
shapes = (
{
pos = (-48,380);
ref = breve;
},
{
ref = U;
}
);
width = 1240;
}
);
unicode = 364;
},
{
glyphname = Ucircumflex;
lastChange = "2024-05-02 14:32:21 +0000";
layers = (
{
background = {
shapes = (
{
closed = 1;
nodes = (
(649,1691,cs),
(662,1691,o),
(676,1687,o),
(681,1679,cs),
(865,1396,l),
(870,1391,o),
(872,1384,o),
(872,1379,cs),
(872,1363,o),
(853,1350,o),
(835,1350,cs),
(827,1350,o),
(817,1351,o),
(812,1359,cs),
(649,1568,l),
(487,1359,ls),
(482,1351,o),
(472,1350,o),
(464,1350,cs),
(446,1350,o),
(427,1363,o),
(427,1379,cs),
(427,1384,o),
(429,1391,o),
(434,1396,c),
(618,1679,ls),
(623,1687,o),
(636,1691,o)
);
},
{
closed = 1;
nodes = (
(654,-17,cs),
(415,-17,o),
(249,142,o),
(249,413,cs),
(249,1085,l),
(104,1085,ls),
(71,1085,o),
(55,1106,o),
(55,1127,cs),
(55,1149,o),
(72,1171,o),
(105,1171,cs),
(506,1171,ls),
(539,1171,o),
(556,1149,o),
(556,1127,cs),
(556,1106,o),
(540,1085,o),
(507,1085,cs),
(345,1085,l),
(345,413,ls),
(345,195,o),
(455,69,o),
(654,69,cs),
(840,69,o),
(960,211,o),
(960,411,cs),
(960,1085,l),
(839,1085,ls),
(806,1085,o),
(789,1106,o),
(789,1127,cs),
(789,1149,o),
(806,1171,o),
(840,1171,cs),
(1173,1171,ls),
(1220,1171,o),
(1243,1149,o),
(1243,1127,cs),
(1243,1106,o),
(1220,1085,o),
(1174,1085,cs),
(1056,1085,l),
(1056,411,ls),
(1056,157,o),
(893,-17,o)
);
}
);
};
layerId = "840BD324-B0A6-42B0-BD23-CB5E8C19394F";
shapes = (
{
pos = (-50,371);
ref = circumflex;
},
{
ref = U;
}
);
width = 1240;
}
);
unicode = 219;
},
{
glyphname = Udblgrave;
lastChange = "2024-05-02 14:32:25 +0000";
layers = (
{
background = {
shapes = (
{
closed = 1;
nodes = (
(343,1588,ls),
(333,1595,o),
(329,1606,o),
(329,1616,cs),
(329,1644,o),
(359,1677,o),
(390,1677,cs),
(401,1677,o),
(412,1673,o),
(422,1663,cs),
(693,1387,ls),
(698,1382,o),
(699,1377,o),
(699,1372,cs),
(699,1360,o),
(688,1350,o),
(676,1350,cs),
(672,1350,o),
(668,1351,o),
(665,1354,cs)
);
},
{
closed = 1;
nodes = (
(653,1608,l),
(643,1615,o),
(639,1626,o),
(639,1636,cs),
(639,1664,o),
(669,1697,o),
(700,1697,cs),
(711,1697,o),
(722,1693,o),
(732,1683,c),
(963,1387,ls),
(968,1382,o),
(969,1377,o),
(969,1372,cs),
(969,1360,o),
(958,1350,o),
(946,1350,cs),
(942,1350,o),
(938,1351,o),
(935,1354,cs)
);
},
{
closed = 1;
nodes = (
(654,-17,cs),
(415,-17,o),
(249,142,o),
(249,413,cs),
(249,1085,l),
(104,1085,ls),
(71,1085,o),
(55,1106,o),
(55,1127,cs),
(55,1149,o),
(72,1171,o),
(105,1171,cs),
(506,1171,ls),
(539,1171,o),
(556,1149,o),
(556,1127,cs),
(556,1106,o),
(540,1085,o),
(507,1085,cs),
(345,1085,l),
(345,413,ls),
(345,195,o),
(455,69,o),
(654,69,cs),
(840,69,o),
(960,211,o),
(960,411,cs),
(960,1085,l),
(839,1085,ls),
(806,1085,o),
(789,1106,o),
(789,1127,cs),
(789,1149,o),
(806,1171,o),
(840,1171,cs),
(1173,1171,ls),
(1220,1171,o),
(1243,1149,o),
(1243,1127,cs),
(1243,1106,o),
(1220,1085,o),
(1174,1085,cs),
(1056,1085,l),
(1056,411,ls),
(1056,157,o),
(893,-17,o)
);
}
);
};
layerId = "840BD324-B0A6-42B0-BD23-CB5E8C19394F";
shapes = (
{
pos = (29,444);
ref = dblgravecomb;
},
{
ref = U;
}
);
width = 1240;
}
);
unicode = 532;
},
{
glyphname = Udieresis;
lastChange = "2024-05-02 14:32:21 +0000";
layers = (
{
background = {
shapes = (
{
closed = 1;
nodes = (
(482,1474,cs),
(528,1474,o),
(564,1437,o),
(564,1391,cs),
(564,1345,o),
(528,1309,o),
(482,1309,cs),
(436,1309,o),
(399,1345,o),
(399,1391,cs),
(399,1437,o),
(436,1474,o)
);
},
{
closed = 1;
nodes = (
(817,1474,cs),
(863,1474,o),
(899,1437,o),
(899,1391,cs),
(899,1345,o),
(863,1309,o),
(817,1309,cs),
(771,1309,o),
(734,1345,o),
(734,1391,cs),
(734,1437,o),
(771,1474,o)
);
},
{
closed = 1;
nodes = (
(654,-17,cs),
(415,-17,o),
(249,142,o),
(249,413,cs),
(249,1085,l),
(104,1085,ls),
(71,1085,o),
(55,1106,o),
(55,1127,cs),
(55,1149,o),
(72,1171,o),
(105,1171,cs),
(506,1171,ls),
(539,1171,o),
(556,1149,o),
(556,1127,cs),
(556,1106,o),
(540,1085,o),
(507,1085,cs),
(345,1085,l),
(345,413,ls),
(345,195,o),
(455,69,o),
(654,69,cs),
(840,69,o),
(960,211,o),
(960,411,cs),
(960,1085,l),
(839,1085,ls),
(806,1085,o),
(789,1106,o),
(789,1127,cs),
(789,1149,o),
(806,1171,o),
(840,1171,cs),
(1173,1171,ls),
(1220,1171,o),
(1243,1149,o),
(1243,1127,cs),
(1243,1106,o),
(1220,1085,o),
(1174,1085,cs),
(1056,1085,l),
(1056,411,ls),
(1056,157,o),
(893,-17,o)
);
}
);
};
layerId = "840BD324-B0A6-42B0-BD23-CB5E8C19394F";
shapes = (
{
pos = (-50,331);
ref = dieresis;
},
{
ref = U;
}
);
width = 1240;
}
);
unicode = 220;
},
{
glyphname = Ugrave;
lastChange = "2024-05-02 14:32:21 +0000";
layers = (
{
background = {
shapes = (
{
closed = 1;
nodes = (
(851,1385,cs),
(851,1368,o),
(836,1350,o),
(818,1350,cs),
(813,1350,o),
(809,1351,o),
(806,1354,c),
(695,1418,o),
(573,1497,o),
(466,1564,cs),
(454,1572,o),
(447,1583,o),
(447,1595,cs),
(447,1623,o),
(476,1652,o),
(505,1652,cs),
(516,1652,o),
(525,1649,o),
(533,1642,cs),
(626,1562,o),
(739,1474,o),
(841,1406,cs),
(849,1401,o),
(851,1395,o)
);
},
{
closed = 1;
nodes = (
(654,-17,cs),
(415,-17,o),
(249,142,o),
(249,413,cs),
(249,1085,l),
(104,1085,ls),
(71,1085,o),
(55,1106,o),
(55,1127,cs),
(55,1149,o),
(72,1171,o),
(105,1171,cs),
(506,1171,ls),
(539,1171,o),
(556,1149,o),
(556,1127,cs),
(556,1106,o),
(540,1085,o),
(507,1085,cs),
(345,1085,l),
(345,413,ls),
(345,195,o),
(455,69,o),
(654,69,cs),
(840,69,o),
(960,211,o),
(960,411,cs),
(960,1085,l),
(839,1085,ls),
(806,1085,o),
(789,1106,o),
(789,1127,cs),
(789,1149,o),
(806,1171,o),
(840,1171,cs),
(1173,1171,ls),
(1220,1171,o),
(1243,1149,o),
(1243,1127,cs),
(1243,1106,o),
(1220,1085,o),
(1174,1085,cs),
(1056,1085,l),
(1056,411,ls),
(1056,157,o),
(893,-17,o)
);
}
);
};
layerId = "840BD324-B0A6-42B0-BD23-CB5E8C19394F";
shapes = (
{
pos = (441,375);
ref = grave;
},
{
ref = U;
}
);
width = 1240;
}
);
unicode = 217;
},
{
glyphname = Uhungarumlaut;
lastChange = "2024-05-02 14:32:21 +0000";
layers = (
{
background = {
shapes = (
{
closed = 1;
nodes = (
(955,1588,cs),
(633,1354,ls),
(630,1351,o),
(626,1350,o),
(622,1350,cs),
(610,1350,o),
(599,1360,o),
(599,1372,cs),
(599,1377,o),
(600,1382,o),
(605,1387,cs),
(876,1663,ls),
(886,1673,o),
(897,1677,o),
(908,1677,cs),
(939,1677,o),
(969,1644,o),
(969,1616,cs),
(969,1606,o),
(965,1595,o)
);
},
{
closed = 1;
nodes = (
(645,1608,c),
(363,1354,ls),
(360,1351,o),
(356,1350,o),
(352,1350,cs),
(340,1350,o),
(329,1360,o),
(329,1372,cs),
(329,1377,o),
(330,1382,o),
(335,1387,cs),
(566,1683,l),
(576,1693,o),
(587,1697,o),
(598,1697,cs),
(629,1697,o),
(659,1664,o),
(659,1636,cs),
(659,1626,o),
(655,1615,o)
);
},
{
closed = 1;
nodes = (
(654,-17,cs),
(415,-17,o),
(249,142,o),
(249,413,cs),
(249,1085,l),
(104,1085,ls),
(71,1085,o),
(55,1106,o),
(55,1127,cs),
(55,1149,o),
(72,1171,o),
(105,1171,cs),
(506,1171,ls),
(539,1171,o),
(556,1149,o),
(556,1127,cs),
(556,1106,o),
(540,1085,o),
(507,1085,cs),
(345,1085,l),
(345,413,ls),
(345,195,o),
(455,69,o),
(654,69,cs),
(840,69,o),
(960,211,o),
(960,411,cs),
(960,1085,l),
(839,1085,ls),
(806,1085,o),
(789,1106,o),
(789,1127,cs),
(789,1149,o),
(806,1171,o),
(840,1171,cs),
(1173,1171,ls),
(1220,1171,o),
(1243,1149,o),
(1243,1127,cs),
(1243,1106,o),
(1220,1085,o),
(1174,1085,cs),
(1056,1085,l),
(1056,411,ls),
(1056,157,o),
(893,-17,o)
);
}
);
};
layerId = "840BD324-B0A6-42B0-BD23-CB5E8C19394F";
shapes = (
{
pos = (29,444);
ref = hungarumlaut;
},
{
ref = U;
}
);
width = 1240;
}
);
unicode = 368;
},
{
glyphname = Uinvertedbreve;
lastChange = "2024-05-02 14:32:25 +0000";
layers = (
{
background = {
shapes = (
{
closed = 1;
nodes = (
(649,1470,cs),
(589,1470,o),
(530,1434,o),
(519,1366,c),
(515,1354,o),
(506,1350,o),
(496,1350,cs),
(480,1350,o),
(462,1362,o),
(462,1374,cs),
(462,1499,o),
(588,1528,o),
(649,1528,cs),
(710,1528,o),
(836,1499,o),
(836,1374,cs),
(836,1362,o),
(818,1350,o),
(802,1350,cs),
(792,1350,o),
(783,1354,o),
(779,1366,c),
(768,1434,o),
(709,1470,o)
);
},
{
closed = 1;
nodes = (
(654,-17,cs),
(415,-17,o),
(249,142,o),
(249,413,cs),
(249,1085,l),
(104,1085,ls),
(71,1085,o),
(55,1106,o),
(55,1127,cs),
(55,1149,o),
(72,1171,o),
(105,1171,cs),
(506,1171,ls),
(539,1171,o),
(556,1149,o),
(556,1127,cs),
(556,1106,o),
(540,1085,o),
(507,1085,cs),
(345,1085,l),
(345,413,ls),
(345,195,o),
(455,69,o),
(654,69,cs),
(840,69,o),
(960,211,o),
(960,411,cs),
(960,1085,l),
(839,1085,ls),
(806,1085,o),
(789,1106,o),
(789,1127,cs),
(789,1149,o),
(806,1171,o),
(840,1171,cs),
(1173,1171,ls),
(1220,1171,o),
(1243,1149,o),
(1243,1127,cs),
(1243,1106,o),
(1220,1085,o),
(1174,1085,cs),
(1056,1085,l),
(1056,411,ls),
(1056,157,o),
(893,-17,o)
);
}
);
};
layerId = "840BD324-B0A6-42B0-BD23-CB5E8C19394F";
shapes = (
{
pos = (29,380);
ref = breveinvertedcomb;
},
{
ref = U;
}
);
width = 1240;
}
);
unicode = 534;
},
{
glyphname = Umacron;
lastChange = "2024-05-02 14:32:21 +0000";
layers = (
{
background = {
shapes = (
{
closed = 1;
nodes = (
(832,1350,cs),
(470,1350,ls),
(432,1350,o),
(419,1366,o),
(419,1393,cs),
(419,1420,o),
(435,1436,o),
(469,1436,cs),
(830,1436,ls),
(863,1436,o),
(879,1420,o),
(879,1393,cs),
(879,1366,o),
(865,1350,o)
);
},
{
closed = 1;
nodes = (
(654,-17,cs),
(415,-17,o),
(249,142,o),
(249,413,cs),
(249,1085,l),
(104,1085,ls),
(71,1085,o),
(55,1106,o),
(55,1127,cs),
(55,1149,o),
(72,1171,o),
(105,1171,cs),
(506,1171,ls),
(539,1171,o),
(556,1149,o),
(556,1127,cs),
(556,1106,o),
(540,1085,o),
(507,1085,cs),
(345,1085,l),
(345,413,ls),
(345,195,o),
(455,69,o),
(654,69,cs),
(840,69,o),
(960,211,o),
(960,411,cs),
(960,1085,l),
(839,1085,ls),
(806,1085,o),
(789,1106,o),
(789,1127,cs),
(789,1149,o),
(806,1171,o),
(840,1171,cs),
(1173,1171,ls),
(1220,1171,o),
(1243,1149,o),
(1243,1127,cs),
(1243,1106,o),
(1220,1085,o),
(1174,1085,cs),
(1056,1085,l),
(1056,411,ls),
(1056,157,o),
(893,-17,o)
);
}
);
};
layerId = "840BD324-B0A6-42B0-BD23-CB5E8C19394F";
shapes = (
{
pos = (-51,317);
ref = macron;
},
{
ref = U;
}
);
width = 1240;
}
);
unicode = 362;
},
{
glyphname = Uogonek;
lastChange = "2024-05-02 14:32:21 +0000";
layers = (
{
background = {
shapes = (
{
closed = 1;
nodes = (
(592,-291,cs),
(592,-335,o),
(624,-339,o),
(656,-339,cs),
(679,-339,ls),
(701,-339,o),
(728,-334,o),
(728,-353,cs),
(728,-388,o),
(670,-430,o),
(606,-430,cs),
(543,-430,o),
(494,-401,o),
(494,-320,cs),
(494,-259,o),
(555,-97,o),
(669,-3,c),
(710,-3,ls),
(714,-3,o),
(592,-219,o)
);
},
{
closed = 1;
nodes = (
(654,-17,cs),
(415,-17,o),
(249,142,o),
(249,413,cs),
(249,1085,l),
(104,1085,ls),
(71,1085,o),
(55,1106,o),
(55,1127,cs),
(55,1149,o),
(72,1171,o),
(105,1171,cs),
(506,1171,ls),
(539,1171,o),
(556,1149,o),
(556,1127,cs),
(556,1106,o),
(540,1085,o),
(507,1085,cs),
(345,1085,l),
(345,413,ls),
(345,195,o),
(455,69,o),
(654,69,cs),
(840,69,o),
(960,211,o),
(960,411,cs),
(960,1085,l),
(839,1085,ls),
(806,1085,o),
(789,1106,o),
(789,1127,cs),
(789,1149,o),
(806,1171,o),
(840,1171,cs),
(1173,1171,ls),
(1220,1171,o),
(1243,1149,o),
(1243,1127,cs),
(1243,1106,o),
(1220,1085,o),
(1174,1085,cs),
(1056,1085,l),
(1056,411,ls),
(1056,157,o),
(893,-17,o)
);
}
);
};
layerId = "840BD324-B0A6-42B0-BD23-CB5E8C19394F";
shapes = (
{
pos = (-9,-23);
ref = ogonek;
},
{
ref = U;
}
);
width = 1240;
}
);
unicode = 370;
},
